<?xml version="1.0" encoding="UTF-8" standalone="no"?>
<!-- Created with Inkscape (http://www.inkscape.org/) -->

<svg
   width="20.461111mm"
   height="22.577778mm"
   viewBox="0 0 20.461111 22.577778"
   version="1.1"
   id="svg1"
   inkscape:export-filename="bitmap2.svg"
   inkscape:export-xdpi="96"
   inkscape:export-ydpi="96"
   xmlns:inkscape="http://www.inkscape.org/namespaces/inkscape"
   xmlns:sodipodi="http://sodipodi.sourceforge.net/DTD/sodipodi-0.dtd"
   xmlns="http://www.w3.org/2000/svg"
   xmlns:svg="http://www.w3.org/2000/svg">
  <sodipodi:namedview
     id="namedview1"
     pagecolor="#505050"
     bordercolor="#eeeeee"
     borderopacity="1"
     inkscape:showpageshadow="0"
     inkscape:pageopacity="0"
     inkscape:pagecheckerboard="0"
     inkscape:deskcolor="#505050"
     inkscape:document-units="mm" />
  <defs
     id="defs1" />
  <g
     inkscape:groupmode="layer"
     id="layer2"
     inkscape:label="Capa 2"
     style="display:none;fill:#ffffff"
     transform="translate(-0.54080505,-0.00336148)">
    <rect
       style="display:inline;fill:#ffffff;stroke-width:0.264583"
       id="rect1"
       width="25.858837"
       height="26.597664"
       x="-1.8470598"
       y="-1.6623539" />
  </g>
  <g
     inkscape:label="Capa 1"
     inkscape:groupmode="layer"
     id="layer1"
     transform="translate(-71.572198,-71.933098)"
     style="display:none">
    <path
       id="path726"
       d="m 90.434173,88.364243 v -2.147006 c 0,-0.68086 -0.553863,-1.234723 -1.234723,-1.234723 -0.680861,0 -1.234723,0.553863 -1.234723,1.234723 v 2.99861 H 81.26195 V 77.221404 h 9.877777 v 11.848393 z m -8.11389,2.968271 c -0.583493,0 -1.058333,-0.474837 -1.058333,-1.058334 v -0.352777 h 6.702777 v 1.411111 z m 0,-16.227777 h 7.76111 c 0.583496,0 1.058334,0.47484 1.058334,1.058333 v 0.352777 H 81.26195 V 76.16307 c 0,-0.583493 0.47484,-1.058333 1.058333,-1.058333 z M 93.527681,87.57896 91.845283,85.560364 V 76.16307 c 0,-0.972608 -0.791281,-1.763889 -1.76389,-1.763889 h -7.76111 c -0.972608,0 -1.76389,0.791281 -1.76389,1.763889 v 14.11111 c 0,0.972609 0.791282,1.76389 1.76389,1.76389 h 5.644444 v 0.352777 c 0,0.09384 0.03704,0.183444 0.103364,0.249415 l 1.307748,1.307745 v 0.559507 h 0.705554 v -0.705557 c 0,-0.09384 -0.03704,-0.183443 -0.103362,-0.249412 l -1.307748,-1.307748 v -6.02756 c 0,-0.291748 0.237419,-0.529167 0.529167,-0.529167 0.291748,0 0.529166,0.237419 0.529166,0.529167 v 2.293056 c 0,0.09349 0.03704,0.183444 0.103365,0.249412 l 1.41111,1.411113 c 0.101248,0.101246 0.252942,0.131937 0.384527,0.07655 0.13194,-0.05433 0.217665,-0.183443 0.217665,-0.325967 v -3.25896 l 1.058333,1.27 v 6.575071 h 0.705557 v -6.702777 c 0,-0.08255 -0.02893,-0.162277 -0.08149,-0.225777"
       style="fill:#1f2937;fill-opacity:1;fill-rule:nonzero;stroke:none;stroke-width:0.0352777" />
    <path
       id="path727"
       d="m 72.235777,75.457514 2.323396,-2.323394 v 2.323394 z m 13.259506,18.344443 h -12.7 c -0.583493,0 -1.058333,-0.474837 -1.058333,-1.058333 V 76.16307 h 3.175 c 0.195085,0 0.352777,-0.158043 0.352777,-0.352777 v -3.175 h 10.230556 c 0.583494,0 1.058333,0.474838 1.058333,1.058334 h 0.705557 c 0,-0.972609 -0.791282,-1.76389 -1.76389,-1.76389 H 74.91195 c -0.09772,0 -0.185915,0.03951 -0.249767,0.103717 l -3.527073,3.527073 c -0.0642,0.06385 -0.103717,0.152045 -0.103717,0.249766 v 16.933331 c 0,0.972608 0.791282,1.76389 1.76389,1.76389 h 12.7 c 0.972608,0 1.76389,-0.791282 1.76389,-1.76389 h -0.705557 c 0,0.583496 -0.474839,1.058333 -1.058333,1.058333"
       style="fill:#1f2937;fill-opacity:1;fill-rule:nonzero;stroke:none;stroke-width:0.0352777" />
    <path
       id="path728"
       d="m 79.85084,84.629737 h -7.055557 v 0.705556 h 7.055557 v -0.705556"
       style="fill:#1f2937;fill-opacity:1;fill-rule:nonzero;stroke:none;stroke-width:0.0352777" />
    <path
       id="path729"
       d="m 79.85084,86.040847 h -7.055557 v 0.705556 h 7.055557 v -0.705556"
       style="fill:#1f2937;fill-opacity:1;fill-rule:nonzero;stroke:none;stroke-width:0.0352777" />
    <path
       id="path730"
       d="m 79.85084,87.45196 h -7.055557 v 0.705554 H 79.85084 V 87.45196"
       style="fill:#1f2937;fill-opacity:1;fill-rule:nonzero;stroke:none;stroke-width:0.0352777" />
    <path
       id="path731"
       d="m 79.85084,88.86307 h -7.055557 v 0.705557 H 79.85084 V 88.86307"
       style="fill:#1f2937;fill-opacity:1;fill-rule:nonzero;stroke:none;stroke-width:0.0352777" />
    <path
       id="path732"
       d="m 79.85084,90.27418 h -7.055557 v 0.705557 H 79.85084 V 90.27418"
       style="fill:#1f2937;fill-opacity:1;fill-rule:nonzero;stroke:none;stroke-width:0.0352777" />
    <path
       id="path733"
       d="m 72.795283,92.390847 h 7.055557 v -0.705556 h -7.055557 v 0.705556"
       style="fill:#1f2937;fill-opacity:1;fill-rule:nonzero;stroke:none;stroke-width:0.0352777" />
    <path
       id="path734"
       d="m 83.731393,79.690847 h -0.705554 v -0.705554 h 0.705554 z m 0.35278,-1.41111 H 82.67306 c -0.195085,0 -0.352777,0.158043 -0.352777,0.352777 v 1.411113 c 0,0.194733 0.157692,0.352777 0.352777,0.352777 h 1.411113 c 0.195085,0 0.352777,-0.158044 0.352777,-0.352777 v -1.411113 c 0,-0.194734 -0.157692,-0.352777 -0.352777,-0.352777"
       style="fill:#ffd700;fill-opacity:1;fill-rule:nonzero;stroke:none;stroke-width:0.0352777" />
    <path
       id="path735"
       d="m 73.50084,77.57418 h 0.705553 v 0.705557 H 73.50084 Z m 1.058333,1.411113 c 0.195085,0 0.352777,-0.158046 0.352777,-0.352779 v -1.41111 c 0,-0.194734 -0.157692,-0.352777 -0.352777,-0.352777 H 73.14806 c -0.195085,0 -0.352777,0.158043 -0.352777,0.352777 v 1.41111 c 0,0.194733 0.157692,0.352779 0.352777,0.352779 h 1.411113"
       style="fill:#ffd700;fill-opacity:1;fill-rule:nonzero;stroke:none;stroke-width:0.0352777" />
    <path
       id="path736"
       d="m 73.50084,82.51307 h 0.705553 v 0.705557 H 73.50084 Z m -0.705557,1.058334 c 0,0.194733 0.157692,0.352776 0.352777,0.352776 h 1.411113 c 0.195085,0 0.352777,-0.158043 0.352777,-0.352776 v -1.411111 c 0,-0.194733 -0.157692,-0.352779 -0.352777,-0.352779 H 73.14806 c -0.195085,0 -0.352777,0.158046 -0.352777,0.352779 v 1.411111"
       style="fill:#ffd700;fill-opacity:1;fill-rule:nonzero;stroke:none;stroke-width:0.0352777" />
    <path
       id="path737"
       d="m 78.08695,77.57418 h 0.705556 v 0.705557 H 78.08695 Z m 1.058333,1.411113 c 0.195085,0 0.352777,-0.158046 0.352777,-0.352779 v -1.41111 c 0,-0.194734 -0.157692,-0.352777 -0.352777,-0.352777 h -1.41111 c -0.195088,0 -0.35278,0.158043 -0.35278,0.352777 v 1.41111 c 0,0.194733 0.157692,0.352779 0.35278,0.352779 h 1.41111"
       style="fill:#ffd700;fill-opacity:1;fill-rule:nonzero;stroke:none;stroke-width:0.0352777" />
    <path
       id="path738"
       d="m 89.375839,79.690847 h -0.705556 v -0.705554 h 0.705556 z m 0.352777,-1.41111 h -1.41111 c -0.195088,0 -0.352779,0.158043 -0.352779,0.352777 v 1.411113 c 0,0.194733 0.157691,0.352777 0.352779,0.352777 h 1.41111 c 0.195086,0 0.352777,-0.158044 0.352777,-0.352777 v -1.411113 c 0,-0.194734 -0.157691,-0.352777 -0.352777,-0.352777"
       style="fill:#ffd700;fill-opacity:1;fill-rule:nonzero;stroke:none;stroke-width:0.0352777" />
    <path
       id="path739"
       d="m 83.731393,85.335293 h -0.705554 v -0.705556 h 0.705554 z m 0.35278,-1.411113 H 82.67306 c -0.195085,0 -0.352777,0.158047 -0.352777,0.35278 v 1.41111 c 0,0.194733 0.157692,0.352777 0.352777,0.352777 h 1.411113 c 0.195085,0 0.352777,-0.158044 0.352777,-0.352777 v -1.41111 c 0,-0.194733 -0.157692,-0.35278 -0.352777,-0.35278"
       style="fill:#ffd700;fill-opacity:1;fill-rule:nonzero;stroke:none;stroke-width:0.0352777" />
    <path
       id="path740"
       d="M 82.320283,81.807514 H 84.43695 V 81.10196 h -2.116667 v 0.705554"
       style="fill:#ffd700;fill-opacity:1;fill-rule:nonzero;stroke:none;stroke-width:0.0352777" />
    <path
       id="path741"
       d="m 85.142506,78.279737 v 0.705556 h 0.705554 v -0.705556 h -0.705554"
       style="fill:#ffd700;fill-opacity:1;fill-rule:nonzero;stroke:none;stroke-width:0.0352777" />
    <path
       id="path742"
       d="m 86.906393,81.807514 h 1.411113 V 81.10196 h -1.058333 v -2.822223 h -0.705557 v 0.705556 H 85.84806 v 0.705554 h 0.705556 v 1.76389 c 0,0.194733 0.157692,0.352777 0.352777,0.352777"
       style="fill:#ffd700;fill-opacity:1;fill-rule:nonzero;stroke:none;stroke-width:0.0352777" />
    <path
       id="path743"
       d="m 85.142506,82.160293 h 0.705554 v -2.469446 h -0.705554 v 2.469446"
       style="fill:#ffd700;fill-opacity:1;fill-rule:nonzero;stroke:none;stroke-width:0.0352777" />
    <path
       id="path744"
       d="m 83.025839,82.51307 h -0.705556 v 0.705557 h 0.705556 V 82.51307"
       style="fill:#ffd700;fill-opacity:1;fill-rule:nonzero;stroke:none;stroke-width:0.0352777" />
    <path
       id="path745"
       d="M 83.731393,83.218627 H 84.43695 V 82.51307 h -0.705557 v 0.705557"
       style="fill:#ffd700;fill-opacity:1;fill-rule:nonzero;stroke:none;stroke-width:0.0352777" />
    <path
       id="path746"
       d="M 85.142506,86.040847 H 85.84806 V 84.27696 h -0.705554 v 1.763887"
       style="fill:#ffd700;fill-opacity:1;fill-rule:nonzero;stroke:none;stroke-width:0.0352777" />
    <path
       id="path747"
       d="m 85.142506,82.865847 v 0.705557 h 0.705554 v -0.705557 h -0.705554"
       style="fill:#ffd700;fill-opacity:1;fill-rule:nonzero;stroke:none;stroke-width:0.0352777" />
    <path
       id="path748"
       d="m 85.84806,84.27696 h 0.705556 V 83.571404 H 85.84806 v 0.705556"
       style="fill:#ffd700;fill-opacity:1;fill-rule:nonzero;stroke:none;stroke-width:0.0352777" />
    <path
       id="path749"
       d="M 86.553616,82.865847 V 82.160293 H 85.84806 v 0.705554 h 0.705556"
       style="fill:#ffd700;fill-opacity:1;fill-rule:nonzero;stroke:none;stroke-width:0.0352777" />
    <path
       id="path750"
       d="m 86.553616,85.68807 h 0.705557 v -0.705556 h -0.705557 v 0.705556"
       style="fill:#ffd700;fill-opacity:1;fill-rule:nonzero;stroke:none;stroke-width:0.0352777" />
    <path
       id="path751"
       d="m 89.02306,81.10196 v 0.705554 h 0.705556 V 81.10196 H 89.02306"
       style="fill:#ffd700;fill-opacity:1;fill-rule:nonzero;stroke:none;stroke-width:0.0352777" />
    <path
       id="path752"
       d="m 87.964727,82.865847 v 1.76389 h 0.705556 v -1.41111 h 1.41111 V 82.51307 h -1.763887 c -0.195088,0 -0.352779,0.158044 -0.352779,0.352777"
       style="fill:#ffd700;fill-opacity:1;fill-rule:nonzero;stroke:none;stroke-width:0.0352777" />
    <path
       id="path753"
       d="m 89.375839,84.629737 h 0.705554 V 83.92418 h -0.705554 v 0.705557"
       style="fill:#ffd700;fill-opacity:1;fill-rule:nonzero;stroke:none;stroke-width:0.0352777" />
    <path
       id="path754"
       d="m 87.259173,83.571404 v -0.705557 h -0.705557 v 0.705557 h 0.705557"
       style="fill:#ffd700;fill-opacity:1;fill-rule:nonzero;stroke:none;stroke-width:0.0352777" />
    <path
       id="path755"
       d="m 72.795283,81.10196 h 2.822223 V 80.396404 H 74.206393 V 79.690847 H 73.50084 v 0.705557 h -0.705557 v 0.705556"
       style="fill:#ffd700;fill-opacity:1;fill-rule:nonzero;stroke:none;stroke-width:0.0352777" />
    <path
       id="path756"
       d="m 75.264727,76.868627 v 0.705553 h 0.705556 v -0.705553 h -0.705556"
       style="fill:#ffd700;fill-opacity:1;fill-rule:nonzero;stroke:none;stroke-width:0.0352777" />
    <path
       id="path757"
       d="m 75.264727,78.985293 h 0.705556 v -0.705556 h -0.705556 v 0.705556"
       style="fill:#ffd700;fill-opacity:1;fill-rule:nonzero;stroke:none;stroke-width:0.0352777" />
    <path
       id="path758"
       d="M 76.67584,78.279737 V 77.57418 h -0.705557 v 0.705557 h 0.705557"
       style="fill:#ffd700;fill-opacity:1;fill-rule:nonzero;stroke:none;stroke-width:0.0352777" />
    <path
       id="path759"
       d="m 75.617506,81.10196 v 0.705554 H 76.32306 V 81.10196 h -0.705554"
       style="fill:#ffd700;fill-opacity:1;fill-rule:nonzero;stroke:none;stroke-width:0.0352777" />
    <path
       id="path760"
       d="M 77.028616,78.985293 H 76.32306 v 0.705554 h 0.705556 v -0.705554"
       style="fill:#ffd700;fill-opacity:1;fill-rule:nonzero;stroke:none;stroke-width:0.0352777" />
    <path
       id="path761"
       d="m 76.32306,79.690847 h -0.705554 v 0.705557 h 0.705554 v -0.705557"
       style="fill:#ffd700;fill-opacity:1;fill-rule:nonzero;stroke:none;stroke-width:0.0352777" />
    <path
       id="path762"
       d="m 77.734173,80.396404 v -0.705557 h -0.705557 v 0.705557 h 0.705557"
       style="fill:#ffd700;fill-opacity:1;fill-rule:nonzero;stroke:none;stroke-width:0.0352777" />
    <path
       id="path763"
       d="m 79.145283,81.10196 c 0.195085,0 0.352777,-0.158046 0.352777,-0.35278 v -1.058333 h -0.705554 v 0.705557 h -1.058333 v 0.705556 h 1.41111"
       style="fill:#ffd700;fill-opacity:1;fill-rule:nonzero;stroke:none;stroke-width:0.0352777" />
    <path
       id="path764"
       d="M 77.028616,80.396404 H 76.32306 v 0.705556 h 0.705556 v -0.705556"
       style="fill:#ffd700;fill-opacity:1;fill-rule:nonzero;stroke:none;stroke-width:0.0352777" />
    <path
       id="path765"
       d="m 79.145283,82.51307 h -0.705556 v 0.705557 h 0.705556 V 82.51307"
       style="fill:#ffd700;fill-opacity:1;fill-rule:nonzero;stroke:none;stroke-width:0.0352777" />
    <path
       id="path766"
       d="m 77.028616,81.807514 h 0.705557 V 81.10196 h -0.705557 v 0.705554"
       style="fill:#ffd700;fill-opacity:1;fill-rule:nonzero;stroke:none;stroke-width:0.0352777" />
    <path
       id="path767"
       d="m 76.32306,82.51307 h -0.705554 v 0.705557 h 2.116667 V 82.51307 H 77.028616 V 81.807514 H 76.32306 v 0.705556"
       style="fill:#ffd700;fill-opacity:1;fill-rule:nonzero;stroke:none;stroke-width:0.0352777" />
    <path
       id="path768"
       d="m 78.439727,83.92418 v -0.705553 h -0.705554 v 0.705553 h 0.705554"
       style="fill:#ffd700;fill-opacity:1;fill-rule:nonzero;stroke:none;stroke-width:0.0352777" />
  </g>
  <g
     inkscape:groupmode="layer"
     id="layer3"
     inkscape:label="Capa 3"
     style="display:none"
     transform="translate(-0.54080505,-0.00336148)">
    <path
       id="path892"
       d="M 2.5823963,11.844449 H 1.8490636 v -0.733333 h 0.7333327 v 0.733333"
       style="fill:#100f0d;fill-opacity:1;fill-rule:nonzero;stroke:none;stroke-width:0.0366666" />
    <path
       id="path893"
       d="M 4.0490638,11.844449 H 3.31573 v -0.733333 h 0.7333338 v 0.733333"
       style="fill:#100f0d;fill-opacity:1;fill-rule:nonzero;stroke:none;stroke-width:0.0366666" />
    <path
       id="path894"
       d="M 5.5157302,11.844449 H 4.7823965 v -0.733333 h 0.7333337 v 0.733333"
       style="fill:#100f0d;fill-opacity:1;fill-rule:nonzero;stroke:none;stroke-width:0.0366666" />
    <path
       id="path895"
       d="m 14.682397,7.4444494 c -0.808867,0 -1.466667,0.6578 -1.466667,1.4666666 0,0.8088667 0.6578,1.466666 1.466667,1.466666 0.808867,0 1.466666,-0.6577993 1.466666,-1.466666 0,-0.8088666 -0.657799,-1.4666666 -1.466666,-1.4666666 z m 0,3.6666666 c -1.2133,0 -2.2,-0.9867 -2.2,-2.2 0,-1.2132999 0.9867,-2.2 2.2,-2.2 1.2133,0 2.2,0.9867001 2.2,2.2 0,1.2133 -0.9867,2.2 -2.2,2.2"
       style="fill:#100f0d;fill-opacity:1;fill-rule:nonzero;stroke:none;stroke-width:0.0366666" />
    <path
       id="path896"
       d="m 12.849063,12.577783 h 3.666667 v -0.366667 c 0,-0.606466 -0.493533,-1.1 -1.1,-1.1 h -1.466667 c -0.606466,0 -1.1,0.493534 -1.1,1.1 z m 4.033334,0.733333 h -4.4 c -0.202767,0 -0.366667,-0.164267 -0.366667,-0.366667 v -0.733333 c 0,-1.0109 0.822433,-1.833334 1.833333,-1.833334 h 1.466667 c 1.0109,0 1.833333,0.822434 1.833333,1.833334 v 0.733333 c 0,0.2024 -0.163899,0.366667 -0.366666,0.366667"
       style="fill:#100f0d;fill-opacity:1;fill-rule:nonzero;stroke:none;stroke-width:0.0366666" />
    <path
       id="path898"
       d="M 1.8490636,18.811116 H 20.91573 v -4.033333 h -9.9 c -0.202766,0 -0.366667,-0.164267 -0.366667,-0.366667 v -8.8 c 0,-0.2023999 0.163901,-0.3666666 0.366667,-0.3666666 h 9.9 V 1.2111158 H 1.8490636 v 8.0666669 h 4.7666662 c 0.2027666,0 0.3666669,0.1642667 0.3666669,0.3666667 v 3.6666666 c 0,0.2024 -0.1639003,0.366666 -0.3666669,0.366666 H 4.7823965 v 0.733334 c 0,0.138967 -0.078462,0.265833 -0.2027666,0.328166 -0.1243003,0.0616 -0.2731661,0.0484 -0.3838996,-0.03483 L 2.8269632,13.677785 H 1.8490636 Z M 21.282396,19.544449 H 1.4823967 c -0.2027666,0 -0.3666669,-0.164266 -0.3666669,-0.366667 v -5.866666 c 0,-0.2024 0.1639003,-0.366667 0.3666669,-0.366667 h 1.4666665 c 0.079564,0 0.1565665,0.02566 0.2200003,0.07334 l 0.8800003,0.66 v -0.366665 c 0,-0.202401 0.1638993,-0.366667 0.3666658,-0.366667 H 6.249063 V 10.011118 H 1.4823967 c -0.2027666,0 -0.3666669,-0.1642667 -0.3666669,-0.3666666 V 0.84444891 c 0,-0.20239965 0.1639003,-0.36666584 0.3666669,-0.36666584 H 21.282396 c 0.202767,0 0.366667,0.16426619 0.366667,0.36666584 V 5.611116 c 0,0.2024 -0.1639,0.3666667 -0.366667,0.3666667 h -9.899999 v 8.0666663 h 9.899999 c 0.202767,0 0.366667,0.164267 0.366667,0.366667 v 4.766666 c 0,0.202401 -0.1639,0.366667 -0.366667,0.366667"
       style="fill:#1f2937;fill-opacity:1;fill-rule:nonzero;stroke:none;stroke-width:0.0366666" />
    <path
       id="path899"
       d="M 3.31573,15.877782 H 19.449063 V 14.777783 H 11.01573 c -0.202766,0 -0.366667,-0.164267 -0.366667,-0.366667 v -8.8 c 0,-0.2023999 0.163901,-0.3666666 0.366667,-0.3666666 h 8.433333 V 2.6777827 H 3.31573 v 6.6 h 3.2999998 c 0.2027666,0 0.3666669,0.1642667 0.3666669,0.3666667 v 3.6666666 c 0,0.2024 -0.1639003,0.366666 -0.3666669,0.366666 H 4.7823965 v 0.733334 c 0,0.138967 -0.078462,0.265833 -0.2027666,0.328166 -0.1243003,0.0616 -0.2731661,0.0484 -0.3838996,-0.03483 l -0.8800003,-0.66 z m 16.5,0.733334 H 2.9490632 c -0.2027666,0 -0.3666669,-0.164267 -0.3666669,-0.366667 v -2.933333 c 0,-0.138967 0.078472,-0.265833 0.2027676,-0.328166 0.1239324,-0.06197 0.2727992,-0.0484 0.3838996,0.03483 l 0.8800003,0.66 v -0.366666 c 0,-0.2024 0.1638993,-0.366667 0.3666658,-0.366667 H 6.249063 v -2.93333 H 2.9490632 c -0.2027666,0 -0.3666669,-0.1642667 -0.3666669,-0.3666666 V 2.311116 c 0,-0.2023999 0.1639003,-0.3666666 0.3666669,-0.3666666 H 19.81573 c 0.202767,0 0.366667,0.1642667 0.366667,0.3666666 v 3.3 c 0,0.2024 -0.1639,0.3666667 -0.366667,0.3666667 h -8.433333 v 8.0666663 h 8.433333 c 0.202767,0 0.366667,0.164267 0.366667,0.366667 v 1.833333 c 0,0.2024 -0.1639,0.366667 -0.366667,0.366667"
       style="fill:#ffd700;fill-opacity:1;fill-rule:nonzero;stroke:none;stroke-width:0.0366666" />
    <path
       id="path897"
       d="M 11.382397,14.044449 H 21.649063 V 5.9777827 H 11.382397 Z m 10.633333,0.733334 h -11 c -0.202766,0 -0.366667,-0.164267 -0.366667,-0.366667 v -8.8 c 0,-0.2023999 0.163901,-0.3666666 0.366667,-0.3666666 h 11 c 0.202767,0 0.366667,0.1642667 0.366667,0.3666666 v 8.8 c 0,0.2024 -0.1639,0.366667 -0.366667,0.366667"
       style="fill:#ffd700;fill-opacity:1;fill-rule:nonzero;stroke:none;stroke-width:0.0366666" />
    <path
       id="path900"
       d="M 13.21573,18.077783 H 9.9157296 V 17.344449 H 13.21573 v 0.733334"
       style="fill:#1f2937;fill-opacity:1;fill-rule:nonzero;stroke:none;stroke-width:0.0366666" />
    <path
       id="path901"
       d="m 1.1157298,19.544449 v 0.366667 c 0,1.0109 0.8224338,1.833333 1.8333334,1.833333 H 19.81573 c 1.0109,0 1.833333,-0.822433 1.833333,-1.833333 V 19.544449 Z M 19.81573,22.477783 H 2.9490632 c -1.4149662,0 -2.56666615,-1.151334 -2.56666615,-2.566667 v -0.733334 c 0,-0.202399 0.1638993,-0.366666 0.36666584,-0.366666 H 22.01573 c 0.202767,0 0.366667,0.164267 0.366667,0.366666 v 0.733334 c 0,1.415333 -1.1517,2.566667 -2.566667,2.566667"
       style="fill:#1f2937;fill-opacity:1;fill-rule:nonzero;stroke:none;stroke-width:0.0366666" />
    <path
       id="path891"
       d="m 1.1157298,12.944449 h 1.8333334 c 0.079564,0 0.1565665,0.02566 0.2200003,0.07334 l 0.8800003,0.66 v -0.366665 c 0,-0.202401 0.1638993,-0.366667 0.3666658,-0.366667 H 6.249063 V 10.011118 H 1.1157298 Z m 3.2999998,1.833334 c -0.077735,0 -0.1554658,-0.02493 -0.2199993,-0.07334 L 2.8269632,13.677776 H 0.74906289 c -0.20276654,0 -0.36666584,-0.164266 -0.36666584,-0.366667 v -3.66666 c 0,-0.2024 0.1638993,-0.3666667 0.36666584,-0.3666667 H 6.6157298 c 0.2027666,0 0.3666669,0.1642667 0.3666669,0.3666667 v 3.666666 c 0,0.202401 -0.1639003,0.366667 -0.3666669,0.366667 H 4.7823965 v 0.733334 c 0,0.138967 -0.078462,0.265833 -0.2027666,0.328166 -0.051698,0.02566 -0.1081661,0.0385 -0.1639003,0.0385"
       style="fill:#ffd700;fill-opacity:1;fill-rule:nonzero;stroke:none;stroke-width:0.0366666" />
    <path
       id="path902"
       d="M 21.640235,9.2777827 H 16.51573 V 8.5444494 h 5.124505 v 0.7333333"
       style="fill:#100f0d;fill-opacity:1;fill-rule:nonzero;stroke:none;stroke-width:0.0353928" />
    <path
       id="path903"
       d="M 19.449063,7.811116 H 18.71573 V 7.0777827 h 0.733333 V 7.811116"
       style="fill:#100f0d;fill-opacity:1;fill-rule:nonzero;stroke:none;stroke-width:0.0366666" />
    <path
       id="path904"
       d="M 20.91573,7.811116 H 20.182397 V 7.0777827 H 20.91573 V 7.811116"
       style="fill:#100f0d;fill-opacity:1;fill-rule:nonzero;stroke:none;stroke-width:0.0366666" />
    <path
       id="path905"
       d="M 17.982397,7.811116 H 17.249063 V 7.0777827 h 0.733334 V 7.811116"
       style="fill:#100f0d;fill-opacity:1;fill-rule:nonzero;stroke:none;stroke-width:0.0366666" />
    <path
       id="path906"
       d="M 12.849063,9.2777827 H 11.391225 V 8.5444494 h 1.457838 v 0.7333333"
       style="fill:#100f0d;fill-opacity:1;fill-rule:nonzero;stroke:none;stroke-width:0.0326968" />
  </g>
  <g
     inkscape:groupmode="layer"
     id="layer4"
     inkscape:label="Capa 4"
     transform="translate(-0.54080505,-0.00336148)">
    <path
       id="path464"
       d="m 16.768584,16.437833 v -2.146971 c 0,-0.680896 -0.553861,-1.234722 -1.234722,-1.234722 -0.680861,0 -1.234722,0.553826 -1.234722,1.234722 v 2.293056 H 4.0685834 V 3.1783617 H 17.47414 V 17.143388 Z M 5.1269168,19.40614 c -0.5834945,0 -1.0583334,-0.474874 -1.0583334,-1.058333 V 17.289473 H 14.29914 v 2.116667 z m 0,-18.69722292 H 16.415806 c 0.583495,0 1.058334,0.47487422 1.058334,1.05833342 V 2.4728061 H 4.0685834 V 1.7672505 c 0,-0.5834592 0.4748389,-1.05833342 1.0583334,-1.05833342 z M 18.179695,13.633672 V 1.7672505 c 0,-0.97260842 -0.79128,-1.76388902 -1.763889,-1.76388902 H 5.1269168 c -0.9726084,0 -1.763889,0.7912806 -1.763889,1.76388902 V 18.347807 c 0,0.972608 0.7912806,1.763889 1.763889,1.763889 H 14.29914 v 0.352778 c 0,0.09384 0.03704,0.183409 0.103364,0.249414 l 1.307747,1.307782 v 0.55947 h 0.705555 v -0.705555 c 0,-0.09384 -0.03704,-0.183409 -0.103363,-0.249414 l -1.307748,-1.307783 v -6.027526 c 0,-0.291747 0.23742,-0.529167 0.529167,-0.529167 0.291747,0 0.529167,0.23742 0.529167,0.529167 v 2.293056 c 0,0.09384 0.03704,0.183409 0.103364,0.249414 l 1.411111,1.411111 c 0.101247,0.101282 0.252941,0.131904 0.384528,0.07648 0.131938,-0.05429 0.217663,-0.183409 0.217663,-0.325896 v -3.258644 l 1.058334,1.269718 v 6.575037 h 0.705555 V 15.87836 c 0,-0.08255 -0.02893,-0.162595 -0.08149,-0.22613 l -1.682397,-2.01856"
       style="fill:#1f2937;fill-opacity:1;fill-rule:nonzero;stroke:none;stroke-width:0.0352778" />
    <path
       id="path465"
       d="m 10.418584,18.700585 h 0.705555 v -0.705556 h -0.705555 v 0.705556"
       style="fill:#100f0d;fill-opacity:1;fill-rule:nonzero;stroke:none;stroke-width:0.0352778" />
    <path
       id="path466"
       d="M 15.004695,8.8693732 14.494931,8.5292954 c -0.105127,-0.070168 -0.239889,-0.078705 -0.353483,-0.02219 l -0.900642,0.450462 V 5.8241952 c 0,-0.4864453 0.395464,-0.8819445 0.881945,-0.8819445 0.48648,0 0.881944,0.3954992 0.881944,0.8819445 z M 12.535251,14.513818 12.025487,14.17374 c -0.118534,-0.07937 -0.27305,-0.07937 -0.391584,0 L 10.771362,14.748768 9.9088199,14.17374 c -0.059267,-0.03955 -0.1277056,-0.05927 -0.1957917,-0.05927 -0.068086,0 -0.136525,0.01972 -0.1957917,0.05927 L 8.6546948,14.748768 7.7921531,14.17374 c -0.1185334,-0.07937 -0.27305,-0.07937 -0.3915834,0 L 6.8908058,14.513818 V 5.6478063 c 0,-0.3891492 0.3164417,-0.7055556 0.7055556,-0.7055556 h 5.1283306 c -0.12065,0.2078214 -0.189441,0.4486981 -0.189441,0.7055556 v 0.1763889 3.7041669 z m 1.5875,-10.2771229 c -0.04022,0 -0.07796,0.00882 -0.117475,0.011994 -0.01976,-0.0036 -0.0381,-0.011994 -0.05891,-0.011994 H 7.5963613 c -0.7782278,0 -1.4111112,0.6329187 -1.4111112,1.4111112 v 9.5250007 c 0,0.13021 0.071614,0.249696 0.1862667,0.31115 0.1146528,0.06174 0.2543528,0.05429 0.3623028,-0.01764 l 0.8625417,-0.575028 0.8625417,0.575028 c 0.1185334,0.07938 0.27305,0.07938 0.3915834,0 l 0.8625417,-0.575028 0.8625419,0.575028 c 0.118533,0.07938 0.27305,0.07938 0.391583,0 l 0.862542,-0.575028 0.862542,0.575028 c 0.05891,0.03916 0.127352,0.05927 0.195791,0.05927 0.05715,0 0.1143,-0.01379 0.166511,-0.04163 0.114653,-0.06145 0.186267,-0.18094 0.186267,-0.31115 V 9.7463783 l 1.032934,-0.5165015 0.887941,0.5919965 c 0.108303,0.07235 0.247298,0.07899 0.362303,0.01764 0.114653,-0.06145 0.186267,-0.1809399 0.186267,-0.3111502 V 5.8241952 c 0,-0.8752064 -0.712259,-1.5875001 -1.5875,-1.5875001"
       style="fill:#ffd700;fill-opacity:1;fill-rule:nonzero;stroke:none;stroke-width:0.0352778" />
    <path
       id="path467"
       d="m 9.7130282,7.7644731 c -0.3891139,0 -0.7055556,-0.3164064 -0.7055556,-0.7055556 0,-0.3891492 0.3164417,-0.7055556 0.7055556,-0.7055556 0.3891138,0 0.7055558,0.3164064 0.7055558,0.7055556 0,0.3891492 -0.316442,0.7055556 -0.7055558,0.7055556 z m 0,-2.1166668 c -0.7782278,0 -1.4111112,0.6329187 -1.4111112,1.4111112 0,0.7781925 0.6328834,1.4111112 1.4111112,1.4111112 0.7782278,0 1.4111108,-0.6329187 1.4111108,-1.4111112 0,-0.7781925 -0.632883,-1.4111112 -1.4111108,-1.4111112"
       style="fill:#ffd700;fill-opacity:1;fill-rule:nonzero;stroke:none;stroke-width:0.0352778" />
    <path
       id="path468"
       d="M 7.5963614,9.8811403 H 10.065806 V 9.1755843 H 7.5963614 v 0.705556"
       style="fill:#1f2937;fill-opacity:1;fill-rule:nonzero;stroke:none;stroke-width:0.0352778" />
    <path
       id="path469"
       d="m 10.771362,9.8811403 h 1.058333 v -0.705556 h -1.058333 v 0.705556"
       style="fill:#1f2937;fill-opacity:1;fill-rule:nonzero;stroke:none;stroke-width:0.0352778" />
    <path
       id="path470"
       d="M 7.5963614,11.292251 H 10.065806 V 10.586695 H 7.5963614 v 0.705556"
       style="fill:#1f2937;fill-opacity:1;fill-rule:nonzero;stroke:none;stroke-width:0.0352778" />
    <path
       id="path471"
       d="m 10.771362,11.292251 h 1.058333 v -0.705556 h -1.058333 v 0.705556"
       style="fill:#1f2937;fill-opacity:1;fill-rule:nonzero;stroke:none;stroke-width:0.0352778" />
    <path
       id="path472"
       d="M 7.5963614,12.703362 H 10.065806 V 11.997806 H 7.5963614 v 0.705556"
       style="fill:#1f2937;fill-opacity:1;fill-rule:nonzero;stroke:none;stroke-width:0.0352778" />
    <path
       id="path473"
       d="m 10.771362,12.703362 h 1.058333 v -0.705556 h -1.058333 v 0.705556"
       style="fill:#1f2937;fill-opacity:1;fill-rule:nonzero;stroke:none;stroke-width:0.0352778" />
    <path
       id="path474"
       d="m 19.590807,7.7644731 h -0.705556 v 0.7055556 h 0.705556 V 7.7644731"
       style="fill:#1f2937;fill-opacity:1;fill-rule:nonzero;stroke:none;stroke-width:0.0352778" />
    <path
       id="path475"
       d="m 20.296362,8.4700287 h 0.705556 V 7.7644731 h -0.705556 v 0.7055556"
       style="fill:#1f2937;fill-opacity:1;fill-rule:nonzero;stroke:none;stroke-width:0.0352778" />
    <path
       id="path476"
       d="m 20.296362,6.3533619 v 0.7055556 h 0.705556 V 6.3533619 h -0.705556"
       style="fill:#1f2937;fill-opacity:1;fill-rule:nonzero;stroke:none;stroke-width:0.0352778" />
    <path
       id="path477"
       d="m 20.296362,9.8811403 h 0.705556 v -0.705556 h -0.705556 v 0.705556"
       style="fill:#1f2937;fill-opacity:1;fill-rule:nonzero;stroke:none;stroke-width:0.0352778" />
    <path
       id="path478"
       d="M 1.9519166,8.4700287 H 2.6574722 V 7.7644731 H 1.9519166 v 0.7055556"
       style="fill:#1f2937;fill-opacity:1;fill-rule:nonzero;stroke:none;stroke-width:0.0352778" />
    <path
       id="path479"
       d="M 0.54080501,8.4700287 H 1.246361 V 7.7644731 H 0.54080501 v 0.7055556"
       style="fill:#1f2937;fill-opacity:1;fill-rule:nonzero;stroke:none;stroke-width:0.0352778" />
    <path
       id="path480"
       d="M 0.54080501,9.8811403 H 1.246361 V 9.1755843 H 0.54080501 v 0.705556"
       style="fill:#1f2937;fill-opacity:1;fill-rule:nonzero;stroke:none;stroke-width:0.0352778" />
    <path
       id="path481"
       d="M 0.54080501,7.0589175 H 1.246361 V 6.3533619 H 0.54080501 v 0.7055556"
       style="fill:#1f2937;fill-opacity:1;fill-rule:nonzero;stroke:none;stroke-width:0.0352778" />
  </g>
</svg>
