<?xml version="1.0" encoding="UTF-8" standalone="no"?>
<!-- Created with Inkscape (http://www.inkscape.org/) -->

<svg
   width="22.57778mm"
   height="22.577776mm"
   viewBox="0 0 22.57778 22.577776"
   version="1.1"
   id="svg1"
   inkscape:export-filename="bitmap.png"
   inkscape:export-xdpi="96"
   inkscape:export-ydpi="96"
   xmlns:inkscape="http://www.inkscape.org/namespaces/inkscape"
   xmlns:sodipodi="http://sodipodi.sourceforge.net/DTD/sodipodi-0.dtd"
   xmlns="http://www.w3.org/2000/svg"
   xmlns:svg="http://www.w3.org/2000/svg">
  <sodipodi:namedview
     id="namedview1"
     pagecolor="#505050"
     bordercolor="#eeeeee"
     borderopacity="1"
     inkscape:showpageshadow="0"
     inkscape:pageopacity="0"
     inkscape:pagecheckerboard="0"
     inkscape:deskcolor="#505050"
     inkscape:document-units="mm" />
  <defs
     id="defs1" />
  <g
     inkscape:groupmode="layer"
     id="layer2"
     inkscape:label="Capa 2"
     style="display:none;fill:#ffffff">
    <rect
       style="display:inline;fill:#ffffff;stroke-width:0.264583"
       id="rect1"
       width="25.858837"
       height="26.597664"
       x="-1.8470598"
       y="-1.6623539" />
  </g>
  <g
     inkscape:label="Capa 1"
     inkscape:groupmode="layer"
     id="layer1"
     transform="translate(-71.031393,-71.929737)"
     style="display:inline">
    <path
       id="path726"
       d="m 90.434173,88.364243 v -2.147006 c 0,-0.68086 -0.553863,-1.234723 -1.234723,-1.234723 -0.680861,0 -1.234723,0.553863 -1.234723,1.234723 v 2.99861 H 81.26195 V 77.221404 h 9.877777 v 11.848393 z m -8.11389,2.968271 c -0.583493,0 -1.058333,-0.474837 -1.058333,-1.058334 v -0.352777 h 6.702777 v 1.411111 z m 0,-16.227777 h 7.76111 c 0.583496,0 1.058334,0.47484 1.058334,1.058333 v 0.352777 H 81.26195 V 76.16307 c 0,-0.583493 0.47484,-1.058333 1.058333,-1.058333 z M 93.527681,87.57896 91.845283,85.560364 V 76.16307 c 0,-0.972608 -0.791281,-1.763889 -1.76389,-1.763889 h -7.76111 c -0.972608,0 -1.76389,0.791281 -1.76389,1.763889 v 14.11111 c 0,0.972609 0.791282,1.76389 1.76389,1.76389 h 5.644444 v 0.352777 c 0,0.09384 0.03704,0.183444 0.103364,0.249415 l 1.307748,1.307745 v 0.559507 h 0.705554 v -0.705557 c 0,-0.09384 -0.03704,-0.183443 -0.103362,-0.249412 l -1.307748,-1.307748 v -6.02756 c 0,-0.291748 0.237419,-0.529167 0.529167,-0.529167 0.291748,0 0.529166,0.237419 0.529166,0.529167 v 2.293056 c 0,0.09349 0.03704,0.183444 0.103365,0.249412 l 1.41111,1.411113 c 0.101248,0.101246 0.252942,0.131937 0.384527,0.07655 0.13194,-0.05433 0.217665,-0.183443 0.217665,-0.325967 v -3.25896 l 1.058333,1.27 v 6.575071 h 0.705557 v -6.702777 c 0,-0.08255 -0.02893,-0.162277 -0.08149,-0.225777"
       style="fill:#1f2937;fill-opacity:1;fill-rule:nonzero;stroke:none;stroke-width:0.0352777" />
    <path
       id="path727"
       d="m 72.235777,75.457514 2.323396,-2.323394 v 2.323394 z m 13.259506,18.344443 h -12.7 c -0.583493,0 -1.058333,-0.474837 -1.058333,-1.058333 V 76.16307 h 3.175 c 0.195085,0 0.352777,-0.158043 0.352777,-0.352777 v -3.175 h 10.230556 c 0.583494,0 1.058333,0.474838 1.058333,1.058334 h 0.705557 c 0,-0.972609 -0.791282,-1.76389 -1.76389,-1.76389 H 74.91195 c -0.09772,0 -0.185915,0.03951 -0.249767,0.103717 l -3.527073,3.527073 c -0.0642,0.06385 -0.103717,0.152045 -0.103717,0.249766 v 16.933331 c 0,0.972608 0.791282,1.76389 1.76389,1.76389 h 12.7 c 0.972608,0 1.76389,-0.791282 1.76389,-1.76389 h -0.705557 c 0,0.583496 -0.474839,1.058333 -1.058333,1.058333"
       style="fill:#1f2937;fill-opacity:1;fill-rule:nonzero;stroke:none;stroke-width:0.0352777" />
    <path
       id="path728"
       d="m 79.85084,84.629737 h -7.055557 v 0.705556 h 7.055557 v -0.705556"
       style="fill:#1f2937;fill-opacity:1;fill-rule:nonzero;stroke:none;stroke-width:0.0352777" />
    <path
       id="path729"
       d="m 79.85084,86.040847 h -7.055557 v 0.705556 h 7.055557 v -0.705556"
       style="fill:#1f2937;fill-opacity:1;fill-rule:nonzero;stroke:none;stroke-width:0.0352777" />
    <path
       id="path730"
       d="m 79.85084,87.45196 h -7.055557 v 0.705554 H 79.85084 V 87.45196"
       style="fill:#1f2937;fill-opacity:1;fill-rule:nonzero;stroke:none;stroke-width:0.0352777" />
    <path
       id="path731"
       d="m 79.85084,88.86307 h -7.055557 v 0.705557 H 79.85084 V 88.86307"
       style="fill:#1f2937;fill-opacity:1;fill-rule:nonzero;stroke:none;stroke-width:0.0352777" />
    <path
       id="path732"
       d="m 79.85084,90.27418 h -7.055557 v 0.705557 H 79.85084 V 90.27418"
       style="fill:#1f2937;fill-opacity:1;fill-rule:nonzero;stroke:none;stroke-width:0.0352777" />
    <path
       id="path733"
       d="m 72.795283,92.390847 h 7.055557 v -0.705556 h -7.055557 v 0.705556"
       style="fill:#1f2937;fill-opacity:1;fill-rule:nonzero;stroke:none;stroke-width:0.0352777" />
    <path
       id="path734"
       d="m 83.731393,79.690847 h -0.705554 v -0.705554 h 0.705554 z m 0.35278,-1.41111 H 82.67306 c -0.195085,0 -0.352777,0.158043 -0.352777,0.352777 v 1.411113 c 0,0.194733 0.157692,0.352777 0.352777,0.352777 h 1.411113 c 0.195085,0 0.352777,-0.158044 0.352777,-0.352777 v -1.411113 c 0,-0.194734 -0.157692,-0.352777 -0.352777,-0.352777"
       style="fill:#ffd700;fill-opacity:1;fill-rule:nonzero;stroke:none;stroke-width:0.0352777" />
    <path
       id="path735"
       d="m 73.50084,77.57418 h 0.705553 v 0.705557 H 73.50084 Z m 1.058333,1.411113 c 0.195085,0 0.352777,-0.158046 0.352777,-0.352779 v -1.41111 c 0,-0.194734 -0.157692,-0.352777 -0.352777,-0.352777 H 73.14806 c -0.195085,0 -0.352777,0.158043 -0.352777,0.352777 v 1.41111 c 0,0.194733 0.157692,0.352779 0.352777,0.352779 h 1.411113"
       style="fill:#ffd700;fill-opacity:1;fill-rule:nonzero;stroke:none;stroke-width:0.0352777" />
    <path
       id="path736"
       d="m 73.50084,82.51307 h 0.705553 v 0.705557 H 73.50084 Z m -0.705557,1.058334 c 0,0.194733 0.157692,0.352776 0.352777,0.352776 h 1.411113 c 0.195085,0 0.352777,-0.158043 0.352777,-0.352776 v -1.411111 c 0,-0.194733 -0.157692,-0.352779 -0.352777,-0.352779 H 73.14806 c -0.195085,0 -0.352777,0.158046 -0.352777,0.352779 v 1.411111"
       style="fill:#ffd700;fill-opacity:1;fill-rule:nonzero;stroke:none;stroke-width:0.0352777" />
    <path
       id="path737"
       d="m 78.08695,77.57418 h 0.705556 v 0.705557 H 78.08695 Z m 1.058333,1.411113 c 0.195085,0 0.352777,-0.158046 0.352777,-0.352779 v -1.41111 c 0,-0.194734 -0.157692,-0.352777 -0.352777,-0.352777 h -1.41111 c -0.195088,0 -0.35278,0.158043 -0.35278,0.352777 v 1.41111 c 0,0.194733 0.157692,0.352779 0.35278,0.352779 h 1.41111"
       style="fill:#ffd700;fill-opacity:1;fill-rule:nonzero;stroke:none;stroke-width:0.0352777" />
    <path
       id="path738"
       d="m 89.375839,79.690847 h -0.705556 v -0.705554 h 0.705556 z m 0.352777,-1.41111 h -1.41111 c -0.195088,0 -0.352779,0.158043 -0.352779,0.352777 v 1.411113 c 0,0.194733 0.157691,0.352777 0.352779,0.352777 h 1.41111 c 0.195086,0 0.352777,-0.158044 0.352777,-0.352777 v -1.411113 c 0,-0.194734 -0.157691,-0.352777 -0.352777,-0.352777"
       style="fill:#ffd700;fill-opacity:1;fill-rule:nonzero;stroke:none;stroke-width:0.0352777" />
    <path
       id="path739"
       d="m 83.731393,85.335293 h -0.705554 v -0.705556 h 0.705554 z m 0.35278,-1.411113 H 82.67306 c -0.195085,0 -0.352777,0.158047 -0.352777,0.35278 v 1.41111 c 0,0.194733 0.157692,0.352777 0.352777,0.352777 h 1.411113 c 0.195085,0 0.352777,-0.158044 0.352777,-0.352777 v -1.41111 c 0,-0.194733 -0.157692,-0.35278 -0.352777,-0.35278"
       style="fill:#ffd700;fill-opacity:1;fill-rule:nonzero;stroke:none;stroke-width:0.0352777" />
    <path
       id="path740"
       d="M 82.320283,81.807514 H 84.43695 V 81.10196 h -2.116667 v 0.705554"
       style="fill:#ffd700;fill-opacity:1;fill-rule:nonzero;stroke:none;stroke-width:0.0352777" />
    <path
       id="path741"
       d="m 85.142506,78.279737 v 0.705556 h 0.705554 v -0.705556 h -0.705554"
       style="fill:#ffd700;fill-opacity:1;fill-rule:nonzero;stroke:none;stroke-width:0.0352777" />
    <path
       id="path742"
       d="m 86.906393,81.807514 h 1.411113 V 81.10196 h -1.058333 v -2.822223 h -0.705557 v 0.705556 H 85.84806 v 0.705554 h 0.705556 v 1.76389 c 0,0.194733 0.157692,0.352777 0.352777,0.352777"
       style="fill:#ffd700;fill-opacity:1;fill-rule:nonzero;stroke:none;stroke-width:0.0352777" />
    <path
       id="path743"
       d="m 85.142506,82.160293 h 0.705554 v -2.469446 h -0.705554 v 2.469446"
       style="fill:#ffd700;fill-opacity:1;fill-rule:nonzero;stroke:none;stroke-width:0.0352777" />
    <path
       id="path744"
       d="m 83.025839,82.51307 h -0.705556 v 0.705557 h 0.705556 V 82.51307"
       style="fill:#ffd700;fill-opacity:1;fill-rule:nonzero;stroke:none;stroke-width:0.0352777" />
    <path
       id="path745"
       d="M 83.731393,83.218627 H 84.43695 V 82.51307 h -0.705557 v 0.705557"
       style="fill:#ffd700;fill-opacity:1;fill-rule:nonzero;stroke:none;stroke-width:0.0352777" />
    <path
       id="path746"
       d="M 85.142506,86.040847 H 85.84806 V 84.27696 h -0.705554 v 1.763887"
       style="fill:#ffd700;fill-opacity:1;fill-rule:nonzero;stroke:none;stroke-width:0.0352777" />
    <path
       id="path747"
       d="m 85.142506,82.865847 v 0.705557 h 0.705554 v -0.705557 h -0.705554"
       style="fill:#ffd700;fill-opacity:1;fill-rule:nonzero;stroke:none;stroke-width:0.0352777" />
    <path
       id="path748"
       d="m 85.84806,84.27696 h 0.705556 V 83.571404 H 85.84806 v 0.705556"
       style="fill:#ffd700;fill-opacity:1;fill-rule:nonzero;stroke:none;stroke-width:0.0352777" />
    <path
       id="path749"
       d="M 86.553616,82.865847 V 82.160293 H 85.84806 v 0.705554 h 0.705556"
       style="fill:#ffd700;fill-opacity:1;fill-rule:nonzero;stroke:none;stroke-width:0.0352777" />
    <path
       id="path750"
       d="m 86.553616,85.68807 h 0.705557 v -0.705556 h -0.705557 v 0.705556"
       style="fill:#ffd700;fill-opacity:1;fill-rule:nonzero;stroke:none;stroke-width:0.0352777" />
    <path
       id="path751"
       d="m 89.02306,81.10196 v 0.705554 h 0.705556 V 81.10196 H 89.02306"
       style="fill:#ffd700;fill-opacity:1;fill-rule:nonzero;stroke:none;stroke-width:0.0352777" />
    <path
       id="path752"
       d="m 87.964727,82.865847 v 1.76389 h 0.705556 v -1.41111 h 1.41111 V 82.51307 h -1.763887 c -0.195088,0 -0.352779,0.158044 -0.352779,0.352777"
       style="fill:#ffd700;fill-opacity:1;fill-rule:nonzero;stroke:none;stroke-width:0.0352777" />
    <path
       id="path753"
       d="m 89.375839,84.629737 h 0.705554 V 83.92418 h -0.705554 v 0.705557"
       style="fill:#ffd700;fill-opacity:1;fill-rule:nonzero;stroke:none;stroke-width:0.0352777" />
    <path
       id="path754"
       d="m 87.259173,83.571404 v -0.705557 h -0.705557 v 0.705557 h 0.705557"
       style="fill:#ffd700;fill-opacity:1;fill-rule:nonzero;stroke:none;stroke-width:0.0352777" />
    <path
       id="path755"
       d="m 72.795283,81.10196 h 2.822223 V 80.396404 H 74.206393 V 79.690847 H 73.50084 v 0.705557 h -0.705557 v 0.705556"
       style="fill:#ffd700;fill-opacity:1;fill-rule:nonzero;stroke:none;stroke-width:0.0352777" />
    <path
       id="path756"
       d="m 75.264727,76.868627 v 0.705553 h 0.705556 v -0.705553 h -0.705556"
       style="fill:#ffd700;fill-opacity:1;fill-rule:nonzero;stroke:none;stroke-width:0.0352777" />
    <path
       id="path757"
       d="m 75.264727,78.985293 h 0.705556 v -0.705556 h -0.705556 v 0.705556"
       style="fill:#ffd700;fill-opacity:1;fill-rule:nonzero;stroke:none;stroke-width:0.0352777" />
    <path
       id="path758"
       d="M 76.67584,78.279737 V 77.57418 h -0.705557 v 0.705557 h 0.705557"
       style="fill:#ffd700;fill-opacity:1;fill-rule:nonzero;stroke:none;stroke-width:0.0352777" />
    <path
       id="path759"
       d="m 75.617506,81.10196 v 0.705554 H 76.32306 V 81.10196 h -0.705554"
       style="fill:#ffd700;fill-opacity:1;fill-rule:nonzero;stroke:none;stroke-width:0.0352777" />
    <path
       id="path760"
       d="M 77.028616,78.985293 H 76.32306 v 0.705554 h 0.705556 v -0.705554"
       style="fill:#ffd700;fill-opacity:1;fill-rule:nonzero;stroke:none;stroke-width:0.0352777" />
    <path
       id="path761"
       d="m 76.32306,79.690847 h -0.705554 v 0.705557 h 0.705554 v -0.705557"
       style="fill:#ffd700;fill-opacity:1;fill-rule:nonzero;stroke:none;stroke-width:0.0352777" />
    <path
       id="path762"
       d="m 77.734173,80.396404 v -0.705557 h -0.705557 v 0.705557 h 0.705557"
       style="fill:#ffd700;fill-opacity:1;fill-rule:nonzero;stroke:none;stroke-width:0.0352777" />
    <path
       id="path763"
       d="m 79.145283,81.10196 c 0.195085,0 0.352777,-0.158046 0.352777,-0.35278 v -1.058333 h -0.705554 v 0.705557 h -1.058333 v 0.705556 h 1.41111"
       style="fill:#ffd700;fill-opacity:1;fill-rule:nonzero;stroke:none;stroke-width:0.0352777" />
    <path
       id="path764"
       d="M 77.028616,80.396404 H 76.32306 v 0.705556 h 0.705556 v -0.705556"
       style="fill:#ffd700;fill-opacity:1;fill-rule:nonzero;stroke:none;stroke-width:0.0352777" />
    <path
       id="path765"
       d="m 79.145283,82.51307 h -0.705556 v 0.705557 h 0.705556 V 82.51307"
       style="fill:#ffd700;fill-opacity:1;fill-rule:nonzero;stroke:none;stroke-width:0.0352777" />
    <path
       id="path766"
       d="m 77.028616,81.807514 h 0.705557 V 81.10196 h -0.705557 v 0.705554"
       style="fill:#ffd700;fill-opacity:1;fill-rule:nonzero;stroke:none;stroke-width:0.0352777" />
    <path
       id="path767"
       d="m 76.32306,82.51307 h -0.705554 v 0.705557 h 2.116667 V 82.51307 H 77.028616 V 81.807514 H 76.32306 v 0.705556"
       style="fill:#ffd700;fill-opacity:1;fill-rule:nonzero;stroke:none;stroke-width:0.0352777" />
    <path
       id="path768"
       d="m 78.439727,83.92418 v -0.705553 h -0.705554 v 0.705553 h 0.705554"
       style="fill:#ffd700;fill-opacity:1;fill-rule:nonzero;stroke:none;stroke-width:0.0352777" />
  </g>
</svg>
