<svg xmlns="http://www.w3.org/2000/svg" xmlns:xlink="http://www.w3.org/1999/xlink" zoomAndPan="magnify" preserveAspectRatio="xMidYMid meet" version="1.0" viewBox="299.39 392.32 327.99 97.08"><defs><g/></defs><g fill="#000000" fill-opacity="1"><g transform="translate(299.385629, 488.102657)"><g><path d="M 69.6875 0 L 62.84375 -22.46875 L 28.421875 -22.46875 L 21.578125 0 L 0 0 L 33.328125 -94.8125 L 57.796875 -94.8125 L 91.25 0 Z M 58.0625 -39.265625 C 51.726562 -59.628906 48.160156 -71.144531 47.359375 -73.8125 C 46.566406 -76.488281 46 -78.597656 45.65625 -80.140625 C 44.238281 -74.628906 40.171875 -61.003906 33.453125 -39.265625 Z M 58.0625 -39.265625 "/></g></g></g><g fill="#000000" fill-opacity="1"><g transform="translate(390.635383, 488.102657)"><g><path d="M 31.90625 -49.984375 L 38.484375 -49.984375 C 44.648438 -49.984375 49.257812 -51.195312 52.3125 -53.625 C 55.363281 -56.0625 56.890625 -59.609375 56.890625 -64.265625 C 56.890625 -68.953125 55.609375 -72.414062 53.046875 -74.65625 C 50.492188 -76.894531 46.484375 -78.015625 41.015625 -78.015625 L 31.90625 -78.015625 Z M 77.109375 -64.96875 C 77.109375 -54.8125 73.929688 -47.039062 67.578125 -41.65625 C 61.234375 -36.269531 52.207031 -33.578125 40.5 -33.578125 L 31.90625 -33.578125 L 31.90625 0 L 11.890625 0 L 11.890625 -94.421875 L 42.046875 -94.421875 C 53.492188 -94.421875 62.195312 -91.953125 68.15625 -87.015625 C 74.125 -82.085938 77.109375 -74.738281 77.109375 -64.96875 Z M 77.109375 -64.96875 "/></g></g></g><g fill="#000000" fill-opacity="1"><g transform="translate(473.683629, 488.102657)"><g><path d="M 66.265625 0 L 11.890625 0 L 11.890625 -94.421875 L 66.265625 -94.421875 L 66.265625 -78.015625 L 31.90625 -78.015625 L 31.90625 -57.28125 L 63.875 -57.28125 L 63.875 -40.875 L 31.90625 -40.875 L 31.90625 -16.53125 L 66.265625 -16.53125 Z M 66.265625 0 "/></g></g></g><g fill="#000000" fill-opacity="1"><g transform="translate(547.75544, 488.102657)"><g><path d="M 51.984375 -79.109375 C 44.453125 -79.109375 38.617188 -76.273438 34.484375 -70.609375 C 30.347656 -64.953125 28.28125 -57.066406 28.28125 -46.953125 C 28.28125 -25.898438 36.179688 -15.375 51.984375 -15.375 C 58.617188 -15.375 66.648438 -17.03125 76.078125 -20.34375 L 76.078125 -3.546875 C 68.328125 -0.316406 59.671875 1.296875 50.109375 1.296875 C 36.378906 1.296875 25.875 -2.867188 18.59375 -11.203125 C 11.320312 -19.535156 7.6875 -31.492188 7.6875 -47.078125 C 7.6875 -56.898438 9.472656 -65.5 13.046875 -72.875 C 16.617188 -80.257812 21.75 -85.921875 28.4375 -89.859375 C 35.132812 -93.804688 42.984375 -95.78125 51.984375 -95.78125 C 61.160156 -95.78125 70.375 -93.5625 79.625 -89.125 L 73.171875 -72.84375 C 69.640625 -74.53125 66.085938 -75.992188 62.515625 -77.234375 C 58.941406 -78.484375 55.429688 -79.109375 51.984375 -79.109375 Z M 51.984375 -79.109375 "/></g></g></g></svg>