<svg xmlns="http://www.w3.org/2000/svg" version="1.0" width="569.000000pt" height="149.000000pt" viewBox="0 0 569.000000 149.000000" preserveAspectRatio="xMidYMid meet">

<g transform="translate(0.000000,149.000000) scale(0.100000,-0.100000)" fill="#000000" stroke="none">
<path d="M100 755 l0 -545 545 0 545 0 0 545 0 545 -545 0 -545 0 0 -545z m686 270 c0 -16 9 -46 20 -65 10 -19 21 -46 24 -60 3 -16 13 -26 27 -28 19 -3 22 2 25 35 l3 38 75 0 75 0 3 -97 3 -97 -53 -3 -53 -3 -3 -71 c-3 -68 -1 -73 28 -102 69 -69 2 -174 -87 -137 -60 25 -71 89 -23 137 30 29 30 30 30 144 0 114 0 115 -22 112 -22 -3 -23 -8 -25 -88 -1 -78 -3 -86 -28 -107 -24 -21 -35 -23 -155 -23 -120 0 -131 2 -155 23 -25 21 -27 30 -31 107 -3 76 -5 85 -24 88 -19 3 -20 -1 -20 -177 0 -178 0 -180 22 -183 13 -2 24 -11 26 -20 2 -13 -7 -18 -41 -23 -60 -9 -109 2 -105 23 2 10 13 18 26 20 22 3 22 5 22 183 0 171 -1 179 -19 179 -17 0 -20 -8 -23 -47 l-3 -48 -65 -3 c-75 -3 -101 8 -81 32 9 11 30 16 62 16 l49 0 0 45 0 44 87 3 87 3 7 30 c3 17 16 47 28 67 13 21 20 42 16 48 -4 6 -4 18 -1 26 5 12 29 14 138 12 l133 -3 1 -30z"/>
<path d="M552 982 c-28 -50 -28 -52 3 -52 14 0 28 -7 32 -15 7 -21 3 -24 -38 -29 l-34 -3 -3 -103 c-2 -67 1 -107 9 -116 14 -17 219 -20 250 -4 17 10 19 22 19 128 0 115 -1 119 -33 172 l-32 55 -76 3 -75 3 -22 -39z m126 -74 c3 -14 -3 -18 -27 -18 -31 0 -47 13 -36 31 11 16 59 6 63 -13z"/>
<path d="M930 851 l0 -61 38 1 c32 1 33 2 12 8 -35 10 -38 39 -5 47 21 5 26 12 23 33 -2 21 -9 27 -35 29 l-33 3 0 -60z"/>
<path d="M870 535 c-20 -24 3 -65 35 -65 32 0 55 41 35 65 -7 8 -23 15 -35 15 -12 0 -28 -7 -35 -15z"/>
<path d="M3690 1185 c0 -3 -1 -98 -1 -212 l0 -206 38 0 38 0 3 211 2 212 -40 0 c-22 0 -40 -2 -40 -5z"/>
<path d="M4380 1116 l0 -73 -38 18 c-49 24 -91 17 -128 -23 -25 -25 -29 -38 -32 -104 -5 -84 7 -124 46 -154 33 -26 92 -26 125 0 25 20 26 20 36 2 6 -11 20 -17 38 -16 l28 1 3 211 2 212 -40 0 -40 0 0 -74z m-20 -126 c15 -15 20 -33 20 -71 0 -69 -12 -89 -55 -89 -42 0 -65 29 -65 83 0 83 53 124 100 77z"/>
<path d="M1452 964 l3 -195 120 0 120 0 0 32 0 32 -77 -2 -78 -2 0 165 0 166 -45 0 -45 0 2 -196z"/>
<path d="M1834 1070 c-62 -14 -65 -17 -53 -44 11 -24 15 -25 74 -19 58 5 63 4 70 -16 10 -32 -2 -41 -56 -41 -55 0 -103 -20 -119 -49 -33 -62 15 -141 87 -141 21 0 52 9 70 20 30 18 33 18 42 3 5 -9 20 -17 35 -18 l26 -1 0 126 c0 143 -7 160 -77 179 -42 12 -54 12 -99 1z m96 -190 c0 -55 -91 -85 -98 -32 -6 38 18 56 81 61 13 1 17 -7 17 -29z"/>
<path d="M2383 1072 c-13 -4 -31 -15 -42 -24 -19 -16 -20 -16 -26 3 -5 15 -14 19 -37 17 l-29 -3 0 -149 0 -149 38 0 38 0 5 105 c5 112 16 138 55 138 40 0 50 -25 52 -138 l2 -105 38 0 38 0 5 107 c4 92 8 110 24 122 11 8 27 14 37 14 34 0 44 -29 46 -138 l2 -105 38 0 38 0 3 111 c3 140 -9 176 -65 191 -46 13 -107 -1 -123 -27 -9 -16 -11 -16 -20 0 -9 14 -72 40 -90 37 -3 -1 -15 -4 -27 -7z"/>
<path d="M2875 1070 c-66 -20 -95 -68 -95 -158 0 -99 56 -153 157 -151 80 2 98 10 101 48 3 31 2 33 -20 27 -13 -4 -42 -10 -65 -13 -35 -5 -45 -2 -67 20 -49 49 -38 57 75 57 l102 0 -7 47 c-7 52 -25 86 -59 107 -30 20 -86 27 -122 16z m85 -70 c37 -37 26 -50 -40 -50 -33 0 -60 3 -60 6 0 11 23 49 34 56 19 13 45 9 66 -12z"/>
<path d="M3482 1070 c-64 -15 -102 -73 -102 -155 0 -98 52 -155 143 -155 67 0 87 13 87 56 0 31 -2 34 -19 24 -23 -12 -81 -13 -98 -2 -20 13 -35 65 -28 102 12 63 48 83 108 61 21 -8 26 -6 36 15 6 14 11 29 11 34 0 18 -91 32 -138 20z"/>
<path d="M3922 1071 c-47 -12 -55 -23 -41 -54 9 -21 15 -24 30 -17 10 6 36 10 58 10 31 0 43 -5 52 -21 15 -29 4 -36 -68 -41 -82 -6 -113 -32 -113 -95 0 -61 32 -93 93 -93 30 0 53 7 71 21 27 21 27 21 41 2 8 -11 24 -19 37 -18 22 2 23 5 26 112 3 120 -5 154 -41 177 -29 20 -101 28 -145 17z m104 -175 c6 -16 -12 -56 -30 -68 -39 -26 -86 7 -68 47 10 21 23 27 80 34 7 0 15 -5 18 -13z"/>
<path d="M4632 1070 c-119 -29 -140 -216 -33 -287 66 -44 166 -21 206 47 27 47 26 140 -2 177 -42 58 -103 80 -171 63z m88 -80 c25 -25 27 -105 4 -138 -18 -26 -65 -30 -88 -6 -22 22 -22 121 1 146 21 24 58 23 83 -2z"/>
<path d="M5026 1065 c-16 -9 -35 -23 -42 -33 -11 -15 -13 -14 -19 11 -6 24 -12 28 -37 25 l-29 -3 0 -149 0 -149 38 0 38 0 3 96 c3 90 4 97 29 117 14 11 39 20 54 20 27 0 29 3 29 40 0 45 -14 51 -64 25z"/>
<path d="M5210 1068 c-46 -13 -54 -22 -41 -47 10 -18 18 -20 69 -15 46 5 60 3 71 -10 25 -30 6 -43 -65 -48 -58 -4 -70 -8 -90 -32 -27 -30 -32 -90 -11 -117 33 -43 108 -52 151 -18 27 21 27 21 41 2 8 -11 24 -19 37 -18 22 2 23 4 26 122 2 108 1 122 -18 146 -33 41 -100 55 -170 35z m108 -185 c7 -49 -75 -86 -98 -44 -14 28 -3 50 34 60 44 13 61 9 64 -16z"/>
<path d="M3107 1063 c-4 -3 -7 -17 -7 -30 0 -22 4 -23 65 -23 36 0 65 -3 65 -7 0 -5 -29 -47 -65 -96 -43 -57 -65 -97 -65 -115 l0 -27 117 2 118 2 3 30 3 30 -71 3 -70 3 65 89 c43 60 65 99 65 118 l0 28 -108 0 c-60 0 -112 -3 -115 -7z"/>
<path d="M2047 623 c-4 -3 -7 -77 -7 -164 0 -158 7 -190 34 -154 11 15 13 15 25 1 9 -10 29 -16 57 -16 53 0 78 21 94 79 13 49 -1 112 -31 142 -24 24 -95 26 -121 2 -17 -15 -18 -13 -18 50 0 49 -4 67 -13 67 -8 0 -17 -3 -20 -7z m139 -131 c34 -23 43 -82 20 -137 -14 -32 -19 -35 -54 -35 -53 0 -67 19 -67 90 0 34 6 64 14 73 14 17 67 23 87 9z"/>
<path d="M2600 564 l0 -65 -22 15 c-34 24 -94 20 -122 -7 -46 -46 -42 -168 7 -202 29 -20 96 -19 119 2 17 15 18 15 18 0 0 -10 7 -17 15 -17 13 0 15 26 15 170 0 144 -2 170 -15 170 -12 0 -15 -14 -15 -66z m-26 -79 c30 -30 32 -118 4 -152 -15 -19 -83 -16 -99 4 -8 9 -14 39 -14 73 0 34 6 64 14 73 17 21 75 22 95 2z"/>
<path d="M4911 601 c-24 -34 -26 -41 -8 -41 13 0 46 32 61 58 15 26 -33 11 -53 -17z"/>
<path d="M4717 614 c-15 -15 -7 -45 11 -42 9 2 17 12 17 22 0 20 -16 31 -28 20z"/>
<path d="M1450 450 c0 -136 2 -160 15 -160 12 0 15 15 15 75 l0 75 85 0 85 0 0 -75 c0 -68 2 -75 20 -75 19 0 20 7 20 160 0 153 -1 160 -20 160 -18 0 -20 -7 -20 -70 l0 -71 -82 3 -83 3 -3 68 c-2 51 -6 67 -17 67 -13 0 -15 -27 -15 -160z"/>
<path d="M3080 450 c0 -153 1 -160 20 -160 19 0 20 7 20 160 0 153 -1 160 -20 160 -19 0 -20 -7 -20 -160z"/>
<path d="M1770 430 c0 -87 3 -103 20 -120 25 -25 101 -28 124 -4 15 14 17 14 22 0 3 -9 12 -16 20 -16 11 0 14 24 14 120 0 113 -1 120 -20 120 -18 0 -20 -7 -20 -83 0 -103 -13 -127 -71 -127 -50 0 -59 20 -59 131 0 64 -3 79 -15 79 -12 0 -15 -18 -15 -100z"/>
<path d="M2734 506 c-24 -20 -28 -32 -32 -89 -4 -63 -3 -68 26 -97 26 -25 38 -30 80 -30 59 0 82 7 82 25 0 10 -13 12 -55 8 -62 -6 -89 8 -98 53 -4 24 -4 24 81 24 l85 0 -6 42 c-11 82 -101 118 -163 64z m108 -23 c10 -9 18 -24 18 -35 0 -15 -8 -18 -60 -18 -49 0 -60 3 -60 17 0 46 66 69 102 36z"/>
<path d="M3200 410 c0 -113 1 -120 20 -120 18 0 20 7 20 83 0 99 14 127 63 127 56 0 62 -10 65 -115 3 -73 7 -95 18 -95 11 0 14 21 14 100 0 87 -3 103 -20 120 -25 25 -95 27 -122 4 -16 -16 -18 -16 -24 0 -3 9 -12 16 -20 16 -11 0 -14 -24 -14 -120z"/>
<path d="M3480 410 c0 -100 3 -120 15 -120 12 0 15 14 15 69 0 71 12 120 33 133 19 12 72 9 85 -4 8 -8 12 -46 12 -105 0 -88 1 -93 21 -93 20 0 21 4 17 99 -2 80 -7 103 -22 120 -23 26 -91 29 -124 5 -20 -14 -22 -14 -22 0 0 9 -7 16 -15 16 -12 0 -15 -20 -15 -120z"/>
<path d="M3787 519 c-44 -26 -61 -122 -32 -179 20 -38 43 -50 98 -50 34 0 50 6 70 26 48 48 48 136 0 186 -22 23 -35 28 -72 28 -25 0 -54 -5 -64 -11z m113 -39 c14 -14 20 -33 20 -68 0 -65 -20 -92 -70 -92 -49 0 -70 27 -70 90 0 61 21 90 66 90 21 0 42 -8 54 -20z"/>
<path d="M3990 523 c0 -4 19 -59 42 -120 36 -96 46 -113 64 -113 18 0 28 18 67 121 42 112 44 120 25 117 -17 -2 -29 -24 -56 -102 l-36 -98 -35 98 c-25 67 -42 100 -54 102 -9 2 -17 0 -17 -5z"/>
<path d="M4273 523 c-7 -2 -13 -11 -13 -18 0 -10 13 -12 55 -8 57 6 60 4 67 -42 3 -17 -4 -21 -55 -26 -34 -4 -66 -14 -77 -24 -25 -23 -26 -76 -2 -98 24 -21 90 -22 120 -1 20 14 22 14 22 0 0 -9 7 -16 15 -16 12 0 15 18 15 100 0 122 -12 140 -87 139 -27 0 -54 -3 -60 -6z m107 -141 c0 -39 -30 -64 -72 -60 -26 2 -34 8 -36 26 -6 39 19 57 86 61 18 1 22 -4 22 -27z"/>
<path d="M4527 510 c-54 -43 -59 -145 -9 -195 22 -22 33 -25 76 -23 37 2 52 7 54 19 2 12 -4 15 -27 11 -66 -9 -101 21 -101 88 0 68 37 99 100 86 25 -5 30 -2 30 14 0 17 -7 20 -49 20 -33 0 -56 -6 -74 -20z"/>
<path d="M4710 410 c0 -100 3 -120 15 -120 13 0 15 20 15 120 0 100 -2 120 -15 120 -12 0 -15 -20 -15 -120z"/>
<path d="M4857 519 c-44 -26 -61 -122 -32 -179 20 -38 43 -50 98 -50 34 0 50 6 70 26 48 48 48 136 0 186 -22 23 -35 28 -72 28 -25 0 -54 -5 -64 -11z m113 -39 c14 -14 20 -33 20 -68 0 -65 -20 -92 -70 -92 -49 0 -70 27 -70 90 0 61 21 90 66 90 21 0 42 -8 54 -20z"/>
<path d="M5090 410 c0 -113 1 -120 20 -120 18 0 20 7 20 83 0 99 14 127 63 127 56 0 62 -10 65 -115 3 -73 7 -95 18 -95 11 0 14 21 14 100 0 87 -3 103 -20 120 -25 25 -95 27 -122 4 -16 -16 -18 -16 -24 0 -3 9 -12 16 -20 16 -11 0 -14 -24 -14 -120z"/>
</g>
</svg>