<?xml version="1.0" encoding="UTF-8" standalone="no"?>
<!-- Created with Inkscape (http://www.inkscape.org/) -->

<svg
   width="21.999998mm"
   height="22mm"
   viewBox="0 0 21.999998 22"
   version="1.1"
   id="svg1"
   inkscape:export-filename="mas-constructor-02.svg"
   inkscape:export-xdpi="96"
   inkscape:export-ydpi="96"
   inkscape:version="1.3 (0e150ed6c4, 2023-07-21)"
   sodipodi:docname="dibujo.svg"
   xmlns:inkscape="http://www.inkscape.org/namespaces/inkscape"
   xmlns:sodipodi="http://sodipodi.sourceforge.net/DTD/sodipodi-0.dtd"
   xmlns="http://www.w3.org/2000/svg"
   xmlns:svg="http://www.w3.org/2000/svg">
  <sodipodi:namedview
     id="namedview1"
     pagecolor="#505050"
     bordercolor="#eeeeee"
     borderopacity="1"
     inkscape:showpageshadow="0"
     inkscape:pageopacity="0"
     inkscape:pagecheckerboard="0"
     inkscape:deskcolor="#505050"
     inkscape:document-units="mm"
     inkscape:zoom="8.1031986"
     inkscape:cx="37.577753"
     inkscape:cy="39.799098"
     inkscape:window-width="2560"
     inkscape:window-height="1351"
     inkscape:window-x="2551"
     inkscape:window-y="-9"
     inkscape:window-maximized="1"
     inkscape:current-layer="layer9" />
  <defs
     id="defs1" />
  <g
     inkscape:groupmode="layer"
     id="layer2"
     inkscape:label="Capa 2"
     style="display:none;fill:#ffffff"
     transform="translate(-0.18068387,-0.41900588)">
    <rect
       style="display:inline;fill:#ffffff;stroke-width:0.264583"
       id="rect1"
       width="25.858837"
       height="26.597664"
       x="-1.8470598"
       y="-1.6623539" />
  </g>
  <g
     inkscape:groupmode="layer"
     id="layer7"
     inkscape:label="Capa 7"
     style="display:none"
     transform="translate(-0.18068387,-0.41900588)">
    <path
       id="path624"
       d="M 20.433447,21.600544 H 2.0890016 c -0.656343,0 -1.20935797,-0.450144 -1.36644997,-1.058333 h 0.66089397 1.763889 4.938889 13.0527794 0.660894 c -0.157092,0.608189 -0.710107,1.058333 -1.36645,1.058333 z M 7.3806686,19.131099 h 0.352777 v 0.705556 h -0.352777 z m -1.058334,0 h 0.352778 v 0.705556 h -0.352778 z m -1.058333,0 h 0.352778 v 0.705556 h -0.352778 z m -1.763889,0 h 1.058333 v 0.705556 h -1.058333 z m 0.705556,-1.411111 v 0.705556 h -0.705556 v -0.705556 z m -0.705556,-2.822222 h 1.058333 v 0.705555 h -1.058333 z m 1.058333,-2.116667 h -1.058333 v -0.705556 h 1.058333 z m 1.058334,0 h -0.352778 v -0.705556 h 0.352778 z m 1.058333,0 h -0.352778 v -0.705556 h 0.352778 z m 1.058333,0 h -0.352777 v -0.705556 h 0.352777 z m -0.352777,1.411111 h -0.352778 v -0.705555 h 0.352778 z m 0,2.822223 h -0.352778 v -0.705556 h 0.352778 z m 0,0.705555 h 0.352777 v 0.705556 h -0.352777 z m -1.058334,0 h 0.352778 v 0.705556 h -0.352778 z m 0.352778,-2.822222 v 0.705555 H 5.2640016 V 14.897766 Z M 4.5584456,14.19221 v -0.705555 h 0.352778 v 0.705555 z m 1.058334,0 v -0.705555 h 0.705555 v 0.705555 z m -0.705556,2.822223 v -0.705556 h 1.411111 v 0.705556 z m 2.822222,-1.411112 h -0.352777 v -0.705555 h 0.352777 z m -4.586111,-2.116666 h 0.705556 v 0.705555 h -0.705556 z m 0,2.822222 h 1.058334 v 0.705556 h -1.058334 z m 1.763889,2.116667 v -0.705556 h 0.705556 v 0.705556 z m -3.175,-10.9361123 c 0,-0.5834945 0.474733,-1.0583334 1.058333,-1.0583334 H 19.727892 c 0.5836,0 1.058333,0.4748389 1.058333,1.0583334 V 19.836655 H 8.4390016 V 18.778322 17.36721 c 0,-0.195086 -0.157939,-0.352777 -0.352778,-0.352777 v -0.705556 c 0.194839,0 0.352778,-0.157692 0.352778,-0.352778 v -1.411111 c 0,-0.195086 -0.157939,-0.352778 -0.352778,-0.352778 v -0.705555 c 0.194839,0 0.352778,-0.157692 0.352778,-0.352778 v -1.411111 c 0,-0.195087 -0.157939,-0.352778 -0.352778,-0.352778 h -4.938889 c -0.194839,0 -0.352778,0.157691 -0.352778,0.352778 v 1.058333 c -0.194839,0 -0.352778,0.157692 -0.352778,0.352778 v 1.411111 c 0,0.195086 0.157939,0.352778 0.352778,0.352778 v 0.705555 c -0.194839,0 -0.352778,0.157692 -0.352778,0.352778 v 1.411111 c 0,0.195087 0.157939,0.352778 0.352778,0.352778 v 1.058334 1.058333 h -1.058333 z m 0.06558,-3.8805558 h 1.986033 c -0.14605,0.409575 -0.533964,0.7055556 -0.993281,0.7055556 -0.459175,0 -0.846525,-0.2959806 -0.992752,-0.7055556 z m 0.562681,-2.82222235 h 1.488405 V 2.9033203 H 1.8351766 Z M 6.6751116,2.9033203 H 4.5584446 V 0.78665355 h 2.116667 z m 2.822222,0 H 7.3806676 V 0.78665355 h 2.116666 z m 2.8222234,0 H 10.202891 V 0.78665355 h 2.116667 z m 2.822222,0 H 13.025113 V 0.78665355 h 2.116666 z m 2.822223,0 H 15.847335 V 0.78665355 h 2.116667 z m 2.723268,0 H 18.669557 V 0.78665355 h 1.488405 z m -0.959379,1.4111112 c -0.459317,0 -0.847231,-0.2959806 -0.993281,-0.7055556 h 1.986033 c -0.146227,0.409575 -0.533577,0.7055556 -0.992752,0.7055556 z M 15.912388,3.6088759 h 1.986562 c -0.14605,0.409575 -0.533964,0.7055556 -0.993281,0.7055556 -0.459316,0 -0.847231,-0.2959806 -0.993281,-0.7055556 z m -2.822222,0 h 1.986562 c -0.14605,0.409575 -0.533964,0.7055556 -0.993281,0.7055556 -0.459317,0 -0.847231,-0.2959806 -0.993281,-0.7055556 z m -2.822223,0 h 1.986563 c -0.14605,0.409575 -0.533965,0.7055556 -0.993281,0.7055556 -0.459317,0 -0.847232,-0.2959806 -0.993282,-0.7055556 z m -2.8222224,0 h 1.986562 c -0.14605,0.409575 -0.533964,0.7055556 -0.993281,0.7055556 -0.459317,0 -0.847231,-0.2959806 -0.993281,-0.7055556 z m -2.822222,0 h 1.986562 c -0.14605,0.409575 -0.533965,0.7055556 -0.993281,0.7055556 -0.459317,0 -0.847231,-0.2959806 -0.993281,-0.7055556 z m -0.41783,0.6946195 c 0.321768,0.4321528 0.832061,0.7164917 1.411111,0.7164917 0.579049,0 1.089342,-0.2843389 1.411111,-0.7164917 0.321769,0.4321528 0.832062,0.7164917 1.411111,0.7164917 0.57905,0 1.089343,-0.2843389 1.411111,-0.7164917 0.3217694,0.4321528 0.8320624,0.7164917 1.4111114,0.7164917 0.57905,0 1.089343,-0.2843389 1.411112,-0.7164917 0.321768,0.4321528 0.832061,0.7164917 1.411111,0.7164917 0.579049,0 1.089342,-0.2843389 1.411111,-0.7164917 0.321769,0.4321528 0.832062,0.7164917 1.411111,0.7164917 0.57905,0 1.089343,-0.2843389 1.411111,-0.7164917 0.254671,0.3421945 0.625758,0.5926667 1.058334,0.6808611 V 5.7255427 H 3.1473346 V 4.9843565 c 0.432576,-0.088194 0.803663,-0.3386666 1.058334,-0.6808611 z M 22.197336,19.836655 H 21.491781 V 7.4894317 c 0,-0.8516056 -0.607025,-1.5642168 -1.411112,-1.7282584 V 4.9843565 c 0.804087,-0.1640416 1.411112,-0.8766528 1.411112,-1.7282584 0,-0.028928 -0.0036,-0.057503 -0.01048,-0.085372 L 20.775746,0.34850375 C 20.736476,0.19151765 20.59537,0.08109815 20.433445,0.08109815 H 18.31678 15.494558 12.672336 9.8501126 7.0278906 4.2056686 2.0890016 c -0.161925,0 -0.303036,0.1104195 -0.342301,0.2674056 L 1.0411456,3.1707261 c -0.0069,0.027869 -0.01048,0.056444 -0.01048,0.085372 0,0.8516056 0.607025,1.5642168 1.411111,1.7282584 V 5.7611733 C 1.6376926,5.9252149 1.0306676,6.6378261 1.0306676,7.4894317 V 19.836655 H 0.32511263 c -0.194839,0 -0.352778,0.157692 -0.352778,0.352778 0,1.167342 0.949466,2.116667 2.11666697,2.116667 H 20.433447 c 1.167201,0 2.116667,-0.949325 2.116667,-2.116667 0,-0.195086 -0.157939,-0.352778 -0.352778,-0.352778"
       style="fill:#1f2937;fill-opacity:1;fill-rule:nonzero;stroke:none;stroke-width:0.0352778" />
    <path
       id="path625"
       d="M 3.1473346,7.8422095 H 19.375114 V 9.9588763 H 3.8528906 V 10.664432 H 19.375114 v 7.761112 H 9.1445576 v 0.705555 H 19.727892 c 0.194839,0 0.352777,-0.157691 0.352777,-0.352777 V 7.4894317 c 0,-0.1950861 -0.157938,-0.3527778 -0.352777,-0.3527778 H 2.7945566 c -0.194839,0 -0.352778,0.1576917 -0.352778,0.3527778 v 3.1750003 h 0.705556 V 7.8422095"
       style="fill:#3dcab1;fill-opacity:1;fill-rule:nonzero;stroke:none;stroke-width:0.0352778" />
    <path
       id="path626"
       d="m 4.5584456,8.9005429 c 0,-0.1947333 -0.157938,-0.3527778 -0.352777,-0.3527778 -0.19484,0 -0.352778,0.1580445 -0.352778,0.3527778 0,0.1947333 0.157938,0.3527778 0.352778,0.3527778 0.194839,0 0.352777,-0.1580445 0.352777,-0.3527778"
       style="fill:#1f2937;fill-opacity:1;fill-rule:nonzero;stroke:none;stroke-width:0.0352778" />
    <path
       id="path627"
       d="m 5.9695576,8.9005429 c 0,-0.1947333 -0.157939,-0.3527778 -0.352778,-0.3527778 -0.194839,0 -0.352778,0.1580445 -0.352778,0.3527778 0,0.1947333 0.157939,0.3527778 0.352778,0.3527778 0.194839,0 0.352778,-0.1580445 0.352778,-0.3527778"
       style="fill:#1f2937;fill-opacity:1;fill-rule:nonzero;stroke:none;stroke-width:0.0352778" />
    <path
       id="path628"
       d="m 7.3806686,8.9005429 c 0,-0.1947333 -0.157939,-0.3527778 -0.352778,-0.3527778 -0.194839,0 -0.352778,0.1580445 -0.352778,0.3527778 0,0.1947333 0.157939,0.3527778 0.352778,0.3527778 0.194839,0 0.352778,-0.1580445 0.352778,-0.3527778"
       style="fill:#1f2937;fill-opacity:1;fill-rule:nonzero;stroke:none;stroke-width:0.0352778" />
    <path
       id="path632"
       d="m 10.048112,14.897766 h 7.915891 V 14.19221 h -7.915891 v 0.705556"
       style="fill:#1f2937;fill-opacity:1;fill-rule:nonzero;stroke:none;stroke-width:0.0590821" />
    <path
       id="path633"
       d="m 10.048112,16.308877 h 7.915891 v -0.705556 h -7.915891 v 0.705556"
       style="fill:#1f2937;fill-opacity:1;fill-rule:nonzero;stroke:none;stroke-width:0.0590821" />
    <path
       id="path634"
       d="m 10.048112,17.719988 h 7.915891 v -0.705555 h -7.915891 v 0.705555"
       style="fill:#1f2937;fill-opacity:1;fill-rule:nonzero;stroke:none;stroke-width:0.0590821" />
    <text
       xml:space="preserve"
       style="font-size:1.68907px;fill:#3dcab1;fill-opacity:1;stroke-width:0.316701"
       x="9.9951849"
       y="13.228169"
       id="text2"
       transform="scale(1.0080424,0.99202176)"><tspan
         sodipodi:role="line"
         id="tspan2"
         style="font-style:normal;font-variant:normal;font-weight:900;font-stretch:normal;font-size:1.68907px;font-family:Arial;-inkscape-font-specification:'Arial Heavy';fill:#3dcab1;fill-opacity:1;stroke-width:0.316701"
         x="9.9951849"
         y="13.228169">CONECT</tspan></text>
  </g>
  <g
     inkscape:groupmode="layer"
     id="layer8"
     inkscape:label="Capa 8"
     style="display:none"
     transform="translate(-0.18068387,-0.41900588)">
    <path
       id="path671"
       d="m 2.1364176,0.77991439 c 0.778228,0 1.411111,0.63288341 1.411111,1.41111121 0,0.7782278 -0.632883,1.4111112 -1.411111,1.4111112 -0.778228,0 -1.41111102,-0.6328834 -1.41111102,-1.4111112 0,-0.7782278 0.63288302,-1.41111121 1.41111102,-1.41111121 z m 0,3.52777801 c 1.167342,0 2.116667,-0.9493251 2.116667,-2.1166668 0,-1.1673417 -0.949325,-2.11666681 -2.116667,-2.11666681 -1.16734202,0 -2.11666702,0.94932511 -2.11666702,2.11666681 0,1.1673417 0.949325,2.1166668 2.11666702,2.1166668"
       style="fill:#3dcab1;fill-opacity:1;fill-rule:nonzero;stroke:none;stroke-width:0.0352778" />
    <path
       id="path672"
       d="m 11.308641,0.77991439 c 0.778227,0 1.411111,0.63288341 1.411111,1.41111121 0,0.7782278 -0.632884,1.4111112 -1.411111,1.4111112 -0.778228,0 -1.4111124,-0.6328834 -1.4111124,-1.4111112 0,-0.7782278 0.6328844,-1.41111121 1.4111124,-1.41111121 z m 0,3.52777801 c 1.167341,0 2.116666,-0.9493251 2.116666,-2.1166668 0,-1.1673417 -0.949325,-2.11666681 -2.116666,-2.11666681 -1.167342,0 -2.1166674,0.94932511 -2.1166674,2.11666681 0,1.1673417 0.9493254,2.1166668 2.1166674,2.1166668"
       style="fill:#1f2937;fill-opacity:1;fill-rule:nonzero;stroke:none;stroke-width:0.0352778" />
    <path
       id="path673"
       d="m 20.480863,0.77991439 c 0.778228,0 1.411112,0.63288341 1.411112,1.41111121 0,0.7782278 -0.632884,1.4111112 -1.411112,1.4111112 -0.778227,0 -1.411111,-0.6328834 -1.411111,-1.4111112 0,-0.7782278 0.632884,-1.41111121 1.411111,-1.41111121 z m 0,3.52777801 c 1.167342,0 2.116667,-0.9493251 2.116667,-2.1166668 0,-1.1673417 -0.949325,-2.11666681 -2.116667,-2.11666681 -1.167341,0 -2.116666,0.94932511 -2.116666,2.11666681 0,1.1673417 0.949325,2.1166668 2.116666,2.1166668"
       style="fill:#3dcab1;fill-opacity:1;fill-rule:nonzero;stroke:none;stroke-width:0.0352778" />
    <path
       id="path674"
       d="m 20.480863,11.363248 c -0.778227,0 -1.411111,-0.632883 -1.411111,-1.4111108 0,-0.7782278 0.632884,-1.4111112 1.411111,-1.4111112 0.778228,0 1.411112,0.6328834 1.411112,1.4111112 0,0.7782278 -0.632884,1.4111108 -1.411112,1.4111108 z m -8.113889,0.817739 v -1.524 c 0,-0.583142 -0.474486,-1.0576276 -1.059039,-1.0576276 -0.583142,0 -1.057628,0.4744856 -1.057628,1.0576276 v 1.524 C 9.4011706,11.779173 8.8391956,10.918043 8.8391956,9.9521372 c 0,-1.3613695 1.108075,-2.4694446 2.4694454,-2.4694446 1.361369,0 2.469444,1.1080751 2.469444,2.4694446 0,0.9659058 -0.561975,1.8270358 -1.411111,2.2288498 z m 0.353483,2.004484 c 0.194381,0 0.352073,0.157691 0.352073,0.352072 v 1.764594 h 0.705555 v -1.764594 c 0,-0.194381 0.157692,-0.352072 0.353484,-0.352072 0.19438,0 0.352072,0.157691 0.352072,0.352072 v 1.764594 h 0.352778 l 0.352777,3.53e-4 0.0014,-1.7653 c 0,-0.194028 0.158044,-0.351719 0.352072,-0.351719 0.19438,0 0.352072,0.157691 0.352072,0.352072 v 6.350706 c 0,0.583494 -0.474839,1.058333 -1.058333,1.058333 h -3.880556 v -1.058333 c 0,-0.09384 -0.03704,-0.183445 -0.103364,-0.249414 L 9.5447516,19.331088 v -2.177345 l 0.7055554,-0.706261 v 1.618544 h 0.705556 v -5.384094 -2.024945 c 0,-0.19438 0.157691,-0.352072 0.353483,-0.352072 0.194381,0 0.352072,0.157692 0.352072,0.352072 v 2.024945 1.855611 1.764594 h 0.705556 v -1.764594 c 0,-0.194381 0.157692,-0.352072 0.353483,-0.352072 z M 2.1364176,11.363248 c -0.778228,0 -1.41111102,-0.632883 -1.41111102,-1.4111108 0,-0.7782278 0.63288302,-1.4111112 1.41111102,-1.4111112 0.778228,0 1.411111,0.6328834 1.411111,1.4111112 0,0.7782278 -0.632883,1.4111108 -1.411111,1.4111108 z M 20.480863,7.8354704 c -1.046691,0 -1.915936,0.7644695 -2.084916,1.763889 h -3.93312 C 14.286791,8.0143287 12.940238,6.777137 11.308641,6.777137 c -1.6315984,0 -2.9781514,1.2371917 -3.1541874,2.8222224 h -3.933119 c -0.168981,-0.9994195 -1.038225,-1.763889 -2.084917,-1.763889 -1.16734202,0 -2.11666702,0.9493251 -2.11666702,2.1166668 0,1.1673418 0.949325,2.1166668 2.11666702,2.1166668 1.046692,0 1.915936,-0.76447 2.084917,-1.763889 h 3.934178 c 0.134408,1.204736 0.946502,2.233083 2.0947944,2.638072 v 2.506134 l -1.3077474,1.309158 c -0.06632,0.06597 -0.103364,0.155928 -0.103364,0.249414 v 2.469445 c 0,0.09384 0.03704,0.183444 0.103364,0.249414 l 1.3077474,1.307747 v 1.265061 c 0,0.195086 0.157692,0.352778 0.352778,0.352778 h 4.233334 c 0.972608,0 1.763889,-0.791281 1.763889,-1.763889 v -6.350706 c 0,-0.583142 -0.474487,-1.057628 -1.057628,-1.057628 -0.271992,0 -0.517878,0.106186 -0.705556,0.275519 -0.18803,-0.169333 -0.434269,-0.275519 -0.706967,-0.275519 -0.271638,0 -0.517525,0.105833 -0.70485,0.274814 -0.187677,-0.168981 -0.433916,-0.274814 -0.706261,-0.274814 -0.124178,0 -0.2413,0.0254 -0.352072,0.06491 v -0.601838 c 1.148292,-0.404989 1.960386,-1.433336 2.094795,-2.638072 h 3.934178 c 0.16898,0.999419 1.038225,1.763889 2.084916,1.763889 1.167342,0 2.116667,-0.949325 2.116667,-2.1166668 0,-1.1673417 -0.949325,-2.1166668 -2.116667,-2.1166668"
       style="fill:#1f2937;fill-opacity:1;fill-rule:nonzero;stroke:none;stroke-width:0.0352778" />
    <path
       id="path675"
       d="m 2.1364176,19.12436 c -0.778228,0 -1.41111102,-0.632884 -1.41111102,-1.411111 0,-0.778228 0.63288302,-1.411112 1.41111102,-1.411112 0.778228,0 1.411111,0.632884 1.411111,1.411112 0,0.778227 -0.632883,1.411111 -1.411111,1.411111 z m 0,-3.527778 c -1.16734202,0 -2.11666702,0.949325 -2.11666702,2.116667 0,1.167341 0.949325,2.116666 2.11666702,2.116666 1.167342,0 2.116667,-0.949325 2.116667,-2.116666 0,-1.167342 -0.949325,-2.116667 -2.116667,-2.116667"
       style="fill:#3dcab1;fill-opacity:1;fill-rule:nonzero;stroke:none;stroke-width:0.0352778" />
    <path
       id="path676"
       d="m 20.480863,19.12436 c -0.778227,0 -1.411111,-0.632884 -1.411111,-1.411111 0,-0.778228 0.632884,-1.411112 1.411111,-1.411112 0.778228,0 1.411112,0.632884 1.411112,1.411112 0,0.778227 -0.632884,1.411111 -1.411112,1.411111 z m 0,-3.527778 c -1.167341,0 -2.116666,0.949325 -2.116666,2.116667 0,1.167341 0.949325,2.116666 2.116666,2.116666 1.167342,0 2.116667,-0.949325 2.116667,-2.116666 0,-1.167342 -0.949325,-2.116667 -2.116667,-2.116667"
       style="fill:#3dcab1;fill-opacity:1;fill-rule:nonzero;stroke:none;stroke-width:0.0352778" />
    <path
       id="path677"
       d="m 5.6641956,1.48547 h -0.705556 v 0.7055556 h 0.705556 V 1.48547"
       style="fill:#1f2937;fill-opacity:1;fill-rule:nonzero;stroke:none;stroke-width:0.0352778" />
    <path
       id="path678"
       d="m 7.0753066,1.48547 h -0.705556 v 0.7055556 h 0.705556 V 1.48547"
       style="fill:#1f2937;fill-opacity:1;fill-rule:nonzero;stroke:none;stroke-width:0.0352778" />
    <path
       id="path679"
       d="m 8.4864176,1.48547 h -0.705555 v 0.7055556 h 0.705555 V 1.48547"
       style="fill:#1f2937;fill-opacity:1;fill-rule:nonzero;stroke:none;stroke-width:0.0352778" />
    <path
       id="path680"
       d="m 14.836419,1.48547 h -0.705556 v 0.7055556 h 0.705556 V 1.48547"
       style="fill:#1f2937;fill-opacity:1;fill-rule:nonzero;stroke:none;stroke-width:0.0352778" />
    <path
       id="path681"
       d="M 16.24753,1.48547 H 15.541974 V 2.1910256 H 16.24753 V 1.48547"
       style="fill:#1f2937;fill-opacity:1;fill-rule:nonzero;stroke:none;stroke-width:0.0352778" />
    <path
       id="path682"
       d="m 17.658641,1.48547 h -0.705556 v 0.7055556 h 0.705556 V 1.48547"
       style="fill:#1f2937;fill-opacity:1;fill-rule:nonzero;stroke:none;stroke-width:0.0352778" />
    <path
       id="path683"
       d="m 4.9586396,18.066026 h 0.705556 v -0.705555 h -0.705556 v 0.705555"
       style="fill:#1f2937;fill-opacity:1;fill-rule:nonzero;stroke:none;stroke-width:0.0352778" />
    <path
       id="path684"
       d="m 6.3697506,18.066026 h 0.705556 v -0.705555 h -0.705556 v 0.705555"
       style="fill:#1f2937;fill-opacity:1;fill-rule:nonzero;stroke:none;stroke-width:0.0352778" />
    <path
       id="path685"
       d="m 7.7808626,18.066026 h 0.705555 v -0.705555 h -0.705555 v 0.705555"
       style="fill:#1f2937;fill-opacity:1;fill-rule:nonzero;stroke:none;stroke-width:0.0352778" />
    <path
       id="path686"
       d="m 16.953085,18.066026 h 0.705556 v -0.705555 h -0.705556 v 0.705555"
       style="fill:#1f2937;fill-opacity:1;fill-rule:nonzero;stroke:none;stroke-width:0.0352778" />
  </g>
  <g
     inkscape:groupmode="layer"
     id="layer9"
     inkscape:label="Capa 9"
     style="display:none"
     transform="translate(-0.18068387,-0.41900588)">
    <path
       id="path526"
       d="M 1.7712187,21.455825 H 20.837886 V 20.722492 H 1.7712187 Z M 21.204552,22.189159 H 1.4045519 c -0.2023997,0 -0.3666669,-0.163864 -0.3666669,-0.366667 v -1.466666 c 0,-0.202804 0.1642672,-0.366667 0.3666669,-0.366667 H 21.204552 c 0.202401,0 0.366667,0.163863 0.366667,0.366667 v 1.466666 c 0,0.202803 -0.164266,0.366667 -0.366667,0.366667"
       style="fill:#1f2937;fill-opacity:1;fill-rule:nonzero;stroke:none;stroke-width:0.0366666" />
    <path
       id="path527"
       d="m 1.037885,19.989159 h 20.533334 v -4.400001 h -6.233333 c -0.2024,0 -0.366667,-0.163863 -0.366667,-0.366666 v -1.1 H 1.037885 Z m 20.900001,0.733333 H 0.67121912 c -0.20240068,0 -0.36666687,-0.163864 -0.36666687,-0.366666 v -6.600001 c 0,-0.202803 0.16426619,-0.366666 0.36666687,-0.366666 H 15.337886 c 0.2024,0 0.366666,0.163863 0.366666,0.366666 v 1.100001 h 6.233334 c 0.202399,0 0.366667,0.163862 0.366667,0.366666 v 5.133334 c 0,0.202802 -0.164268,0.366666 -0.366667,0.366666"
       style="fill:#1f2937;fill-opacity:1;fill-rule:nonzero;stroke:none;stroke-width:0.0366666" />
    <path
       id="path528"
       d="m 11.304553,4.5891585 c -1.010901,0 -1.8333342,0.8224333 -1.8333342,1.8333333 0,1.0109 0.8224332,1.8333333 1.8333342,1.8333333 1.010899,0 1.833333,-0.8224333 1.833333,-1.8333333 0,-1.0109 -0.822434,-1.8333333 -1.833333,-1.8333333 z m 0,4.3999999 c -1.4153344,0 -2.5666679,-1.1517 -2.5666679,-2.5666666 0,-1.4149666 1.1513335,-2.5666667 2.5666679,-2.5666667 1.415333,0 2.566666,1.1517001 2.566666,2.5666667 0,1.4149666 -1.151333,2.5666666 -2.566666,2.5666666"
       style="fill:#3dcab1;fill-opacity:1;fill-rule:nonzero;stroke:none;stroke-width:0.0366666" />
    <path
       id="path529"
       d="M 1.037885,10.089159 H 6.1712191 V 6.4224918 H 1.037885 Z m 5.4999999,0.733333 H 0.67121912 c -0.20240068,0 -0.36666687,-0.163863 -0.36666687,-0.366667 V 6.0558251 c 0,-0.2028033 0.16426619,-0.3666666 0.36666687,-0.3666666 H 6.5378849 c 0.2024007,0 0.3666669,0.1638633 0.3666669,0.3666666 v 4.3999999 c 0,0.202804 -0.1642662,0.366667 -0.3666669,0.366667"
       style="fill:#1f2937;fill-opacity:1;fill-rule:nonzero;stroke:none;stroke-width:0.0366666" />
    <path
       id="path530"
       d="M 3.9712189,13.755825 H 3.2378852 v -3.3 h 0.7333337 v 3.3"
       style="fill:#1f2937;fill-opacity:1;fill-rule:nonzero;stroke:none;stroke-width:0.0366666" />
    <path
       id="path531"
       d="M 3.604552,7.8891584 H 1.7712187 V 7.1558251 H 3.604552 v 0.7333333"
       style="fill:#3dcab1;fill-opacity:1;fill-rule:nonzero;stroke:none;stroke-width:0.0366666" />
    <path
       id="path532"
       d="M 5.4378854,7.8891584 H 4.7045516 V 7.1558251 h 0.7333338 v 0.7333333"
       style="fill:#3dcab1;fill-opacity:1;fill-rule:nonzero;stroke:none;stroke-width:0.0366666" />
    <path
       id="path533"
       d="M 3.604552,9.3558251 H 1.7712187 V 8.6224918 H 3.604552 v 0.7333333"
       style="fill:#3dcab1;fill-opacity:1;fill-rule:nonzero;stroke:none;stroke-width:0.0366666" />
    <path
       id="path534"
       d="M 5.4378854,9.3558251 H 4.7045516 V 8.6224918 h 0.7333338 v 0.7333333"
       style="fill:#3dcab1;fill-opacity:1;fill-rule:nonzero;stroke:none;stroke-width:0.0366666" />
    <path
       id="path535"
       d="m 16.437886,6.0558251 h 5.133333 V 0.92249181 h -5.133333 z m 5.5,0.7333333 h -5.866667 c -0.2024,0 -0.366667,-0.1638633 -0.366667,-0.3666666 V 0.55582519 c 0,-0.20280333 0.164267,-0.36666666 0.366667,-0.36666666 h 5.866667 c 0.202399,0 0.366667,0.16386333 0.366667,0.36666666 V 6.4224918 c 0,0.2028033 -0.164268,0.3666666 -0.366667,0.3666666"
       style="fill:#1f2937;fill-opacity:1;fill-rule:nonzero;stroke:none;stroke-width:0.0366666" />
    <path
       id="path536"
       d="m 17.11512,14.855826 h 3.778866 l 0.610866,-3.666667 h -5.000599 z m 4.089432,0.733332 h -4.399999 c -0.179301,0 -0.332201,-0.129763 -0.361534,-0.306496 l -0.733333,-4.4 c -0.01797,-0.106444 0.0121,-0.214867 0.08177,-0.297074 0.06967,-0.0825 0.171967,-0.129763 0.279766,-0.129763 h 5.866667 c 0.1078,0 0.2101,0.04726 0.279766,0.129763 0.06967,0.0822 0.09974,0.19063 0.08177,0.297074 l -0.733333,4.4 c -0.02933,0.176733 -0.182233,0.306496 -0.361534,0.306496"
       style="fill:#1f2937;fill-opacity:1;fill-rule:nonzero;stroke:none;stroke-width:0.0366666" />
    <path
       id="path537"
       d="m 20.073019,12.437989 -0.670267,-0.29766 1.466667,-3.3000006 0.670267,0.29766 -1.466667,3.3000006"
       style="fill:#3dcab1;fill-opacity:1;fill-rule:nonzero;stroke:none;stroke-width:0.0366666" />
    <path
       id="path538"
       d="m 17.936086,12.437989 -1.466667,-3.3000006 0.670267,-0.29766 1.466667,3.3000006 -0.670267,0.29766"
       style="fill:#3dcab1;fill-opacity:1;fill-rule:nonzero;stroke:none;stroke-width:0.0366666" />
    <path
       id="path539"
       d="M 20.837886,2.3891585 H 17.17122 V 1.6558252 h 3.666666 v 0.7333333"
       style="fill:#3dcab1;fill-opacity:1;fill-rule:nonzero;stroke:none;stroke-width:0.0366666" />
    <path
       id="path540"
       d="M 20.837886,3.8558251 H 17.17122 V 3.1224918 h 3.666666 v 0.7333333"
       style="fill:#3dcab1;fill-opacity:1;fill-rule:nonzero;stroke:none;stroke-width:0.0366666" />
    <path
       id="path541"
       d="M 20.837886,5.3224918 H 17.17122 V 4.5891585 h 3.666666 v 0.7333333"
       style="fill:#3dcab1;fill-opacity:1;fill-rule:nonzero;stroke:none;stroke-width:0.0366666" />
    <path
       id="path542"
       d="m 13.137886,13.389159 h 0.733333 v -3.3 c 0,-0.6064306 -0.493534,-1.1000006 -1.1,-1.1000006 H 9.8378856 c -0.6064671,0 -1.1000005,0.49357 -1.1000005,1.1000006 v 2.199999 c 0,0.202804 -0.1642662,0.366667 -0.3666669,0.366667 H 6.1712191 v 0.733334 h 3.2999997 v -2.933334 c 0,-0.202803 0.1642662,-0.366666 0.3666668,-0.366666 0.2024004,0 0.3666664,0.163863 0.3666664,0.366666 v 2.933334 h 2.2 v -2.933334 c 0,-0.202803 0.164268,-0.366666 0.366667,-0.366666 0.2024,0 0.366667,0.163863 0.366667,0.366666 z m 1.1,0.733333 H 5.8045522 c -0.2024007,0 -0.3666668,-0.163863 -0.3666668,-0.366667 v -1.466667 c 0,-0.202802 0.1642661,-0.366666 0.3666668,-0.366666 h 2.2000002 v -1.833333 c 0,-1.0109006 0.8224327,-1.8333339 1.8333332,-1.8333339 h 2.9333334 c 1.0109,0 1.833334,0.8224333 1.833334,1.8333339 v 3.666666 c 0,0.202804 -0.164267,0.366667 -0.366667,0.366667"
       style="fill:#3dcab1;fill-opacity:1;fill-rule:nonzero;stroke:none;stroke-width:0.0366666" />
  </g>
  <g
     inkscape:groupmode="layer"
     id="layer10"
     inkscape:label="Capa 10"
     transform="translate(-0.44189759,-0.97408504)"
     style="display:none">
    <path
       id="path544"
       d="m 1.2483826,17.700148 h 8.7999724 v -7.699829 c 0,-1.010877 0.82243,-1.8332921 1.833328,-1.8332921 h 1.099996 V 1.5671738 H 3.9668401 L 1.2483826,4.2856166 Z m 9.1666384,0.733317 H 0.88171696 c -0.20240004,0 -0.36666572,-0.16386 -0.36666572,-0.366659 V 4.1337833 c 0,-0.097531 0.0384982,-0.1906258 0.10743311,-0.2592275 L 3.555808,0.94128764 C 3.624375,0.87239244 3.7178744,0.83385669 3.8150406,0.83385669 h 9.5333034 c 0.2024,0 0.366666,0.16385969 0.366666,0.36665851 v 7.3331702 c 0,0.2027989 -0.164266,0.3666585 -0.366666,0.3666585 h -1.466661 c -0.606466,0 -1.099997,0.4935591 -1.099997,1.0999751 v 8.066487 c 0,0.202799 -0.164266,0.366659 -0.366665,0.366659"
       style="fill:#1f2937;fill-opacity:1;fill-rule:nonzero;stroke:none;stroke-width:0.0366662" />
    <path
       id="path545"
       d="m 7.11503,7.4337099 c -0.8088633,0 -1.4666618,-0.6578221 -1.4666618,-1.466634 h 0.7333314 c 0,0.404461 0.3288982,0.733317 0.7333304,0.733317 0.3417323,0 0.6299321,-0.2354681 0.7105984,-0.5521511 L 5.8115342,4.8055017 C 5.7096035,4.7373407 5.6483682,4.6229058 5.6483682,4.5004418 c 0,-0.8088119 0.6577985,-1.466634 1.4666618,-1.466634 0.8088643,0 1.4666629,0.6578221 1.4666629,1.466634 H 7.8483614 c 0,-0.404461 -0.3288993,-0.733317 -0.7333314,-0.733317 -0.3417324,0 -0.6299311,0.2354681 -0.7105974,0.5521511 L 8.4185258,5.662016 c 0.1019307,0.068161 0.1631671,0.1825959 0.1631671,0.3050599 0,0.8088119 -0.6577986,1.466634 -1.4666629,1.466634"
       style="fill:#3dcab1;fill-opacity:1;fill-rule:nonzero;stroke:none;stroke-width:0.0366662" />
    <path
       id="path546"
       d="M 7.4816957,3.4004663 H 6.7483653 V 2.3004908 h 0.7333304 v 1.0999755"
       style="fill:#3dcab1;fill-opacity:1;fill-rule:nonzero;stroke:none;stroke-width:0.0366662" />
    <path
       id="path547"
       d="M 7.4816957,8.1670269 H 6.7483653 V 7.0670514 h 0.7333304 v 1.0999755"
       style="fill:#3dcab1;fill-opacity:1;fill-rule:nonzero;stroke:none;stroke-width:0.0366662" />
    <path
       id="path548"
       d="M 1.7668468,3.7671248 H 3.4483749 V 2.0856656 Z m 2.0481938,0.733317 H 0.88171696 c -0.14813262,0 -0.28196564,-0.089098 -0.33879926,-0.2263016 C 0.4860851,4.1370832 0.5176195,3.9793835 0.6224812,3.8745558 L 3.5558049,0.94128764 C 3.6606718,0.83601999 3.8179706,0.80419405 3.9554705,0.86164974 4.0922366,0.91822554 4.1817032,1.0524221 4.1817032,1.2005156 v 2.933268 c 0,0.2027989 -0.1642657,0.3666585 -0.3666657,0.3666585"
       style="fill:#1f2937;fill-opacity:1;fill-rule:nonzero;stroke:none;stroke-width:0.0366662" />
    <path
       id="path549"
       d="M 9.3150233,9.633661 H 2.3483788 V 8.9003439 H 9.3150233 V 9.633661"
       style="fill:#1f2937;fill-opacity:1;fill-rule:nonzero;stroke:none;stroke-width:0.0366662" />
    <path
       id="path550"
       d="M 9.3150233,11.466953 H 2.3483788 v -0.733316 h 6.9666445 v 0.733316"
       style="fill:#1f2937;fill-opacity:1;fill-rule:nonzero;stroke:none;stroke-width:0.0366662" />
    <path
       id="path551"
       d="M 9.3150233,13.300246 H 2.3483788 v -0.733317 h 6.9666445 v 0.733317"
       style="fill:#1f2937;fill-opacity:1;fill-rule:nonzero;stroke:none;stroke-width:0.0366662" />
    <path
       id="path552"
       d="M 9.3150233,15.133538 H 2.3483788 v -0.733316 h 6.9666445 v 0.733316"
       style="fill:#1f2937;fill-opacity:1;fill-rule:nonzero;stroke:none;stroke-width:0.0366662" />
    <path
       id="path553"
       d="m 12.615013,11.833612 h 7.33331 v -1.466634 h -7.33331 z m 7.699976,0.733317 h -8.066641 c -0.2024,0 -0.366665,-0.16386 -0.366665,-0.366658 v -2.199952 c 0,-0.2027983 0.164265,-0.366658 0.366665,-0.366658 h 8.066641 c 0.2024,0 0.366666,0.1638597 0.366666,0.366658 v 2.199952 c 0,0.202798 -0.164266,0.366658 -0.366666,0.366658"
       style="fill:#1f2937;fill-opacity:1;fill-rule:nonzero;stroke:none;stroke-width:0.0366662" />
    <path
       id="path543"
       d="m 11.881683,8.9003439 c -0.606466,0 -1.099997,0.4935591 -1.099997,1.0999751 v 10.999756 c 0,0.606416 0.493531,1.099975 1.099997,1.099975 h 8.799972 c 0.606464,0 1.099996,-0.493559 1.099996,-1.099975 V 10.000319 c 0,-0.606416 -0.493532,-1.0999751 -1.099996,-1.0999751 z m 8.799972,13.9330231 h -8.799972 c -1.010898,0 -1.833328,-0.822415 -1.833328,-1.833292 V 10.000319 c 0,-1.010877 0.82243,-1.8332921 1.833328,-1.8332921 h 8.799972 c 1.010896,0 1.833327,0.8224151 1.833327,1.8332921 v 10.999756 c 0,1.010877 -0.822431,1.833292 -1.833327,1.833292"
       style="fill:#3dcab1;fill-opacity:1;fill-rule:nonzero;stroke:none;stroke-width:0.0366662" />
    <path
       id="path554"
       d="m 12.981679,14.766881 h 0.733331 v -0.733318 h -0.733331 z m 1.099997,0.733316 h -1.466663 c -0.202399,0 -0.366665,-0.163859 -0.366665,-0.366659 v -1.466634 c 0,-0.202798 0.164266,-0.366658 0.366665,-0.366658 h 1.466663 c 0.202399,0 0.366665,0.16386 0.366665,0.366658 v 1.466634 c 0,0.2028 -0.164266,0.366659 -0.366665,0.366659"
       style="fill:#1f2937;fill-opacity:1;fill-rule:nonzero;stroke:none;stroke-width:0.0366662" />
    <path
       id="path555"
       d="m 15.915003,14.766881 h 0.733331 V 14.033563 H 15.915003 Z M 17.015,15.500197 h -1.466662 c -0.2024,0 -0.366666,-0.163859 -0.366666,-0.366659 v -1.466634 c 0,-0.202798 0.164266,-0.366658 0.366666,-0.366658 H 17.015 c 0.202399,0 0.366665,0.16386 0.366665,0.366658 v 1.466634 c 0,0.2028 -0.164266,0.366659 -0.366665,0.366659"
       style="fill:#1f2937;fill-opacity:1;fill-rule:nonzero;stroke:none;stroke-width:0.0366662" />
    <path
       id="path556"
       d="m 18.848327,14.766881 h 0.733332 v -0.733318 h -0.733332 z m 1.099996,0.733316 h -1.466662 c -0.202399,0 -0.366665,-0.163859 -0.366665,-0.366659 v -1.466634 c 0,-0.202798 0.164266,-0.366658 0.366665,-0.366658 h 1.466662 c 0.2024,0 0.366666,0.16386 0.366666,0.366658 v 1.466634 c 0,0.2028 -0.164266,0.366659 -0.366666,0.366659"
       style="fill:#1f2937;fill-opacity:1;fill-rule:nonzero;stroke:none;stroke-width:0.0366662" />
    <path
       id="path557"
       d="m 12.981679,17.700148 h 0.733331 v -0.733317 h -0.733331 z m 1.099997,0.733317 h -1.466663 c -0.202399,0 -0.366665,-0.16386 -0.366665,-0.366659 v -1.466633 c 0,-0.202799 0.164266,-0.366659 0.366665,-0.366659 h 1.466663 c 0.202399,0 0.366665,0.16386 0.366665,0.366659 v 1.466633 c 0,0.202799 -0.164266,0.366659 -0.366665,0.366659"
       style="fill:#1f2937;fill-opacity:1;fill-rule:nonzero;stroke:none;stroke-width:0.0366662" />
    <path
       id="path558"
       d="m 15.915003,17.700148 h 0.733331 V 16.966831 H 15.915003 Z M 17.015,18.433465 h -1.466662 c -0.2024,0 -0.366666,-0.16386 -0.366666,-0.366659 v -1.466633 c 0,-0.202799 0.164266,-0.366659 0.366666,-0.366659 H 17.015 c 0.202399,0 0.366665,0.16386 0.366665,0.366659 v 1.466633 c 0,0.202799 -0.164266,0.366659 -0.366665,0.366659"
       style="fill:#1f2937;fill-opacity:1;fill-rule:nonzero;stroke:none;stroke-width:0.0366662" />
    <path
       id="path559"
       d="m 18.848327,17.700148 h 0.733332 v -0.733317 h -0.733332 z m 1.099996,0.733317 h -1.466662 c -0.202399,0 -0.366665,-0.16386 -0.366665,-0.366659 v -1.466633 c 0,-0.202799 0.164266,-0.366659 0.366665,-0.366659 h 1.466662 c 0.2024,0 0.366666,0.16386 0.366666,0.366659 v 1.466633 c 0,0.202799 -0.164266,0.366659 -0.366666,0.366659"
       style="fill:#1f2937;fill-opacity:1;fill-rule:nonzero;stroke:none;stroke-width:0.0366662" />
    <path
       id="path560"
       d="m 12.981679,20.633416 h 0.733331 v -0.733318 h -0.733331 z m 1.099997,0.733317 h -1.466663 c -0.202399,0 -0.366665,-0.16386 -0.366665,-0.366658 v -1.466634 c 0,-0.2028 0.164266,-0.366659 0.366665,-0.366659 h 1.466663 c 0.202399,0 0.366665,0.163859 0.366665,0.366659 v 1.466634 c 0,0.202798 -0.164266,0.366658 -0.366665,0.366658"
       style="fill:#1f2937;fill-opacity:1;fill-rule:nonzero;stroke:none;stroke-width:0.0366662" />
    <path
       id="path561"
       d="m 15.915003,20.633416 h 0.733331 V 19.900098 H 15.915003 Z M 17.015,21.366733 h -1.466662 c -0.2024,0 -0.366666,-0.16386 -0.366666,-0.366658 v -1.466634 c 0,-0.2028 0.164266,-0.366659 0.366666,-0.366659 H 17.015 c 0.202399,0 0.366665,0.163859 0.366665,0.366659 v 1.466634 c 0,0.202798 -0.164266,0.366658 -0.366665,0.366658"
       style="fill:#1f2937;fill-opacity:1;fill-rule:nonzero;stroke:none;stroke-width:0.0366662" />
    <path
       id="path562"
       d="m 18.848327,20.633416 h 0.733332 v -0.733318 h -0.733332 z m 1.099996,0.733317 h -1.466662 c -0.202399,0 -0.366665,-0.16386 -0.366665,-0.366658 v -1.466634 c 0,-0.2028 0.164266,-0.366659 0.366665,-0.366659 h 1.466662 c 0.2024,0 0.366666,0.163859 0.366666,0.366659 v 1.466634 c 0,0.202798 -0.164266,0.366658 -0.366666,0.366658"
       style="fill:#1f2937;fill-opacity:1;fill-rule:nonzero;stroke:none;stroke-width:0.0366662" />
  </g>
  <g
     inkscape:groupmode="layer"
     id="layer11"
     inkscape:label="Capa 11"
     transform="translate(-0.18068387,-0.41900588)">
    <path
       id="path624-5"
       d="M 7.1473502,11.785673 H 11.547351 V 11.05234 H 7.1473502 Z m 4.7666658,0.733334 H 6.7806834 c -0.2023997,0 -0.3666669,-0.163901 -0.3666669,-0.366667 v -1.466667 c 0,-0.202766 0.1642672,-0.366666 0.3666669,-0.366666 h 5.1333326 c 0.202401,0 0.366667,0.1639 0.366667,0.366666 v 1.466667 c 0,0.202766 -0.164266,0.366667 -0.366667,0.366667"
       style="fill:#3dcab1;fill-opacity:1;fill-rule:nonzero;stroke:none;stroke-width:0.0366666" />
    <path
       id="path625-3"
       d="M 10.814017,9.219006 H 10.080683 V 5.5523393 H 8.6140167 V 9.219006 H 7.880684 V 5.1856726 c 0,-0.2027666 0.1642661,-0.3666666 0.3666658,-0.3666666 H 10.44735 c 0.202401,0 0.366667,0.1639 0.366667,0.3666666 V 9.219006"
       style="fill:#1f2937;fill-opacity:1;fill-rule:nonzero;stroke:none;stroke-width:0.0366666" />
    <path
       id="path626-4"
       d="m 10.814017,4.819006 h 0.366667 c 0.202033,0 0.366667,-0.1642667 0.366667,-0.3666667 0,-0.2024 -0.164634,-0.3666667 -0.366667,-0.3666667 h -0.366667 z m 0.366667,0.7333333 H 10.44735 c -0.2024,0 -0.366667,-0.1639 -0.366667,-0.3666667 V 3.719006 c 0,-0.2027667 0.164267,-0.3666667 0.366667,-0.3666667 h 0.733334 c 0.606466,0 1.099999,0.4935333 1.099999,1.1 0,0.6064667 -0.493533,1.1 -1.099999,1.1"
       style="fill:#1f2937;fill-opacity:1;fill-rule:nonzero;stroke:none;stroke-width:0.0366666" />
    <path
       id="path627-8"
       d="m 7.5140171,4.0856726 c -0.2020338,0 -0.3666669,0.1642667 -0.3666669,0.3666667 0,0.2024 0.1646331,0.3666667 0.3666669,0.3666667 H 7.880684 V 4.0856726 Z M 8.2473498,5.5523393 H 7.5140171 c -0.6064672,0 -1.1000006,-0.4935333 -1.1000006,-1.1 0,-0.6064667 0.4935334,-1.1 1.1000006,-1.1 h 0.7333327 c 0.2024007,0 0.3666669,0.1639 0.3666669,0.3666667 v 1.4666666 c 0,0.2027667 -0.1642662,0.3666667 -0.3666669,0.3666667"
       style="fill:#1f2937;fill-opacity:1;fill-rule:nonzero;stroke:none;stroke-width:0.0366666" />
    <path
       id="path628-2"
       d="m 8.1615498,12.519007 1.1858006,0.677966 1.1857996,-0.677966 z m 1.1858006,1.466666 c -0.062695,0 -0.1254,-0.01613 -0.1818669,-0.0484 l -2.566667,-1.466667 c -0.1444662,-0.08213 -0.2152328,-0.251532 -0.1723328,-0.4125 0.042531,-0.1606 0.1877331,-0.272433 0.3541997,-0.272433 h 5.1333326 c 0.166468,0 0.311668,0.111833 0.354201,0.272433 0.0429,0.160968 -0.02787,0.330367 -0.172334,0.4125 l -2.5666657,1.466667 c -0.056469,0.03227 -0.1191669,0.0484 -0.1818669,0.0484"
       style="fill:#1f2937;fill-opacity:1;fill-rule:nonzero;stroke:none;stroke-width:0.0366666" />
    <path
       id="path629"
       d="m 6.1646831,13.58454 1.349334,1.349333 1.2345668,-1.234567 -1.8685337,-1.067732 z m 3.7814342,0.114766 1.2345667,1.234567 1.349333,-1.349333 -0.715366,-0.952966 z m 1.2345667,2.119701 c -0.09387,0 -0.187733,-0.03593 -0.259234,-0.107434 l -1.5740996,-1.5741 -1.5740999,1.5741 c -0.1433665,0.143367 -0.3751003,0.143367 -0.5184668,0 L 5.4214504,13.87824 c -0.1290669,-0.129067 -0.1437335,-0.3333 -0.0341,-0.479234 L 6.4873503,11.93234 c 0.1107334,-0.1485 0.3142337,-0.189934 0.4751999,-0.09826 l 2.3848002,1.362899 2.3848006,-1.362899 c 0.160599,-0.0913 0.364466,-0.04987 0.4752,0.09826 l 1.099999,1.466666 c 0.109634,0.145934 0.09497,0.350167 -0.0341,0.479234 l -1.833333,1.833333 c -0.0715,0.0715 -0.165367,0.107434 -0.259233,0.107434"
       style="fill:#1f2937;fill-opacity:1;fill-rule:nonzero;stroke:none;stroke-width:0.0366666" />
    <path
       id="path630"
       d="m 8.2473498,18.967206 1.1000006,1.1 1.0999996,-1.1 v -1.595 L 9.7525163,15.982907 c -0.070399,-0.1408 -0.042533,-0.311301 0.06893,-0.423134 l 0.4741007,-0.4741 -0.9481996,-0.9482 -0.9482006,0.9482 0.4741003,0.4741 c 0.1114672,0.111833 0.1393338,0.282334 0.068931,0.423134 l -0.6948313,1.389299 z m 1.1000006,1.985134 c -0.093866,0 -0.1877331,-0.03593 -0.2592334,-0.107434 L 7.6214505,19.37824 C 7.5525195,19.30967 7.5140171,19.21654 7.5140171,19.119006 v -1.833333 c 0,-0.05683 0.0132,-0.113301 0.038498,-0.1639 L 8.1677839,15.89124 7.6214505,15.344906 c -0.1433665,-0.143366 -0.1433665,-0.375099 0,-0.518467 L 9.088117,13.359773 c 0.1433665,-0.143367 0.3751003,-0.143367 0.5184668,0 l 1.4666662,1.466666 c 0.143367,0.143368 0.143367,0.375101 0,0.518467 l -0.546333,0.546334 0.615266,1.230533 c 0.0253,0.0506 0.0385,0.107066 0.0385,0.1639 v 1.833333 c 0,0.09754 -0.0385,0.190667 -0.107434,0.259234 l -1.4666663,1.466666 c -0.071498,0.0715 -0.1653668,0.107434 -0.2592334,0.107434"
       style="fill:#3dcab1;fill-opacity:1;fill-rule:nonzero;stroke:none;stroke-width:0.0366666" />
    <path
       id="path631"
       d="M 7.1473502,10.319007 H 11.547351 V 8.7544393 c 0,-0.1176999 0.05683,-0.2284332 0.152532,-0.2973666 1.052333,-0.7582667 1.680801,-1.9811 1.680801,-3.2714001 0,-2.2238334 -1.809501,-4.0333334 -4.0333336,-4.0333334 -2.223834,0 -4.0333335,1.8095 -4.0333335,4.0333334 0,1.2903001 0.6284665,2.5131334 1.6807995,3.2714001 0.095705,0.068933 0.1525338,0.1796667 0.1525338,0.2973666 z M 11.914016,11.05234 H 6.7806834 c -0.2023997,0 -0.3666669,-0.1639 -0.3666669,-0.366667 V 8.937406 C 5.2626835,8.0357726 4.5806832,6.647206 4.5806832,5.1856726 c 0,-2.6282667 2.1384009,-4.76666671 4.7666672,-4.76666671 2.6282666,0 4.7666666,2.13840001 4.7666666,4.76666671 0,1.4615334 -0.682001,2.8501 -1.833334,3.7517334 v 1.748267 c 0,0.202767 -0.164266,0.366667 -0.366667,0.366667"
       style="fill:#3dcab1;fill-opacity:1;fill-rule:nonzero;stroke:none;stroke-width:0.0366666" />
    <path
       id="path632-3"
       d="M 11.914016,9.5856727 H 6.7806834 V 8.8523394 h 5.1333326 v 0.7333333"
       style="fill:#3dcab1;fill-opacity:1;fill-rule:nonzero;stroke:none;stroke-width:0.0366666" />
    <path
       id="path633-5"
       d="m 4.5806832,21.685673 h 9.9000008 v -3.3 c 0,-0.1771 0.126866,-0.3289 0.301033,-0.360433 l 4.033333,-0.733334 2.6323,-0.6589 v -9.614 h -2.933333 v 6.966667 c 0,0.187001 -0.140433,0.343934 -0.326333,0.364467 l -3.300001,0.366667 c -0.05976,0.0065 -0.120633,-0.0019 -0.176733,-0.02383 l -1.608567,-0.6435 -1.662466,1.6621 c -0.143366,0.143367 -0.3751,0.143367 -0.518467,0 l -1.5740996,-1.574101 -1.5740999,1.5741 c -0.1433665,0.143367 -0.3751003,0.143367 -0.5184668,0 L 5.5747169,14.031509 3.3776498,14.670243 c -1.497466,0.6325 -2.46363322,2.088533 -2.46363322,3.715433 v 3.3 H 3.8473505 v -2.566667 c 0,-0.202766 0.1642662,-0.366666 0.3666669,-0.366666 0.2023996,0 0.3666658,0.1639 0.3666658,0.366666 z M 14.84735,22.419006 H 0.54735073 c -0.20240068,0 -0.36666687,-0.1639 -0.36666687,-0.366667 v -3.666666 c 0,-1.9305 1.15133304,-3.657867 2.93333294,-4.4 0.012836,-0.0055 0.025662,-0.0099 0.038498,-0.01356 l 2.4258667,-0.705101 c 0.1287,-0.03777 0.2669331,-0.0019 0.3615334,0.09276 l 1.574102,1.5741 1.5740999,-1.5741 c 0.1433665,-0.143367 0.3751003,-0.143367 0.5184668,0 l 1.5741004,1.5741 1.5741,-1.5741 c 0.103396,-0.103771 0.259233,-0.1353 0.395633,-0.0814 l 1.7479,0.699599 2.882366,-0.320832 V 6.6523393 c 0,-0.2027666 0.164267,-0.3666666 0.366667,-0.3666666 h 3.666667 c 0.202399,0 0.366667,0.1639 0.366667,0.3666666 V 16.919006 c 0,0.1683 -0.114401,0.3146 -0.277567,0.355666 l -2.933333,0.733334 -3.755767,0.683467 v 3.360866 c 0,0.202767 -0.164267,0.366667 -0.366667,0.366667"
       style="fill:#1f2937;fill-opacity:1;fill-rule:nonzero;stroke:none;stroke-width:0.0366666" />
    <path
       id="path634-9"
       d="M 18.514017,6.2856727 H 21.44735 V 4.819006 h -1.833333 c -0.2024,0 -0.366667,-0.1639001 -0.366667,-0.3666667 v -2.2 c 0,-0.2024 -0.164633,-0.3666667 -0.366666,-0.3666667 -0.202034,0 -0.366667,0.1642667 -0.366667,0.3666667 z m 3.3,0.7333333 H 18.14735 c -0.2024,0 -0.366667,-0.1639 -0.366667,-0.3666667 v -4.4 c 0,-0.6064667 0.493534,-1.1000001 1.100001,-1.1000001 0.606466,0 1.099999,0.4935334 1.099999,1.1000001 v 1.8333333 h 1.833334 c 0.202399,0 0.366667,0.1639 0.366667,0.3666667 v 2.2 c 0,0.2027667 -0.164268,0.3666667 -0.366667,0.3666667"
       style="fill:#1f2937;fill-opacity:1;fill-rule:nonzero;stroke:none;stroke-width:0.0366666" />
  </g>
  <g
     inkscape:label="Capa 1"
     inkscape:groupmode="layer"
     id="layer1"
     transform="translate(-71.212077,-72.348743)"
     style="display:none">
    <path
       id="path726"
       d="m 90.434173,88.364243 v -2.147006 c 0,-0.68086 -0.553863,-1.234723 -1.234723,-1.234723 -0.680861,0 -1.234723,0.553863 -1.234723,1.234723 v 2.99861 H 81.26195 V 77.221404 h 9.877777 v 11.848393 z m -8.11389,2.968271 c -0.583493,0 -1.058333,-0.474837 -1.058333,-1.058334 v -0.352777 h 6.702777 v 1.411111 z m 0,-16.227777 h 7.76111 c 0.583496,0 1.058334,0.47484 1.058334,1.058333 v 0.352777 H 81.26195 V 76.16307 c 0,-0.583493 0.47484,-1.058333 1.058333,-1.058333 z M 93.527681,87.57896 91.845283,85.560364 V 76.16307 c 0,-0.972608 -0.791281,-1.763889 -1.76389,-1.763889 h -7.76111 c -0.972608,0 -1.76389,0.791281 -1.76389,1.763889 v 14.11111 c 0,0.972609 0.791282,1.76389 1.76389,1.76389 h 5.644444 v 0.352777 c 0,0.09384 0.03704,0.183444 0.103364,0.249415 l 1.307748,1.307745 v 0.559507 h 0.705554 v -0.705557 c 0,-0.09384 -0.03704,-0.183443 -0.103362,-0.249412 l -1.307748,-1.307748 v -6.02756 c 0,-0.291748 0.237419,-0.529167 0.529167,-0.529167 0.291748,0 0.529166,0.237419 0.529166,0.529167 v 2.293056 c 0,0.09349 0.03704,0.183444 0.103365,0.249412 l 1.41111,1.411113 c 0.101248,0.101246 0.252942,0.131937 0.384527,0.07655 0.13194,-0.05433 0.217665,-0.183443 0.217665,-0.325967 v -3.25896 l 1.058333,1.27 v 6.575071 h 0.705557 v -6.702777 c 0,-0.08255 -0.02893,-0.162277 -0.08149,-0.225777"
       style="fill:#1f2937;fill-opacity:1;fill-rule:nonzero;stroke:none;stroke-width:0.0352777" />
    <path
       id="path727"
       d="m 72.235777,75.457514 2.323396,-2.323394 v 2.323394 z m 13.259506,18.344443 h -12.7 c -0.583493,0 -1.058333,-0.474837 -1.058333,-1.058333 V 76.16307 h 3.175 c 0.195085,0 0.352777,-0.158043 0.352777,-0.352777 v -3.175 h 10.230556 c 0.583494,0 1.058333,0.474838 1.058333,1.058334 h 0.705557 c 0,-0.972609 -0.791282,-1.76389 -1.76389,-1.76389 H 74.91195 c -0.09772,0 -0.185915,0.03951 -0.249767,0.103717 l -3.527073,3.527073 c -0.0642,0.06385 -0.103717,0.152045 -0.103717,0.249766 v 16.933331 c 0,0.972608 0.791282,1.76389 1.76389,1.76389 h 12.7 c 0.972608,0 1.76389,-0.791282 1.76389,-1.76389 h -0.705557 c 0,0.583496 -0.474839,1.058333 -1.058333,1.058333"
       style="fill:#1f2937;fill-opacity:1;fill-rule:nonzero;stroke:none;stroke-width:0.0352777" />
    <path
       id="path728"
       d="m 79.85084,84.629737 h -7.055557 v 0.705556 h 7.055557 v -0.705556"
       style="fill:#1f2937;fill-opacity:1;fill-rule:nonzero;stroke:none;stroke-width:0.0352777" />
    <path
       id="path729"
       d="m 79.85084,86.040847 h -7.055557 v 0.705556 h 7.055557 v -0.705556"
       style="fill:#1f2937;fill-opacity:1;fill-rule:nonzero;stroke:none;stroke-width:0.0352777" />
    <path
       id="path730"
       d="m 79.85084,87.45196 h -7.055557 v 0.705554 H 79.85084 V 87.45196"
       style="fill:#1f2937;fill-opacity:1;fill-rule:nonzero;stroke:none;stroke-width:0.0352777" />
    <path
       id="path731"
       d="m 79.85084,88.86307 h -7.055557 v 0.705557 H 79.85084 V 88.86307"
       style="fill:#1f2937;fill-opacity:1;fill-rule:nonzero;stroke:none;stroke-width:0.0352777" />
    <path
       id="path732"
       d="m 79.85084,90.27418 h -7.055557 v 0.705557 H 79.85084 V 90.27418"
       style="fill:#1f2937;fill-opacity:1;fill-rule:nonzero;stroke:none;stroke-width:0.0352777" />
    <path
       id="path733"
       d="m 72.795283,92.390847 h 7.055557 v -0.705556 h -7.055557 v 0.705556"
       style="fill:#1f2937;fill-opacity:1;fill-rule:nonzero;stroke:none;stroke-width:0.0352777" />
    <path
       id="path734"
       d="m 83.731393,79.690847 h -0.705554 v -0.705554 h 0.705554 z m 0.35278,-1.41111 H 82.67306 c -0.195085,0 -0.352777,0.158043 -0.352777,0.352777 v 1.411113 c 0,0.194733 0.157692,0.352777 0.352777,0.352777 h 1.411113 c 0.195085,0 0.352777,-0.158044 0.352777,-0.352777 v -1.411113 c 0,-0.194734 -0.157692,-0.352777 -0.352777,-0.352777"
       style="fill:#ffd700;fill-opacity:1;fill-rule:nonzero;stroke:none;stroke-width:0.0352777" />
    <path
       id="path735"
       d="m 73.50084,77.57418 h 0.705553 v 0.705557 H 73.50084 Z m 1.058333,1.411113 c 0.195085,0 0.352777,-0.158046 0.352777,-0.352779 v -1.41111 c 0,-0.194734 -0.157692,-0.352777 -0.352777,-0.352777 H 73.14806 c -0.195085,0 -0.352777,0.158043 -0.352777,0.352777 v 1.41111 c 0,0.194733 0.157692,0.352779 0.352777,0.352779 h 1.411113"
       style="fill:#ffd700;fill-opacity:1;fill-rule:nonzero;stroke:none;stroke-width:0.0352777" />
    <path
       id="path736"
       d="m 73.50084,82.51307 h 0.705553 v 0.705557 H 73.50084 Z m -0.705557,1.058334 c 0,0.194733 0.157692,0.352776 0.352777,0.352776 h 1.411113 c 0.195085,0 0.352777,-0.158043 0.352777,-0.352776 v -1.411111 c 0,-0.194733 -0.157692,-0.352779 -0.352777,-0.352779 H 73.14806 c -0.195085,0 -0.352777,0.158046 -0.352777,0.352779 v 1.411111"
       style="fill:#ffd700;fill-opacity:1;fill-rule:nonzero;stroke:none;stroke-width:0.0352777" />
    <path
       id="path737"
       d="m 78.08695,77.57418 h 0.705556 v 0.705557 H 78.08695 Z m 1.058333,1.411113 c 0.195085,0 0.352777,-0.158046 0.352777,-0.352779 v -1.41111 c 0,-0.194734 -0.157692,-0.352777 -0.352777,-0.352777 h -1.41111 c -0.195088,0 -0.35278,0.158043 -0.35278,0.352777 v 1.41111 c 0,0.194733 0.157692,0.352779 0.35278,0.352779 h 1.41111"
       style="fill:#ffd700;fill-opacity:1;fill-rule:nonzero;stroke:none;stroke-width:0.0352777" />
    <path
       id="path738"
       d="m 89.375839,79.690847 h -0.705556 v -0.705554 h 0.705556 z m 0.352777,-1.41111 h -1.41111 c -0.195088,0 -0.352779,0.158043 -0.352779,0.352777 v 1.411113 c 0,0.194733 0.157691,0.352777 0.352779,0.352777 h 1.41111 c 0.195086,0 0.352777,-0.158044 0.352777,-0.352777 v -1.411113 c 0,-0.194734 -0.157691,-0.352777 -0.352777,-0.352777"
       style="fill:#ffd700;fill-opacity:1;fill-rule:nonzero;stroke:none;stroke-width:0.0352777" />
    <path
       id="path739"
       d="m 83.731393,85.335293 h -0.705554 v -0.705556 h 0.705554 z m 0.35278,-1.411113 H 82.67306 c -0.195085,0 -0.352777,0.158047 -0.352777,0.35278 v 1.41111 c 0,0.194733 0.157692,0.352777 0.352777,0.352777 h 1.411113 c 0.195085,0 0.352777,-0.158044 0.352777,-0.352777 v -1.41111 c 0,-0.194733 -0.157692,-0.35278 -0.352777,-0.35278"
       style="fill:#ffd700;fill-opacity:1;fill-rule:nonzero;stroke:none;stroke-width:0.0352777" />
    <path
       id="path740"
       d="M 82.320283,81.807514 H 84.43695 V 81.10196 h -2.116667 v 0.705554"
       style="fill:#ffd700;fill-opacity:1;fill-rule:nonzero;stroke:none;stroke-width:0.0352777" />
    <path
       id="path741"
       d="m 85.142506,78.279737 v 0.705556 h 0.705554 v -0.705556 h -0.705554"
       style="fill:#ffd700;fill-opacity:1;fill-rule:nonzero;stroke:none;stroke-width:0.0352777" />
    <path
       id="path742"
       d="m 86.906393,81.807514 h 1.411113 V 81.10196 h -1.058333 v -2.822223 h -0.705557 v 0.705556 H 85.84806 v 0.705554 h 0.705556 v 1.76389 c 0,0.194733 0.157692,0.352777 0.352777,0.352777"
       style="fill:#ffd700;fill-opacity:1;fill-rule:nonzero;stroke:none;stroke-width:0.0352777" />
    <path
       id="path743"
       d="m 85.142506,82.160293 h 0.705554 v -2.469446 h -0.705554 v 2.469446"
       style="fill:#ffd700;fill-opacity:1;fill-rule:nonzero;stroke:none;stroke-width:0.0352777" />
    <path
       id="path744"
       d="m 83.025839,82.51307 h -0.705556 v 0.705557 h 0.705556 V 82.51307"
       style="fill:#ffd700;fill-opacity:1;fill-rule:nonzero;stroke:none;stroke-width:0.0352777" />
    <path
       id="path745"
       d="M 83.731393,83.218627 H 84.43695 V 82.51307 h -0.705557 v 0.705557"
       style="fill:#ffd700;fill-opacity:1;fill-rule:nonzero;stroke:none;stroke-width:0.0352777" />
    <path
       id="path746"
       d="M 85.142506,86.040847 H 85.84806 V 84.27696 h -0.705554 v 1.763887"
       style="fill:#ffd700;fill-opacity:1;fill-rule:nonzero;stroke:none;stroke-width:0.0352777" />
    <path
       id="path747"
       d="m 85.142506,82.865847 v 0.705557 h 0.705554 v -0.705557 h -0.705554"
       style="fill:#ffd700;fill-opacity:1;fill-rule:nonzero;stroke:none;stroke-width:0.0352777" />
    <path
       id="path748"
       d="m 85.84806,84.27696 h 0.705556 V 83.571404 H 85.84806 v 0.705556"
       style="fill:#ffd700;fill-opacity:1;fill-rule:nonzero;stroke:none;stroke-width:0.0352777" />
    <path
       id="path749"
       d="M 86.553616,82.865847 V 82.160293 H 85.84806 v 0.705554 h 0.705556"
       style="fill:#ffd700;fill-opacity:1;fill-rule:nonzero;stroke:none;stroke-width:0.0352777" />
    <path
       id="path750"
       d="m 86.553616,85.68807 h 0.705557 v -0.705556 h -0.705557 v 0.705556"
       style="fill:#ffd700;fill-opacity:1;fill-rule:nonzero;stroke:none;stroke-width:0.0352777" />
    <path
       id="path751"
       d="m 89.02306,81.10196 v 0.705554 h 0.705556 V 81.10196 H 89.02306"
       style="fill:#ffd700;fill-opacity:1;fill-rule:nonzero;stroke:none;stroke-width:0.0352777" />
    <path
       id="path752"
       d="m 87.964727,82.865847 v 1.76389 h 0.705556 v -1.41111 h 1.41111 V 82.51307 h -1.763887 c -0.195088,0 -0.352779,0.158044 -0.352779,0.352777"
       style="fill:#ffd700;fill-opacity:1;fill-rule:nonzero;stroke:none;stroke-width:0.0352777" />
    <path
       id="path753"
       d="m 89.375839,84.629737 h 0.705554 V 83.92418 h -0.705554 v 0.705557"
       style="fill:#ffd700;fill-opacity:1;fill-rule:nonzero;stroke:none;stroke-width:0.0352777" />
    <path
       id="path754"
       d="m 87.259173,83.571404 v -0.705557 h -0.705557 v 0.705557 h 0.705557"
       style="fill:#ffd700;fill-opacity:1;fill-rule:nonzero;stroke:none;stroke-width:0.0352777" />
    <path
       id="path755"
       d="m 72.795283,81.10196 h 2.822223 V 80.396404 H 74.206393 V 79.690847 H 73.50084 v 0.705557 h -0.705557 v 0.705556"
       style="fill:#ffd700;fill-opacity:1;fill-rule:nonzero;stroke:none;stroke-width:0.0352777" />
    <path
       id="path756"
       d="m 75.264727,76.868627 v 0.705553 h 0.705556 v -0.705553 h -0.705556"
       style="fill:#ffd700;fill-opacity:1;fill-rule:nonzero;stroke:none;stroke-width:0.0352777" />
    <path
       id="path757"
       d="m 75.264727,78.985293 h 0.705556 v -0.705556 h -0.705556 v 0.705556"
       style="fill:#ffd700;fill-opacity:1;fill-rule:nonzero;stroke:none;stroke-width:0.0352777" />
    <path
       id="path758"
       d="M 76.67584,78.279737 V 77.57418 h -0.705557 v 0.705557 h 0.705557"
       style="fill:#ffd700;fill-opacity:1;fill-rule:nonzero;stroke:none;stroke-width:0.0352777" />
    <path
       id="path759"
       d="m 75.617506,81.10196 v 0.705554 H 76.32306 V 81.10196 h -0.705554"
       style="fill:#ffd700;fill-opacity:1;fill-rule:nonzero;stroke:none;stroke-width:0.0352777" />
    <path
       id="path760"
       d="M 77.028616,78.985293 H 76.32306 v 0.705554 h 0.705556 v -0.705554"
       style="fill:#ffd700;fill-opacity:1;fill-rule:nonzero;stroke:none;stroke-width:0.0352777" />
    <path
       id="path761"
       d="m 76.32306,79.690847 h -0.705554 v 0.705557 h 0.705554 v -0.705557"
       style="fill:#ffd700;fill-opacity:1;fill-rule:nonzero;stroke:none;stroke-width:0.0352777" />
    <path
       id="path762"
       d="m 77.734173,80.396404 v -0.705557 h -0.705557 v 0.705557 h 0.705557"
       style="fill:#ffd700;fill-opacity:1;fill-rule:nonzero;stroke:none;stroke-width:0.0352777" />
    <path
       id="path763"
       d="m 79.145283,81.10196 c 0.195085,0 0.352777,-0.158046 0.352777,-0.35278 v -1.058333 h -0.705554 v 0.705557 h -1.058333 v 0.705556 h 1.41111"
       style="fill:#ffd700;fill-opacity:1;fill-rule:nonzero;stroke:none;stroke-width:0.0352777" />
    <path
       id="path764"
       d="M 77.028616,80.396404 H 76.32306 v 0.705556 h 0.705556 v -0.705556"
       style="fill:#ffd700;fill-opacity:1;fill-rule:nonzero;stroke:none;stroke-width:0.0352777" />
    <path
       id="path765"
       d="m 79.145283,82.51307 h -0.705556 v 0.705557 h 0.705556 V 82.51307"
       style="fill:#ffd700;fill-opacity:1;fill-rule:nonzero;stroke:none;stroke-width:0.0352777" />
    <path
       id="path766"
       d="m 77.028616,81.807514 h 0.705557 V 81.10196 h -0.705557 v 0.705554"
       style="fill:#ffd700;fill-opacity:1;fill-rule:nonzero;stroke:none;stroke-width:0.0352777" />
    <path
       id="path767"
       d="m 76.32306,82.51307 h -0.705554 v 0.705557 h 2.116667 V 82.51307 H 77.028616 V 81.807514 H 76.32306 v 0.705556"
       style="fill:#ffd700;fill-opacity:1;fill-rule:nonzero;stroke:none;stroke-width:0.0352777" />
    <path
       id="path768"
       d="m 78.439727,83.92418 v -0.705553 h -0.705554 v 0.705553 h 0.705554"
       style="fill:#ffd700;fill-opacity:1;fill-rule:nonzero;stroke:none;stroke-width:0.0352777" />
  </g>
  <g
     inkscape:groupmode="layer"
     id="layer3"
     inkscape:label="Capa 3"
     style="display:none"
     transform="translate(-0.18068387,-0.41900588)">
    <path
       id="path892"
       d="M 2.5823963,11.844449 H 1.8490636 v -0.733333 h 0.7333327 v 0.733333"
       style="fill:#100f0d;fill-opacity:1;fill-rule:nonzero;stroke:none;stroke-width:0.0366666" />
    <path
       id="path893"
       d="M 4.0490638,11.844449 H 3.31573 v -0.733333 h 0.7333338 v 0.733333"
       style="fill:#100f0d;fill-opacity:1;fill-rule:nonzero;stroke:none;stroke-width:0.0366666" />
    <path
       id="path894"
       d="M 5.5157302,11.844449 H 4.7823965 v -0.733333 h 0.7333337 v 0.733333"
       style="fill:#100f0d;fill-opacity:1;fill-rule:nonzero;stroke:none;stroke-width:0.0366666" />
    <path
       id="path895"
       d="m 14.682397,7.4444494 c -0.808867,0 -1.466667,0.6578 -1.466667,1.4666666 0,0.8088667 0.6578,1.466666 1.466667,1.466666 0.808867,0 1.466666,-0.6577993 1.466666,-1.466666 0,-0.8088666 -0.657799,-1.4666666 -1.466666,-1.4666666 z m 0,3.6666666 c -1.2133,0 -2.2,-0.9867 -2.2,-2.2 0,-1.2132999 0.9867,-2.2 2.2,-2.2 1.2133,0 2.2,0.9867001 2.2,2.2 0,1.2133 -0.9867,2.2 -2.2,2.2"
       style="fill:#100f0d;fill-opacity:1;fill-rule:nonzero;stroke:none;stroke-width:0.0366666" />
    <path
       id="path896"
       d="m 12.849063,12.577783 h 3.666667 v -0.366667 c 0,-0.606466 -0.493533,-1.1 -1.1,-1.1 h -1.466667 c -0.606466,0 -1.1,0.493534 -1.1,1.1 z m 4.033334,0.733333 h -4.4 c -0.202767,0 -0.366667,-0.164267 -0.366667,-0.366667 v -0.733333 c 0,-1.0109 0.822433,-1.833334 1.833333,-1.833334 h 1.466667 c 1.0109,0 1.833333,0.822434 1.833333,1.833334 v 0.733333 c 0,0.2024 -0.163899,0.366667 -0.366666,0.366667"
       style="fill:#100f0d;fill-opacity:1;fill-rule:nonzero;stroke:none;stroke-width:0.0366666" />
    <path
       id="path898"
       d="M 1.8490636,18.811116 H 20.91573 v -4.033333 h -9.9 c -0.202766,0 -0.366667,-0.164267 -0.366667,-0.366667 v -8.8 c 0,-0.2023999 0.163901,-0.3666666 0.366667,-0.3666666 h 9.9 V 1.2111158 H 1.8490636 v 8.0666669 h 4.7666662 c 0.2027666,0 0.3666669,0.1642667 0.3666669,0.3666667 v 3.6666666 c 0,0.2024 -0.1639003,0.366666 -0.3666669,0.366666 H 4.7823965 v 0.733334 c 0,0.138967 -0.078462,0.265833 -0.2027666,0.328166 -0.1243003,0.0616 -0.2731661,0.0484 -0.3838996,-0.03483 L 2.8269632,13.677785 H 1.8490636 Z M 21.282396,19.544449 H 1.4823967 c -0.2027666,0 -0.3666669,-0.164266 -0.3666669,-0.366667 v -5.866666 c 0,-0.2024 0.1639003,-0.366667 0.3666669,-0.366667 h 1.4666665 c 0.079564,0 0.1565665,0.02566 0.2200003,0.07334 l 0.8800003,0.66 v -0.366665 c 0,-0.202401 0.1638993,-0.366667 0.3666658,-0.366667 H 6.249063 V 10.011118 H 1.4823967 c -0.2027666,0 -0.3666669,-0.1642667 -0.3666669,-0.3666666 V 0.84444891 c 0,-0.20239965 0.1639003,-0.36666584 0.3666669,-0.36666584 H 21.282396 c 0.202767,0 0.366667,0.16426619 0.366667,0.36666584 V 5.611116 c 0,0.2024 -0.1639,0.3666667 -0.366667,0.3666667 h -9.899999 v 8.0666663 h 9.899999 c 0.202767,0 0.366667,0.164267 0.366667,0.366667 v 4.766666 c 0,0.202401 -0.1639,0.366667 -0.366667,0.366667"
       style="fill:#1f2937;fill-opacity:1;fill-rule:nonzero;stroke:none;stroke-width:0.0366666" />
    <path
       id="path899"
       d="M 3.31573,15.877782 H 19.449063 V 14.777783 H 11.01573 c -0.202766,0 -0.366667,-0.164267 -0.366667,-0.366667 v -8.8 c 0,-0.2023999 0.163901,-0.3666666 0.366667,-0.3666666 h 8.433333 V 2.6777827 H 3.31573 v 6.6 h 3.2999998 c 0.2027666,0 0.3666669,0.1642667 0.3666669,0.3666667 v 3.6666666 c 0,0.2024 -0.1639003,0.366666 -0.3666669,0.366666 H 4.7823965 v 0.733334 c 0,0.138967 -0.078462,0.265833 -0.2027666,0.328166 -0.1243003,0.0616 -0.2731661,0.0484 -0.3838996,-0.03483 l -0.8800003,-0.66 z m 16.5,0.733334 H 2.9490632 c -0.2027666,0 -0.3666669,-0.164267 -0.3666669,-0.366667 v -2.933333 c 0,-0.138967 0.078472,-0.265833 0.2027676,-0.328166 0.1239324,-0.06197 0.2727992,-0.0484 0.3838996,0.03483 l 0.8800003,0.66 v -0.366666 c 0,-0.2024 0.1638993,-0.366667 0.3666658,-0.366667 H 6.249063 v -2.93333 H 2.9490632 c -0.2027666,0 -0.3666669,-0.1642667 -0.3666669,-0.3666666 V 2.311116 c 0,-0.2023999 0.1639003,-0.3666666 0.3666669,-0.3666666 H 19.81573 c 0.202767,0 0.366667,0.1642667 0.366667,0.3666666 v 3.3 c 0,0.2024 -0.1639,0.3666667 -0.366667,0.3666667 h -8.433333 v 8.0666663 h 8.433333 c 0.202767,0 0.366667,0.164267 0.366667,0.366667 v 1.833333 c 0,0.2024 -0.1639,0.366667 -0.366667,0.366667"
       style="fill:#ffd700;fill-opacity:1;fill-rule:nonzero;stroke:none;stroke-width:0.0366666" />
    <path
       id="path897"
       d="M 11.382397,14.044449 H 21.649063 V 5.9777827 H 11.382397 Z m 10.633333,0.733334 h -11 c -0.202766,0 -0.366667,-0.164267 -0.366667,-0.366667 v -8.8 c 0,-0.2023999 0.163901,-0.3666666 0.366667,-0.3666666 h 11 c 0.202767,0 0.366667,0.1642667 0.366667,0.3666666 v 8.8 c 0,0.2024 -0.1639,0.366667 -0.366667,0.366667"
       style="fill:#ffd700;fill-opacity:1;fill-rule:nonzero;stroke:none;stroke-width:0.0366666" />
    <path
       id="path900"
       d="M 13.21573,18.077783 H 9.9157296 V 17.344449 H 13.21573 v 0.733334"
       style="fill:#1f2937;fill-opacity:1;fill-rule:nonzero;stroke:none;stroke-width:0.0366666" />
    <path
       id="path901"
       d="m 1.1157298,19.544449 v 0.366667 c 0,1.0109 0.8224338,1.833333 1.8333334,1.833333 H 19.81573 c 1.0109,0 1.833333,-0.822433 1.833333,-1.833333 V 19.544449 Z M 19.81573,22.477783 H 2.9490632 c -1.4149662,0 -2.56666615,-1.151334 -2.56666615,-2.566667 v -0.733334 c 0,-0.202399 0.1638993,-0.366666 0.36666584,-0.366666 H 22.01573 c 0.202767,0 0.366667,0.164267 0.366667,0.366666 v 0.733334 c 0,1.415333 -1.1517,2.566667 -2.566667,2.566667"
       style="fill:#1f2937;fill-opacity:1;fill-rule:nonzero;stroke:none;stroke-width:0.0366666" />
    <path
       id="path891"
       d="m 1.1157298,12.944449 h 1.8333334 c 0.079564,0 0.1565665,0.02566 0.2200003,0.07334 l 0.8800003,0.66 v -0.366665 c 0,-0.202401 0.1638993,-0.366667 0.3666658,-0.366667 H 6.249063 V 10.011118 H 1.1157298 Z m 3.2999998,1.833334 c -0.077735,0 -0.1554658,-0.02493 -0.2199993,-0.07334 L 2.8269632,13.677776 H 0.74906289 c -0.20276654,0 -0.36666584,-0.164266 -0.36666584,-0.366667 v -3.66666 c 0,-0.2024 0.1638993,-0.3666667 0.36666584,-0.3666667 H 6.6157298 c 0.2027666,0 0.3666669,0.1642667 0.3666669,0.3666667 v 3.666666 c 0,0.202401 -0.1639003,0.366667 -0.3666669,0.366667 H 4.7823965 v 0.733334 c 0,0.138967 -0.078462,0.265833 -0.2027666,0.328166 -0.051698,0.02566 -0.1081661,0.0385 -0.1639003,0.0385"
       style="fill:#ffd700;fill-opacity:1;fill-rule:nonzero;stroke:none;stroke-width:0.0366666" />
    <path
       id="path902"
       d="M 21.640235,9.2777827 H 16.51573 V 8.5444494 h 5.124505 v 0.7333333"
       style="fill:#100f0d;fill-opacity:1;fill-rule:nonzero;stroke:none;stroke-width:0.0353928" />
    <path
       id="path903"
       d="M 19.449063,7.811116 H 18.71573 V 7.0777827 h 0.733333 V 7.811116"
       style="fill:#100f0d;fill-opacity:1;fill-rule:nonzero;stroke:none;stroke-width:0.0366666" />
    <path
       id="path904"
       d="M 20.91573,7.811116 H 20.182397 V 7.0777827 H 20.91573 V 7.811116"
       style="fill:#100f0d;fill-opacity:1;fill-rule:nonzero;stroke:none;stroke-width:0.0366666" />
    <path
       id="path905"
       d="M 17.982397,7.811116 H 17.249063 V 7.0777827 h 0.733334 V 7.811116"
       style="fill:#100f0d;fill-opacity:1;fill-rule:nonzero;stroke:none;stroke-width:0.0366666" />
    <path
       id="path906"
       d="M 12.849063,9.2777827 H 11.391225 V 8.5444494 h 1.457838 v 0.7333333"
       style="fill:#100f0d;fill-opacity:1;fill-rule:nonzero;stroke:none;stroke-width:0.0326968" />
  </g>
  <g
     inkscape:groupmode="layer"
     id="layer4"
     inkscape:label="Capa 4"
     style="display:none"
     transform="translate(-0.18068387,-0.41900588)">
    <path
       id="path464"
       d="m 16.768584,16.437833 v -2.146971 c 0,-0.680896 -0.553861,-1.234722 -1.234722,-1.234722 -0.680861,0 -1.234722,0.553826 -1.234722,1.234722 v 2.293056 H 4.0685834 V 3.1783617 H 17.47414 V 17.143388 Z M 5.1269168,19.40614 c -0.5834945,0 -1.0583334,-0.474874 -1.0583334,-1.058333 V 17.289473 H 14.29914 v 2.116667 z m 0,-18.69722292 H 16.415806 c 0.583495,0 1.058334,0.47487422 1.058334,1.05833342 V 2.4728061 H 4.0685834 V 1.7672505 c 0,-0.5834592 0.4748389,-1.05833342 1.0583334,-1.05833342 z M 18.179695,13.633672 V 1.7672505 c 0,-0.97260842 -0.79128,-1.76388902 -1.763889,-1.76388902 H 5.1269168 c -0.9726084,0 -1.763889,0.7912806 -1.763889,1.76388902 V 18.347807 c 0,0.972608 0.7912806,1.763889 1.763889,1.763889 H 14.29914 v 0.352778 c 0,0.09384 0.03704,0.183409 0.103364,0.249414 l 1.307747,1.307782 v 0.55947 h 0.705555 v -0.705555 c 0,-0.09384 -0.03704,-0.183409 -0.103363,-0.249414 l -1.307748,-1.307783 v -6.027526 c 0,-0.291747 0.23742,-0.529167 0.529167,-0.529167 0.291747,0 0.529167,0.23742 0.529167,0.529167 v 2.293056 c 0,0.09384 0.03704,0.183409 0.103364,0.249414 l 1.411111,1.411111 c 0.101247,0.101282 0.252941,0.131904 0.384528,0.07648 0.131938,-0.05429 0.217663,-0.183409 0.217663,-0.325896 v -3.258644 l 1.058334,1.269718 v 6.575037 h 0.705555 V 15.87836 c 0,-0.08255 -0.02893,-0.162595 -0.08149,-0.22613 l -1.682397,-2.01856"
       style="fill:#1f2937;fill-opacity:1;fill-rule:nonzero;stroke:none;stroke-width:0.0352778" />
    <path
       id="path465"
       d="m 10.418584,18.700585 h 0.705555 v -0.705556 h -0.705555 v 0.705556"
       style="fill:#100f0d;fill-opacity:1;fill-rule:nonzero;stroke:none;stroke-width:0.0352778" />
    <path
       id="path466"
       d="M 15.004695,8.8693732 14.494931,8.5292954 c -0.105127,-0.070168 -0.239889,-0.078705 -0.353483,-0.02219 l -0.900642,0.450462 V 5.8241952 c 0,-0.4864453 0.395464,-0.8819445 0.881945,-0.8819445 0.48648,0 0.881944,0.3954992 0.881944,0.8819445 z M 12.535251,14.513818 12.025487,14.17374 c -0.118534,-0.07937 -0.27305,-0.07937 -0.391584,0 L 10.771362,14.748768 9.9088199,14.17374 c -0.059267,-0.03955 -0.1277056,-0.05927 -0.1957917,-0.05927 -0.068086,0 -0.136525,0.01972 -0.1957917,0.05927 L 8.6546948,14.748768 7.7921531,14.17374 c -0.1185334,-0.07937 -0.27305,-0.07937 -0.3915834,0 L 6.8908058,14.513818 V 5.6478063 c 0,-0.3891492 0.3164417,-0.7055556 0.7055556,-0.7055556 h 5.1283306 c -0.12065,0.2078214 -0.189441,0.4486981 -0.189441,0.7055556 v 0.1763889 3.7041669 z m 1.5875,-10.2771229 c -0.04022,0 -0.07796,0.00882 -0.117475,0.011994 -0.01976,-0.0036 -0.0381,-0.011994 -0.05891,-0.011994 H 7.5963613 c -0.7782278,0 -1.4111112,0.6329187 -1.4111112,1.4111112 v 9.5250007 c 0,0.13021 0.071614,0.249696 0.1862667,0.31115 0.1146528,0.06174 0.2543528,0.05429 0.3623028,-0.01764 l 0.8625417,-0.575028 0.8625417,0.575028 c 0.1185334,0.07938 0.27305,0.07938 0.3915834,0 l 0.8625417,-0.575028 0.8625419,0.575028 c 0.118533,0.07938 0.27305,0.07938 0.391583,0 l 0.862542,-0.575028 0.862542,0.575028 c 0.05891,0.03916 0.127352,0.05927 0.195791,0.05927 0.05715,0 0.1143,-0.01379 0.166511,-0.04163 0.114653,-0.06145 0.186267,-0.18094 0.186267,-0.31115 V 9.7463783 l 1.032934,-0.5165015 0.887941,0.5919965 c 0.108303,0.07235 0.247298,0.07899 0.362303,0.01764 0.114653,-0.06145 0.186267,-0.1809399 0.186267,-0.3111502 V 5.8241952 c 0,-0.8752064 -0.712259,-1.5875001 -1.5875,-1.5875001"
       style="fill:#ffd700;fill-opacity:1;fill-rule:nonzero;stroke:none;stroke-width:0.0352778" />
    <path
       id="path467"
       d="m 9.7130282,7.7644731 c -0.3891139,0 -0.7055556,-0.3164064 -0.7055556,-0.7055556 0,-0.3891492 0.3164417,-0.7055556 0.7055556,-0.7055556 0.3891138,0 0.7055558,0.3164064 0.7055558,0.7055556 0,0.3891492 -0.316442,0.7055556 -0.7055558,0.7055556 z m 0,-2.1166668 c -0.7782278,0 -1.4111112,0.6329187 -1.4111112,1.4111112 0,0.7781925 0.6328834,1.4111112 1.4111112,1.4111112 0.7782278,0 1.4111108,-0.6329187 1.4111108,-1.4111112 0,-0.7781925 -0.632883,-1.4111112 -1.4111108,-1.4111112"
       style="fill:#ffd700;fill-opacity:1;fill-rule:nonzero;stroke:none;stroke-width:0.0352778" />
    <path
       id="path468"
       d="M 7.5963614,9.8811403 H 10.065806 V 9.1755843 H 7.5963614 v 0.705556"
       style="fill:#1f2937;fill-opacity:1;fill-rule:nonzero;stroke:none;stroke-width:0.0352778" />
    <path
       id="path469"
       d="m 10.771362,9.8811403 h 1.058333 v -0.705556 h -1.058333 v 0.705556"
       style="fill:#1f2937;fill-opacity:1;fill-rule:nonzero;stroke:none;stroke-width:0.0352778" />
    <path
       id="path470"
       d="M 7.5963614,11.292251 H 10.065806 V 10.586695 H 7.5963614 v 0.705556"
       style="fill:#1f2937;fill-opacity:1;fill-rule:nonzero;stroke:none;stroke-width:0.0352778" />
    <path
       id="path471"
       d="m 10.771362,11.292251 h 1.058333 v -0.705556 h -1.058333 v 0.705556"
       style="fill:#1f2937;fill-opacity:1;fill-rule:nonzero;stroke:none;stroke-width:0.0352778" />
    <path
       id="path472"
       d="M 7.5963614,12.703362 H 10.065806 V 11.997806 H 7.5963614 v 0.705556"
       style="fill:#1f2937;fill-opacity:1;fill-rule:nonzero;stroke:none;stroke-width:0.0352778" />
    <path
       id="path473"
       d="m 10.771362,12.703362 h 1.058333 v -0.705556 h -1.058333 v 0.705556"
       style="fill:#1f2937;fill-opacity:1;fill-rule:nonzero;stroke:none;stroke-width:0.0352778" />
    <path
       id="path474"
       d="m 19.590807,7.7644731 h -0.705556 v 0.7055556 h 0.705556 V 7.7644731"
       style="fill:#1f2937;fill-opacity:1;fill-rule:nonzero;stroke:none;stroke-width:0.0352778" />
    <path
       id="path475"
       d="m 20.296362,8.4700287 h 0.705556 V 7.7644731 h -0.705556 v 0.7055556"
       style="fill:#1f2937;fill-opacity:1;fill-rule:nonzero;stroke:none;stroke-width:0.0352778" />
    <path
       id="path476"
       d="m 20.296362,6.3533619 v 0.7055556 h 0.705556 V 6.3533619 h -0.705556"
       style="fill:#1f2937;fill-opacity:1;fill-rule:nonzero;stroke:none;stroke-width:0.0352778" />
    <path
       id="path477"
       d="m 20.296362,9.8811403 h 0.705556 v -0.705556 h -0.705556 v 0.705556"
       style="fill:#1f2937;fill-opacity:1;fill-rule:nonzero;stroke:none;stroke-width:0.0352778" />
    <path
       id="path478"
       d="M 1.9519166,8.4700287 H 2.6574722 V 7.7644731 H 1.9519166 v 0.7055556"
       style="fill:#1f2937;fill-opacity:1;fill-rule:nonzero;stroke:none;stroke-width:0.0352778" />
    <path
       id="path479"
       d="M 0.54080501,8.4700287 H 1.246361 V 7.7644731 H 0.54080501 v 0.7055556"
       style="fill:#1f2937;fill-opacity:1;fill-rule:nonzero;stroke:none;stroke-width:0.0352778" />
    <path
       id="path480"
       d="M 0.54080501,9.8811403 H 1.246361 V 9.1755843 H 0.54080501 v 0.705556"
       style="fill:#1f2937;fill-opacity:1;fill-rule:nonzero;stroke:none;stroke-width:0.0352778" />
    <path
       id="path481"
       d="M 0.54080501,7.0589175 H 1.246361 V 6.3533619 H 0.54080501 v 0.7055556"
       style="fill:#1f2937;fill-opacity:1;fill-rule:nonzero;stroke:none;stroke-width:0.0352778" />
  </g>
  <g
     inkscape:groupmode="layer"
     id="layer5"
     inkscape:label="Capa 5"
     style="display:none"
     transform="translate(-0.18068387,-0.41900588)">
    <path
       id="path753-1"
       d="m 4.3524305,11.621673 c -0.778228,0 -1.411111,0.632883 -1.411111,1.411111 0,0.778228 0.632883,1.411111 1.411111,1.411111 0.778228,0 1.411111,-0.632883 1.411111,-1.411111 0,-0.778228 -0.632883,-1.411111 -1.411111,-1.411111 z m 0,3.527778 c -1.167342,0 -2.116667,-0.949326 -2.116667,-2.116667 0,-1.167342 0.949325,-2.116667 2.116667,-2.116667 1.167342,0 2.116667,0.949325 2.116667,2.116667 0,1.167341 -0.949325,2.116667 -2.116667,2.116667"
       style="fill:#ffd700;fill-opacity:1;fill-rule:nonzero;stroke:none;stroke-width:0.0352778" />
    <path
       id="path754-7"
       d="m 2.9413195,21.499451 h 2.822222 V 16.91334 c 0,-0.195087 0.158045,-0.352778 0.352778,-0.352778 0.194733,0 0.352778,0.157691 0.352778,0.352778 v 1.411111 h 0.705555 V 16.91334 c 0,-0.972609 -0.79128,-1.763889 -1.763889,-1.763889 h -2.116666 c -0.972609,0 -1.763889,0.79128 -1.763889,1.763889 v 1.411111 h 0.705555 V 16.91334 c 0,-0.195087 0.158045,-0.352778 0.352778,-0.352778 0.194733,0 0.352778,0.157691 0.352778,0.352778 z m 3.175,0.705555 h -3.527778 c -0.194733,0 -0.352778,-0.157691 -0.352778,-0.352778 v -2.822222 h -1.058333 c -0.194734,0 -0.352778,-0.157691 -0.352778,-0.352777 V 16.91334 c 0,-1.36137 1.107722,-2.469445 2.469445,-2.469445 h 2.116666 c 1.361723,0 2.469445,1.108075 2.469445,2.469445 v 1.763889 c 0,0.195086 -0.158044,0.352777 -0.352778,0.352777 h -1.058333 v 2.822222 c 0,0.195087 -0.158045,0.352778 -0.352778,0.352778"
       style="fill:#ffd700;fill-opacity:1;fill-rule:nonzero;stroke:none;stroke-width:0.0352778" />
    <path
       id="path755-0"
       d="m 4.7052085,1.7438942 c -0.583495,0 -1.058334,0.4748389 -1.058334,1.0583334 v 4.2333336 c 0,0.5834945 0.474839,1.0583334 1.058334,1.0583334 h 2.116667 c 0.194733,0 0.352777,0.1576917 0.352777,0.3527778 v 1.6178386 l 1.867253,-1.8672525 c 0.06597,-0.066322 0.155928,-0.1033639 0.249414,-0.1033639 h 4.5861115 c 0.103011,0 0.20073,0.045156 0.267758,0.1234722 L 15.64132,9.9625586 V 8.4466724 c 0,-0.1950861 0.158044,-0.3527778 0.352777,-0.3527778 h 2.116667 c 0.583495,0 1.058334,-0.4748389 1.058334,-1.0583334 V 2.8022276 c 0,-0.5834945 -0.474839,-1.0583334 -1.058334,-1.0583334 z M 15.994097,11.268895 c -0.100894,0 -0.199319,-0.04339 -0.267758,-0.123472 L 13.715153,8.7994502 H 9.4373695 l -2.36608,2.3660808 c -0.100895,0.100894 -0.252589,0.131233 -0.384528,0.07655 -0.131586,-0.05433 -0.217664,-0.183445 -0.217664,-0.325967 V 8.7994502 h -1.763889 c -0.972609,0 -1.763889,-0.7912806 -1.763889,-1.763889 V 2.8022276 c 0,-0.9726084 0.79128,-1.763889 1.763889,-1.763889 H 18.110764 c 0.972609,0 1.763889,0.7912806 1.763889,1.763889 v 4.2333336 c 0,0.9726084 -0.79128,1.763889 -1.763889,1.763889 h -1.763889 v 2.1166668 c 0,0.147814 -0.09207,0.279753 -0.230364,0.330906 -0.03986,0.01446 -0.08149,0.02187 -0.122414,0.02187"
       style="fill:#1f2937;fill-opacity:1;fill-rule:nonzero;stroke:none;stroke-width:0.0352778" />
    <path
       id="path756-2"
       d="M 18.110764,7.0355612 H 4.7052085 V 6.3300056 H 18.110764 v 0.7055556"
       style="fill:#ffd700;fill-opacity:1;fill-rule:nonzero;stroke:none;stroke-width:0.0352778" />
    <path
       id="path757-4"
       d="M 18.110764,3.5077832 H 4.7052085 V 2.8022276 H 18.110764 v 0.7055556"
       style="fill:#ffd700;fill-opacity:1;fill-rule:nonzero;stroke:none;stroke-width:0.0352778" />
    <path
       id="path758-5"
       d="M 18.110764,5.2716722 H 4.7052085 V 4.5661166 H 18.110764 v 0.7055556"
       style="fill:#ffd700;fill-opacity:1;fill-rule:nonzero;stroke:none;stroke-width:0.0352778" />
    <path
       id="path759-7"
       d="m 4.7052085,21.852228 h -0.705556 v -3.174999 h 0.705556 v 3.174999"
       style="fill:#ffd700;fill-opacity:1;fill-rule:nonzero;stroke:none;stroke-width:0.0352778" />
    <path
       id="path760-5"
       d="m 18.463542,11.621673 c -0.778228,0 -1.411111,0.632883 -1.411111,1.411111 0,0.778228 0.632883,1.411111 1.411111,1.411111 0.778228,0 1.411111,-0.632883 1.411111,-1.411111 0,-0.778228 -0.632883,-1.411111 -1.411111,-1.411111 z m 0,3.527778 c -1.167342,0 -2.116667,-0.949326 -2.116667,-2.116667 0,-1.167342 0.949325,-2.116667 2.116667,-2.116667 1.167342,0 2.116667,0.949325 2.116667,2.116667 0,1.167341 -0.949325,2.116667 -2.116667,2.116667"
       style="fill:#1f2937;fill-opacity:1;fill-rule:nonzero;stroke:none;stroke-width:0.0352778" />
    <path
       id="path761-1"
       d="m 17.052431,21.499451 h 2.822222 V 16.91334 c 0,-0.195087 0.158045,-0.352778 0.352778,-0.352778 0.194733,0 0.352778,0.157691 0.352778,0.352778 v 1.411111 h 0.705555 V 16.91334 c 0,-0.972609 -0.79128,-1.763889 -1.763889,-1.763889 h -2.116666 c -0.972609,0 -1.763889,0.79128 -1.763889,1.763889 v 1.411111 h 0.705555 V 16.91334 c 0,-0.195087 0.158045,-0.352778 0.352778,-0.352778 0.194733,0 0.352778,0.157691 0.352778,0.352778 z m 3.175,0.705555 h -3.527778 c -0.194733,0 -0.352778,-0.157691 -0.352778,-0.352778 v -2.822222 h -1.058333 c -0.194734,0 -0.352778,-0.157691 -0.352778,-0.352777 V 16.91334 c 0,-1.36137 1.107722,-2.469445 2.469445,-2.469445 h 2.116666 c 1.361723,0 2.469445,1.108075 2.469445,2.469445 v 1.763889 c 0,0.195086 -0.158044,0.352777 -0.352778,0.352777 h -1.058333 v 2.822222 c 0,0.195087 -0.158045,0.352778 -0.352778,0.352778"
       style="fill:#1f2937;fill-opacity:1;fill-rule:nonzero;stroke:none;stroke-width:0.0352778" />
    <path
       id="path762-2"
       d="m 18.81632,21.852228 h -0.705556 v -3.174999 h 0.705556 v 3.174999"
       style="fill:#1f2937;fill-opacity:1;fill-rule:nonzero;stroke:none;stroke-width:0.0352778" />
  </g>
  <g
     inkscape:groupmode="layer"
     id="layer6"
     inkscape:label="Capa 6"
     style="display:none"
     transform="translate(-0.18068387,-0.41900588)">
    <path
       id="path1040"
       d="M 9.1546362,18.710869 H 10.21297 V 18.005313 H 9.1546362 v 0.705556"
       style="fill:#1f2937;fill-opacity:1;fill-rule:nonzero;stroke:none;stroke-width:0.0352778" />
    <path
       id="path1041"
       d="M 0.68796922,2.8358681 V 1.7775347 c 0,-0.5834945 0.47483898,-1.05833341 1.05833298,-1.05833341 H 20.796304 c 0.583495,0 1.058334,0.47483891 1.058334,1.05833341 V 2.8358681 Z M 20.796304,0.01364569 H 1.7463022 c -0.97260798,0 -1.76388896,0.7912806 -1.76388896,1.76388901 V 16.94698 c 0,0.972608 0.79128098,1.763889 1.76388896,1.763889 h 1.763889 v -0.705556 h -1.763889 c -0.583494,0 -1.05833298,-0.474839 -1.05833298,-1.058333 V 3.5414237 H 21.854638 V 16.94698 c 0,0.583494 -0.474839,1.058333 -1.058334,1.058333 v 0.705556 c 0.972609,0 1.763889,-0.791281 1.763889,-1.763889 V 1.7775347 c 0,-0.97260841 -0.79128,-1.76388901 -1.763889,-1.76388901"
       style="fill:#1f2937;fill-opacity:1;fill-rule:nonzero;stroke:none;stroke-width:0.0352778" />
    <path
       id="path1042"
       d="m 1.7463022,1.4247569 c -0.194733,0 -0.352778,0.1580445 -0.352778,0.3527778 0,0.1947333 0.158045,0.3527778 0.352778,0.3527778 0.194734,0 0.352778,-0.1580445 0.352778,-0.3527778 0,-0.1947333 -0.158044,-0.3527778 -0.352778,-0.3527778"
       style="fill:#1f2937;fill-opacity:1;fill-rule:nonzero;stroke:none;stroke-width:0.0352778" />
    <path
       id="path1043"
       d="m 3.1574132,1.4247569 c -0.194733,0 -0.352777,0.1580445 -0.352777,0.3527778 0,0.1947333 0.158044,0.3527778 0.352777,0.3527778 0.194734,0 0.352778,-0.1580445 0.352778,-0.3527778 0,-0.1947333 -0.158044,-0.3527778 -0.352778,-0.3527778"
       style="fill:#1f2937;fill-opacity:1;fill-rule:nonzero;stroke:none;stroke-width:0.0352778" />
    <path
       id="path1044"
       d="m 4.5685252,1.4247569 c -0.194734,0 -0.352778,0.1580445 -0.352778,0.3527778 0,0.1947333 0.158044,0.3527778 0.352778,0.3527778 0.194733,0 0.352777,-0.1580445 0.352777,-0.3527778 0,-0.1947333 -0.158044,-0.3527778 -0.352777,-0.3527778"
       style="fill:#1f2937;fill-opacity:1;fill-rule:nonzero;stroke:none;stroke-width:0.0352778" />
    <path
       id="path1045"
       d="M 12.314821,8.8330907 H 8.4490802 V 4.9673516 c 0.990248,0.081844 1.8827768,0.5087056 2.5629318,1.1567584 l -0.695678,0.6956778 0.498828,0.4988278 0.666045,-0.6660445 c 0.464608,0.6187723 0.766233,1.3663084 0.833614,2.1805196 z M 14.799082,4.9525349 V 4.2469793 h -1.763889 c -0.09349,0 -0.183445,0.037042 -0.249414,0.1033639 L 11.510487,5.6256349 C 10.622545,4.7740293 9.4209832,4.2469793 8.0963032,4.2469793 c -0.194734,0 -0.352778,0.1580445 -0.352778,0.3527778 v 4.5861114 c 0,0.1947333 0.158044,0.3527778 0.352778,0.3527778 h 4.5861118 c 0.194733,0 0.352778,-0.1580445 0.352778,-0.3527778 0,-1.144764 -0.395111,-2.1974529 -1.051278,-3.0360058 l 1.197328,-1.1973278 h 1.617839"
       style="fill:#1f2937;fill-opacity:1;fill-rule:nonzero;stroke:none;stroke-width:0.0352778" />
    <path
       id="path1046"
       d="m 21.149082,4.2469793 h -5.644445 v 0.7055556 h 5.644445 V 4.2469793"
       style="fill:#1f2937;fill-opacity:1;fill-rule:nonzero;stroke:none;stroke-width:0.0352778" />
    <path
       id="path1047"
       d="m 15.504637,6.3636461 h 5.644445 V 5.6580905 h -5.644445 v 0.7055556"
       style="fill:#1f2937;fill-opacity:1;fill-rule:nonzero;stroke:none;stroke-width:0.0352778" />
    <path
       id="path1048"
       d="m 15.504637,7.7747573 h 5.644445 V 7.0692017 h -5.644445 v 0.7055556"
       style="fill:#1f2937;fill-opacity:1;fill-rule:nonzero;stroke:none;stroke-width:0.0352778" />
    <path
       id="path1049"
       d="m 19.385193,19.416424 c 0,0.583495 -0.474839,1.058334 -1.058333,1.058334 h -5.644445 c -0.583494,0 -1.058333,-0.474839 -1.058333,-1.058334 v -3.527778 c 0,-0.583494 0.474839,-1.058333 1.058333,-1.058333 h 5.644445 c 0.583494,0 1.058333,0.474839 1.058333,1.058333 z M 8.4490802,12.713646 c 0,0.194381 -0.158397,0.352778 -0.352777,0.352778 -0.194381,0 -0.352778,-0.158397 -0.352778,-0.352778 0,-0.194381 0.158397,-0.352778 0.352778,-0.352778 0.19438,0 0.352777,0.158397 0.352777,0.352778 z m -1.763889,2.116667 c -0.452261,0 -0.887589,-0.07303 -1.296458,-0.204964 l 1.531761,-3.675592 h 3.9832148 c -0.04127,0.500592 -0.173566,0.974725 -0.37465,1.411111 H 9.0897252 c -0.14605,-0.409575 -0.534106,-0.705555 -0.993422,-0.705555 -0.583495,0 -1.058334,0.474838 -1.058334,1.058333 0,0.583494 0.474839,1.058333 1.058334,1.058333 0.459316,0 0.847372,-0.29598 0.993422,-0.705555 h 1.0283478 c -0.7694088,1.066447 -2.0203588,1.763889 -3.4328818,1.763889 z m -4.233333,-4.233334 c 0,-2.2154439 1.710972,-4.0389523 3.880556,-4.2185162 v 4.1479612 l -1.593851,3.825522 C 3.3817802,13.646038 2.4518582,12.229282 2.4518582,10.596979 Z M 18.32686,14.124757 h -2.116667 v -1.411111 c 0,-0.194733 -0.158044,-0.352778 -0.352778,-0.352778 h -4.564592 c 0.210961,-0.548569 0.331259,-1.141942 0.331259,-1.763889 0,-0.194733 -0.158045,-0.352778 -0.352778,-0.352778 H 7.0379692 V 6.0108683 c 0,-0.1947334 -0.158044,-0.3527778 -0.352778,-0.3527778 -2.723444,0 -4.938889,2.2154446 -4.938889,4.9388885 0,2.723445 2.215445,4.938889 4.938889,4.938889 1.823156,0 3.4152428,-0.995891 4.2707288,-2.469444 h 4.548717 v 1.058333 h -2.822222 c -0.972608,0 -1.763889,0.791281 -1.763889,1.763889 v 3.527778 c 0,0.972609 0.791281,1.763889 1.763889,1.763889 h 5.644445 c 0.972608,0 1.763889,-0.79128 1.763889,-1.763889 v -3.527778 c 0,-0.972608 -0.791281,-1.763889 -1.763889,-1.763889"
       style="fill:#3dcab1;fill-opacity:1;fill-rule:nonzero;stroke:none;stroke-width:0.0352778" />
    <path
       id="path1050"
       d="m 6.6851912,21.885869 v -3.175 h 1.058334 v 3.175 z M 4.9213022,20.12198 v -2.822223 h 1.058334 v 4.586112 h -1.058334 z m -1.763889,0.352778 h 1.058334 v 1.411111 h -1.058334 z m 5.291667,-2.116667 c 0,-0.194734 -0.158044,-0.352778 -0.352777,-0.352778 H 6.6851912 V 16.94698 c 0,-0.194734 -0.158044,-0.352778 -0.352777,-0.352778 h -1.763889 c -0.194734,0 -0.352778,0.158044 -0.352778,0.352778 v 2.822222 h -1.411111 c -0.194734,0 -0.352778,0.158044 -0.352778,0.352778 v 1.763889 H 0.68796922 v 0.705555 h 2.11666698 1.763889 1.763889 1.763889 1.7638893 V 21.885869 H 8.4490802 v -3.527778"
       style="fill:#1f2937;fill-opacity:1;fill-rule:nonzero;stroke:none;stroke-width:0.0352778" />
    <path
       id="path1051"
       d="m 17.176451,18.577166 -1.722261,-2.8702 c -0.06809,-0.113242 -0.1905,-0.177448 -0.326319,-0.170392 -0.131939,0.0092 -0.248003,0.09137 -0.300214,0.213078 l -0.853017,1.990725 -0.690033,-0.690034 c -0.08361,-0.08361 -0.203553,-0.118886 -0.320323,-0.09596 -0.116063,0.02364 -0.212725,0.104069 -0.256822,0.214136 l -0.705555,1.763889 0.655461,0.262467 0.506589,-1.267531 0.680155,0.680156 c 0.0829,0.0829 0.201084,0.119239 0.316089,0.09701 0.115006,-0.02223 0.211667,-0.09984 0.257528,-0.207434 l 0.786694,-1.835503 1.761773,2.936523 c 0.06421,0.106891 0.179211,0.171097 0.30233,0.171097 0.0127,0 0.02575,-7.06e-4 0.03845,-0.0021 0.136878,-0.01482 0.252589,-0.108302 0.296334,-0.239183 l 1.058333,-3.175 -0.669572,-0.222956 -0.815623,2.44722"
       style="fill:#1f2937;fill-opacity:1;fill-rule:nonzero;stroke:none;stroke-width:0.0352778" />
    <path
       id="path1052"
       d="m 19.59686,10.949757 0.846667,-0.677333 v 1.354666 z m -0.564445,0.451556 0.758473,0.606777 H 18.273943 Z M 18.273943,9.8914241 h 1.516945 l -0.758473,0.6067769 z m 0.194028,1.0583329 -0.846667,0.677333 V 10.272424 Z M 17.268526,9.1858685 c -0.194733,0 -0.352777,0.1580445 -0.352777,0.3527778 v 2.8222217 c 0,0.194733 0.158044,0.352778 0.352777,0.352778 h 3.527778 c 0.194734,0 0.352778,-0.158045 0.352778,-0.352778 V 9.5386463 c 0,-0.1947333 -0.158044,-0.3527778 -0.352778,-0.3527778 h -3.527778"
       style="fill:#3dcab1;fill-opacity:1;fill-rule:nonzero;stroke:none;stroke-width:0.0352778" />
  </g>
</svg>
