<svg width="25" height="25" viewBox="0 0 25 25" fill="none" xmlns="http://www.w3.org/2000/svg">
<g clip-path="url(#clip0_4913_66)">
<path d="M21.882 23.7007C21.6277 23.4463 21.5007 23.0646 21.3736 22.683L21.3743 3.35129L2.04259 3.35205C1.27952 3.35205 0.643629 2.71615 0.643628 1.95309C0.516452 1.57155 0.898732 1.18928 1.15309 0.934925C1.40744 0.68057 1.78848 0.553885 2.17001 0.426708L24.2991 0.426455L24.2989 22.5556C24.2989 23.0643 24.045 23.3182 23.7907 23.5725C23.5363 23.8269 23.1541 23.9548 22.7725 24.082C22.6453 24.2092 22.2636 24.0822 21.882 23.7007Z" fill="black"/>
<path d="M1.27973 23.6996C0.771018 23.1909 0.770765 22.1738 1.27948 21.665L20.8646 2.33432C21.3733 1.82561 22.3917 1.82462 22.9004 2.33333C23.4091 2.84204 23.4081 3.86044 22.8994 4.36915L3.31432 23.6999C2.67844 24.3358 1.91562 24.3355 1.27973 23.6996Z" fill="black"/>
</g>
<defs>
<clipPath id="clip0_4913_66">
<rect width="24.8201" height="25" fill="white" transform="translate(0.17984)"/>
</clipPath>
</defs>
</svg>
