<?xml version="1.0" encoding="UTF-8" standalone="no"?>
<!-- Created with Inkscape (http://www.inkscape.org/) -->

<svg
   width="51.562157mm"
   height="64.533722mm"
   viewBox="0 0 51.562157 64.533722"
   version="1.1"
   id="svg1"
   inkscape:export-filename="bitmap.svg"
   inkscape:export-xdpi="96"
   inkscape:export-ydpi="96"
   xmlns:inkscape="http://www.inkscape.org/namespaces/inkscape"
   xmlns:sodipodi="http://sodipodi.sourceforge.net/DTD/sodipodi-0.dtd"
   xmlns="http://www.w3.org/2000/svg"
   xmlns:svg="http://www.w3.org/2000/svg">
  <sodipodi:namedview
     id="namedview1"
     pagecolor="#505050"
     bordercolor="#eeeeee"
     borderopacity="1"
     inkscape:showpageshadow="0"
     inkscape:pageopacity="0"
     inkscape:pagecheckerboard="0"
     inkscape:deskcolor="#505050"
     inkscape:document-units="mm" />
  <defs
     id="defs1" />
  <g
     inkscape:label="Capa 1"
     inkscape:groupmode="layer"
     id="layer1"
     transform="translate(-14.583645,-66.440535)">
    <path
       id="path98"
       d="m 31.53466,119.86526 c -6.35,-2.86809 -11.14778,-8.5725 -12.77761,-15.49401"
       style="fill:none;stroke:#ffffff;stroke-width:0.994925;stroke-linecap:round;stroke-linejoin:round;stroke-miterlimit:10;stroke-dasharray:none;stroke-opacity:1" />
    <path
       id="path99"
       d="m 30.04241,114.06912 1.49225,5.79614 -5.69736,1.82386"
       style="fill:none;stroke:#ffffff;stroke-width:0.994925;stroke-linecap:round;stroke-linejoin:round;stroke-miterlimit:10;stroke-dasharray:none;stroke-opacity:1" />
    <path
       id="path100"
       d="m 55.509436,82.643667 c 5.49275,4.29331 8.79828,10.96786 8.74183,18.083393"
       style="fill:none;stroke:#ffffff;stroke-width:0.994925;stroke-linecap:round;stroke-linejoin:round;stroke-miterlimit:10;stroke-dasharray:none;stroke-opacity:1" />
    <path
       id="path101"
       d="m 55.594106,88.633837 -0.0847,-5.99017 5.97605,-0.44097"
       style="fill:none;stroke:#ffffff;stroke-width:0.994925;stroke-linecap:round;stroke-linejoin:round;stroke-miterlimit:10;stroke-dasharray:none;stroke-opacity:1" />
    <path
       id="path102"
       d="m 47.603686,85.783387 c 0,-0.91369 -0.0953,-1.80622 -0.25753,-2.67758 l 3.67242,-2.97392 c -0.4057,-1.28764 -0.94545,-2.55411 -1.64748,-3.77119 -0.70555,-1.21709 -1.53105,-2.31775 -2.44475,-3.31259 l -4.41325,1.69334 c -1.35113,-1.16064 -2.91747,-2.06728 -4.63197,-2.67053 l -0.74083,-4.67431 c -1.31939,-0.2928 -2.68464,-0.45861 -4.092216,-0.45861 -1.40406,0 -2.76931,0.16581 -4.0887,0.45861 l -0.74083,4.67431 c -1.7145,0.60325 -3.28084,1.50989 -4.63197,2.67053 l -4.41678,-1.69334 c -0.91017,0.99484 -1.73567,2.0955 -2.44122,3.31259 -0.70203,1.21708 -1.24178,2.48355 -1.64748,3.77119 l 3.67242,2.97392 c -0.16228,0.87136 -0.25753,1.76389 -0.25753,2.67758 0,0.9137 0.0952,1.80622 0.25753,2.67406 l -3.67242,2.97744 c 0.4057,1.28764 0.94545,2.55411 1.64748,3.7712 0.70555,1.21708 1.53105,2.31775 2.44122,3.31258 l 4.41678,-1.69333 c 1.35113,1.16064 2.91747,2.06728 4.63197,2.67053 l 0.74083,4.674303 c 1.31939,0.29281 2.68464,0.45861 4.0887,0.45861 1.407576,0 2.772826,-0.1658 4.092216,-0.45861 l 0.74083,-4.674303 c 1.7145,-0.60325 3.28084,-1.50989 4.63197,-2.67053 l 4.41325,1.69333 c 0.9137,-0.99483 1.7392,-2.0955 2.44475,-3.31258 0.70203,-1.21709 1.24178,-2.48356 1.64748,-3.7712 l -3.67242,-2.97744 c 0.16228,-0.86784 0.25753,-1.76036 0.25753,-2.67406 z"
       style="fill:none;stroke:#ffffff;stroke-width:0.994925;stroke-linecap:round;stroke-linejoin:round;stroke-miterlimit:10;stroke-dasharray:none;stroke-opacity:1" />
    <path
       id="path103"
       d="m 41.863986,84.206477 -3.28436,2.91394 c -0.3175,0.27869 -0.45861,0.70908 -0.36689,1.12536 l 0.94545,4.28625 c 0.21872,0.99484 -0.85372,1.77447 -1.73214,1.25942 l -3.785306,-2.22603 c -0.36689,-0.21519 -0.81844,-0.21519 -1.1818,0 l -3.78531,2.22603 c -0.87842,0.51505 -1.95086,-0.26458 -1.73214,-1.25942 l 0.94545,-4.28625 c 0.0882,-0.41628 -0.0494,-0.84667 -0.36689,-1.12536 l -3.28436,-2.91394 c -0.762,-0.67734 -0.35278,-1.93675 0.65969,-2.03553 l 4.37092,-0.42686 c 0.42333,-0.0423 0.78669,-0.30692 0.95603,-0.69498 l 1.75683,-4.02166 c 0.40922,-0.93486 1.73214,-0.93486 2.14136,0 l 1.753306,4.02166 c 0.16933,0.38806 0.53622,0.65264 0.95602,0.69498 l 4.37092,0.42686 c 1.016,0.0988 1.42522,1.35819 0.66322,2.03553 z"
       style="fill:none;stroke:#ffffff;stroke-width:0.994925;stroke-linecap:round;stroke-linejoin:round;stroke-miterlimit:10;stroke-dasharray:none;stroke-opacity:1" />
    <path
       id="path104"
       d="m 65.291966,113.69517 -3.54189,-0.55033 c -0.22225,-0.63147 -0.50095,-1.25236 -0.8502,-1.85208 -0.34925,-0.59973 -0.75141,-1.15006 -1.18886,-1.65806 l 1.27353,-3.34786 c -0.75494,-0.69145 -1.59103,-1.31586 -2.51531,-1.84503 -0.9278,-0.52917 -1.88736,-0.93486 -2.86455,-1.24178 l -2.25072,2.794 c -1.32645,-0.24694 -2.69875,-0.24341 -4.05342,0.0141 l -2.26836,-2.78341 c -0.97367,0.31044 -1.93322,0.72319 -2.85397,1.25941 -0.92075,0.53623 -1.75331,1.16417 -2.50825,1.85914 l 1.29469,3.34434 c -0.89253,1.05127 -1.57339,2.24366 -2.01789,3.51719 l -3.53836,0.5715 c -0.21872,1.00189 -0.34219,2.03906 -0.33867,3.10445 0.004,1.06538 0.13406,2.10255 0.35631,3.10091 l 3.54189,0.55034 c 0.22578,0.63147 0.50094,1.25236 0.85019,1.85208 0.34925,0.59972 0.75142,1.14653 1.18886,1.65453 l -1.27352,3.35139 c 0.75847,0.68791 1.59455,1.31233 2.51883,1.84502 0.92428,0.52917 1.88383,0.93487 2.86103,1.24178 l 2.25072,-2.794 c 1.32644,0.24342 2.70228,0.24342 4.05342,-0.0141 l 2.26836,2.78342 c 0.97366,-0.31397 1.93322,-0.7232 2.85397,-1.25942 0.92428,-0.53622 1.75331,-1.16769 2.50825,-1.85914 l -1.29469,-3.34786 c 0.89252,-1.04775 1.57338,-2.24014 2.01788,-3.51367 l 3.53837,-0.57502 c 0.21872,-0.99837 0.34219,-2.03553 0.33866,-3.10092 -0.004,-1.06539 -0.13053,-2.10256 -0.3563,-3.10092 z"
       style="fill:none;stroke:#ffffff;stroke-width:0.994925;stroke-linecap:round;stroke-linejoin:round;stroke-miterlimit:10;stroke-dasharray:none;stroke-opacity:1" />
    <path
       id="path105"
       d="m 55.770486,118.29539 h -1.40405 c -0.26811,0 -0.48683,0.21873 -0.48683,0.49037 v 4.27213 c 0,0.26812 -0.21873,0.48684 -0.48684,0.48684 h -4.064 c -0.27164,0 -0.49036,-0.21872 -0.49036,-0.48684 v -4.27213 c 0,-0.27164 -0.21519,-0.49037 -0.48683,-0.49037 h -1.40406 c -0.78317,0 -1.2453,-0.87488 -0.80786,-1.52047 l 4.41325,-6.49816 c 0.38806,-0.5715 1.22767,-0.5715 1.6122,0 l 4.41325,6.49816 c 0.44097,0.64559 -0.0247,1.52047 -0.80787,1.52047 z"
       style="fill:none;stroke:#ffffff;stroke-width:0.994925;stroke-linecap:round;stroke-linejoin:round;stroke-miterlimit:10;stroke-dasharray:none;stroke-opacity:1" />
  </g>
</svg>
