<?xml version="1.0" encoding="UTF-8" standalone="no"?>
<!-- Created with Inkscape (http://www.inkscape.org/) -->

<svg
   width="65.017036mm"
   height="48.895096mm"
   viewBox="0 0 65.017036 48.895096"
   version="1.1"
   id="svg1"
   inkscape:export-filename="bitmap.svg"
   inkscape:export-xdpi="96"
   inkscape:export-ydpi="96"
   xmlns:inkscape="http://www.inkscape.org/namespaces/inkscape"
   xmlns:sodipodi="http://sodipodi.sourceforge.net/DTD/sodipodi-0.dtd"
   xmlns="http://www.w3.org/2000/svg"
   xmlns:svg="http://www.w3.org/2000/svg">
  <sodipodi:namedview
     id="namedview1"
     pagecolor="#505050"
     bordercolor="#eeeeee"
     borderopacity="1"
     inkscape:showpageshadow="0"
     inkscape:pageopacity="0"
     inkscape:pagecheckerboard="0"
     inkscape:deskcolor="#505050"
     inkscape:document-units="mm" />
  <defs
     id="defs1" />
  <g
     inkscape:label="Capa 1"
     inkscape:groupmode="layer"
     id="layer1"
     transform="translate(-67.092744,-229.928)">
    <path
       id="path711"
       d="m 99.675345,274.24399 -18.1998,-8.02216 v -23.21631 l 18.1998,8.02217 z"
       style="fill:none;stroke:#ffffff;stroke-width:0.994925;stroke-linecap:round;stroke-linejoin:round;stroke-miterlimit:10;stroke-dasharray:none;stroke-opacity:1"
       inkscape:export-filename=".\path711.svg"
       inkscape:export-xdpi="96"
       inkscape:export-ydpi="96" />
    <path
       id="path712"
       d="m 99.675345,274.24399 18.203335,-8.02216 v -23.21631 l -18.203335,8.02217 z"
       style="fill:none;stroke:#ffffff;stroke-width:0.994925;stroke-linecap:round;stroke-linejoin:round;stroke-miterlimit:10;stroke-dasharray:none;stroke-opacity:1" />
    <path
       id="path713"
       d="m 117.87868,243.00552 -18.203335,-8.01864 -18.1998,8.01864 18.1998,8.02217 z"
       style="fill:none;stroke:#ffffff;stroke-width:0.994925;stroke-linecap:round;stroke-linejoin:round;stroke-miterlimit:10;stroke-dasharray:none;stroke-opacity:1" />
    <path
       id="path714"
       d="m 117.87868,266.22183 -2.4377,-1.07597"
       style="fill:none;stroke:#ffffff;stroke-width:0.994925;stroke-linecap:round;stroke-linejoin:round;stroke-miterlimit:4;stroke-dasharray:none;stroke-opacity:1" />
    <path
       id="path715"
       d="m 110.83371,263.11738 -6.4135,-2.82575"
       style="fill:none;stroke:#ffffff;stroke-width:0.994925;stroke-linecap:round;stroke-linejoin:round;stroke-miterlimit:4;stroke-dasharray:4.49375, 5.03298;stroke-dashoffset:0;stroke-opacity:1" />
    <path
       id="path716"
       d="m 102.11657,259.27563 -2.441225,-1.07597 -2.43769,1.07597"
       style="fill:none;stroke:#ffffff;stroke-width:0.994925;stroke-linecap:round;stroke-linejoin:round;stroke-miterlimit:4;stroke-dasharray:none;stroke-opacity:1" />
    <path
       id="path717"
       d="m 92.630375,261.30411 -6.4135,2.82927"
       style="fill:none;stroke:#ffffff;stroke-width:0.994925;stroke-linecap:round;stroke-linejoin:round;stroke-miterlimit:4;stroke-dasharray:4.49375, 5.03298;stroke-dashoffset:0;stroke-opacity:1" />
    <path
       id="path718"
       d="m 83.913235,265.14586 -2.43769,1.07597"
       style="fill:none;stroke:#ffffff;stroke-width:0.994925;stroke-linecap:round;stroke-linejoin:round;stroke-miterlimit:4;stroke-dasharray:none;stroke-opacity:1" />
    <path
       id="path719"
       d="m 99.675345,234.98688 v 16.04081"
       style="fill:none;stroke:#ffffff;stroke-width:0.994925;stroke-linecap:round;stroke-linejoin:round;stroke-miterlimit:4;stroke-dasharray:5.33185, 5.97165;stroke-dashoffset:0;stroke-opacity:1" />
    <path
       id="path720"
       d="m 81.404985,232.82435 h 5.56684 v 4.80131"
       style="fill:none;stroke:#ffffff;stroke-width:0.994925;stroke-linecap:round;stroke-linejoin:round;stroke-miterlimit:10;stroke-dasharray:none;stroke-opacity:1" />
    <path
       id="path721"
       d="m 78.670955,253.56416 h -6.28297"
       style="fill:none;stroke:#ffffff;stroke-width:0.994925;stroke-linecap:round;stroke-linejoin:round;stroke-miterlimit:10;stroke-dasharray:none;stroke-opacity:1" />
    <path
       id="path722"
       d="m 78.670955,243.43238 h -6.28297"
       style="fill:none;stroke:#ffffff;stroke-width:0.994925;stroke-linecap:round;stroke-linejoin:round;stroke-miterlimit:10;stroke-dasharray:none;stroke-opacity:1" />
    <path
       id="path723"
       d="m 78.670955,265.79849 h -6.28297"
       style="fill:none;stroke:#ffffff;stroke-width:0.994925;stroke-linecap:round;stroke-linejoin:round;stroke-miterlimit:10;stroke-dasharray:none;stroke-opacity:1" />
    <path
       id="path724"
       d="m 81.404985,232.82435 c 0,1.32645 -1.07597,2.39889 -2.39889,2.39889 -1.32644,0 -2.39889,-1.07244 -2.39889,-2.39889 0,-1.32291 1.07245,-2.39889 2.39889,-2.39889 1.32292,0 2.39889,1.07598 2.39889,2.39889 z"
       style="fill:none;stroke:#ffffff;stroke-width:0.994925;stroke-linecap:round;stroke-linejoin:round;stroke-miterlimit:10;stroke-dasharray:none;stroke-opacity:1" />
    <path
       id="path725"
       d="m 72.387985,243.43238 c 0,1.32292 -1.07597,2.39889 -2.39889,2.39889 -1.32644,0 -2.39889,-1.07597 -2.39889,-2.39889 0,-1.32644 1.07245,-2.39889 2.39889,-2.39889 1.32292,0 2.39889,1.07245 2.39889,2.39889 z"
       style="fill:none;stroke:#ffffff;stroke-width:0.994925;stroke-linecap:round;stroke-linejoin:round;stroke-miterlimit:10;stroke-dasharray:none;stroke-opacity:1" />
    <path
       id="path726"
       d="m 72.387985,253.56416 c 0,1.32644 -1.07597,2.40242 -2.39889,2.40242 -1.32644,0 -2.39889,-1.07598 -2.39889,-2.40242 0,-1.32292 1.07245,-2.39536 2.39889,-2.39536 1.32292,0 2.39889,1.07244 2.39889,2.39536 z"
       style="fill:none;stroke:#ffffff;stroke-width:0.994925;stroke-linecap:round;stroke-linejoin:round;stroke-miterlimit:10;stroke-dasharray:none;stroke-opacity:1" />
    <path
       id="path727"
       d="m 72.387985,265.79497 c 0,1.32644 -1.07597,2.39889 -2.39889,2.39889 -1.32644,0 -2.39889,-1.07245 -2.39889,-2.39889 0,-1.32292 1.07245,-2.39889 2.39889,-2.39889 1.32292,0 2.39889,1.07597 2.39889,2.39889 z"
       style="fill:none;stroke:#ffffff;stroke-width:0.994925;stroke-linecap:round;stroke-linejoin:round;stroke-miterlimit:10;stroke-dasharray:none;stroke-opacity:1" />
    <path
       id="path728"
       d="m 86.971825,271.12897 v 4.8013 h -5.56684"
       style="fill:none;stroke:#ffffff;stroke-width:0.994925;stroke-linecap:round;stroke-linejoin:round;stroke-miterlimit:10;stroke-dasharray:none;stroke-opacity:1" />
    <path
       id="path729"
       d="m 81.404985,275.92675 c 0,-1.32292 -1.07597,-2.39889 -2.39889,-2.39889 -1.32644,0 -2.39889,1.07597 -2.39889,2.39889 0,1.32644 1.07245,2.39888 2.39889,2.39888 1.32292,0 2.39889,-1.07244 2.39889,-2.39888 z"
       style="fill:none;stroke:#ffffff;stroke-width:0.994925;stroke-linecap:round;stroke-linejoin:round;stroke-miterlimit:10;stroke-dasharray:none;stroke-opacity:1" />
    <path
       id="path730"
       d="m 112.23071,271.12897 v 4.8013 h 5.56683"
       style="fill:none;stroke:#ffffff;stroke-width:0.994925;stroke-linecap:round;stroke-linejoin:round;stroke-miterlimit:10;stroke-dasharray:none;stroke-opacity:1" />
    <path
       id="path731"
       d="m 126.81807,254.76008 h -6.29003"
       style="fill:none;stroke:#ffffff;stroke-width:0.994925;stroke-linecap:round;stroke-linejoin:round;stroke-miterlimit:10;stroke-dasharray:none;stroke-opacity:1" />
    <path
       id="path732"
       d="m 126.81807,264.89538 h -6.29003"
       style="fill:none;stroke:#ffffff;stroke-width:0.994925;stroke-linecap:round;stroke-linejoin:round;stroke-miterlimit:10;stroke-dasharray:none;stroke-opacity:1" />
    <path
       id="path733"
       d="m 126.81807,242.5328 h -6.29003"
       style="fill:none;stroke:#ffffff;stroke-width:0.994925;stroke-linecap:round;stroke-linejoin:round;stroke-miterlimit:10;stroke-dasharray:none;stroke-opacity:1" />
    <path
       id="path734"
       d="m 117.79754,275.92675 c 0,-1.32292 1.07597,-2.39889 2.39889,-2.39889 1.32644,0 2.39889,1.07597 2.39889,2.39889 0,1.32644 -1.07245,2.39888 -2.39889,2.39888 -1.32292,0 -2.39889,-1.07244 -2.39889,-2.39888 z"
       style="fill:none;stroke:#ffffff;stroke-width:0.994925;stroke-linecap:round;stroke-linejoin:round;stroke-miterlimit:10;stroke-dasharray:none;stroke-opacity:1" />
    <path
       id="path735"
       d="m 126.81454,264.89538 c 0,-1.32644 1.07597,-2.39889 2.39889,-2.39889 1.32644,0 2.39889,1.07245 2.39889,2.39889 0,1.32645 -1.07245,2.39889 -2.39889,2.39889 -1.32292,0 -2.39889,-1.07244 -2.39889,-2.39889 z"
       style="fill:none;stroke:#ffffff;stroke-width:0.994925;stroke-linecap:round;stroke-linejoin:round;stroke-miterlimit:10;stroke-dasharray:none;stroke-opacity:1" />
    <path
       id="path736"
       d="m 126.81454,254.76008 c 0,-1.32292 1.07597,-2.39889 2.39889,-2.39889 1.32644,0 2.39889,1.07597 2.39889,2.39889 0,1.32644 -1.07245,2.39889 -2.39889,2.39889 -1.32292,0 -2.39889,-1.07245 -2.39889,-2.39889 z"
       style="fill:none;stroke:#ffffff;stroke-width:0.994925;stroke-linecap:round;stroke-linejoin:round;stroke-miterlimit:10;stroke-dasharray:none;stroke-opacity:1" />
    <path
       id="path737"
       d="m 126.81454,242.52927 c 0,-1.32292 1.07597,-2.39889 2.39889,-2.39889 1.32644,0 2.39889,1.07597 2.39889,2.39889 0,1.32645 -1.07245,2.39889 -2.39889,2.39889 -1.32292,0 -2.39889,-1.07244 -2.39889,-2.39889 z"
       style="fill:none;stroke:#ffffff;stroke-width:0.994925;stroke-linecap:round;stroke-linejoin:round;stroke-miterlimit:10;stroke-dasharray:none;stroke-opacity:1" />
    <path
       id="path738"
       d="m 112.23071,237.62566 v -4.80131 h 5.56683"
       style="fill:none;stroke:#ffffff;stroke-width:0.994925;stroke-linecap:round;stroke-linejoin:round;stroke-miterlimit:10;stroke-dasharray:none;stroke-opacity:1" />
    <path
       id="path739"
       d="m 117.79754,232.82435 c 0,1.32645 1.07597,2.39889 2.39889,2.39889 1.32644,0 2.39889,-1.07244 2.39889,-2.39889 0,-1.32291 -1.07245,-2.39889 -2.39889,-2.39889 -1.32292,0 -2.39889,1.07598 -2.39889,2.39889 z"
       style="fill:none;stroke:#ffffff;stroke-width:0.994925;stroke-linecap:round;stroke-linejoin:round;stroke-miterlimit:10;stroke-dasharray:none;stroke-opacity:1" />
  </g>
</svg>
