<?xml version="1.0" encoding="UTF-8" standalone="no"?>
<!-- Created with Inkscape (http://www.inkscape.org/) -->

<svg
   width="56.359875mm"
   height="50.041622mm"
   viewBox="0 0 56.359875 50.041622"
   version="1.1"
   id="svg1"
   inkscape:export-filename="bitmap.svg"
   inkscape:export-xdpi="96"
   inkscape:export-ydpi="96"
   xmlns:inkscape="http://www.inkscape.org/namespaces/inkscape"
   xmlns:sodipodi="http://sodipodi.sourceforge.net/DTD/sodipodi-0.dtd"
   xmlns="http://www.w3.org/2000/svg"
   xmlns:svg="http://www.w3.org/2000/svg">
  <sodipodi:namedview
     id="namedview1"
     pagecolor="#505050"
     bordercolor="white"
     borderopacity="1"
     inkscape:showpageshadow="0"
     inkscape:pageopacity="0"
     inkscape:pagecheckerboard="0"
     inkscape:deskcolor="#505050"
     inkscape:document-units="mm" />
  <defs
     id="defs1" />
  <g
     inkscape:label="Capa 1"
     inkscape:groupmode="layer"
     id="layer1"
     transform="translate(-74.622812,-5.4535106)">
    <path
       id="path395"
       d="M 127.64183,54.99767 H 77.963662 c -1.569861,0 -2.843389,-1.27 -2.843389,-2.843389 V 8.7943622 c 0,-1.569861 1.273528,-2.843389 2.843389,-2.843389 h 49.678168 c 1.56986,0 2.84339,1.273528 2.84339,2.843389 V 52.154281 c 0,1.573389 -1.27353,2.843389 -2.84339,2.843389 z"
       style="fill:none;stroke:#fefefe;stroke-width:0.994925;stroke-linecap:round;stroke-linejoin:round;stroke-miterlimit:10;stroke-dasharray:none;stroke-opacity:1" />
    <path
       id="path396"
       d="M 130.48522,15.348973 H 75.120273 V 8.7943622 c 0,-1.569861 1.273528,-2.843389 2.843389,-2.843389 h 49.678168 c 1.56986,0 2.84339,1.273528 2.84339,2.843389 z"
       style="fill:none;stroke:#fefefe;stroke-width:0.994925;stroke-linecap:round;stroke-linejoin:round;stroke-miterlimit:10;stroke-dasharray:none;stroke-opacity:1" />
    <path
       id="path397"
       d="m 123.80008,10.720529 c 0,1.005416 -0.81492,1.820333 -1.82033,1.820333 -1.00542,0 -1.82034,-0.814917 -1.82034,-1.820333 0,-1.0054168 0.81492,-1.8203338 1.82034,-1.8203338 1.00541,0 1.82033,0.814917 1.82033,1.8203338 z"
       style="fill:none;stroke:#fefefe;stroke-width:0.994925;stroke-linecap:round;stroke-linejoin:round;stroke-miterlimit:10;stroke-dasharray:none;stroke-opacity:1" />
    <path
       id="path398"
       d="m 117.43244,10.720529 c 0,1.005416 -0.81492,1.820333 -1.82033,1.820333 -1.00189,0 -1.81681,-0.814917 -1.81681,-1.820333 0,-1.0054168 0.81492,-1.8203338 1.81681,-1.8203338 1.00541,0 1.82033,0.814917 1.82033,1.8203338 z"
       style="fill:none;stroke:#fefefe;stroke-width:0.994925;stroke-linecap:round;stroke-linejoin:round;stroke-miterlimit:10;stroke-dasharray:none;stroke-opacity:1" />
    <path
       id="path399"
       d="m 100.1675,31.904836 c 1.17122,0 2.05316,-1.075973 1.81328,-2.2225 -1.02659,-4.974167 -5.432783,-8.713612 -10.710339,-8.713612 -5.277556,0 -9.683751,3.739445 -10.710334,8.713612 -0.236361,1.146527 0.645583,2.2225 1.816806,2.2225 z"
       style="fill:none;stroke:#fefefe;stroke-width:0.994925;stroke-linecap:round;stroke-linejoin:round;stroke-miterlimit:10;stroke-dasharray:none;stroke-opacity:1" />
    <path
       id="path400"
       d="M 88.504663,30.592502 84.490052,28.69103"
       style="fill:none;stroke:#fefefe;stroke-width:0.994925;stroke-linecap:round;stroke-linejoin:round;stroke-miterlimit:10;stroke-dasharray:none;stroke-opacity:1" />
    <path
       id="path401"
       d="m 88.296524,31.689641 c 0,-1.643944 1.3335,-2.973917 2.973917,-2.973917 1.643945,0 2.973917,1.329973 2.973917,2.973917 z"
       style="fill:none;stroke:#fefefe;stroke-width:0.994925;stroke-linecap:round;stroke-linejoin:round;stroke-miterlimit:10;stroke-dasharray:none;stroke-opacity:1" />
    <path
       id="path402"
       d="m 82.048829,47.684586 c -1.171222,0 -2.053166,-1.075972 -1.816805,-2.2225 1.030111,-4.974167 5.432778,-8.713611 10.713861,-8.713611 5.277556,0 9.683755,3.739444 10.710335,8.713611 0.23636,1.146528 -0.64558,2.2225 -1.816806,2.2225 z"
       style="fill:none;stroke:#fefefe;stroke-width:0.994925;stroke-linecap:round;stroke-linejoin:round;stroke-miterlimit:10;stroke-dasharray:none;stroke-opacity:1" />
    <path
       id="path403"
       d="m 93.711663,46.372253 4.014612,-1.901472"
       style="fill:none;stroke:#fefefe;stroke-width:0.994925;stroke-linecap:round;stroke-linejoin:round;stroke-miterlimit:10;stroke-dasharray:none;stroke-opacity:1" />
    <path
       id="path404"
       d="m 93.919802,47.469392 c 0,-1.643945 -1.3335,-2.973917 -2.973917,-2.973917 -1.643944,0 -2.973916,1.329972 -2.973916,2.973917 z"
       style="fill:none;stroke:#fefefe;stroke-width:0.994925;stroke-linecap:round;stroke-linejoin:round;stroke-miterlimit:10;stroke-dasharray:none;stroke-opacity:1" />
    <path
       id="path405"
       d="m 111.11066,31.686114 v -4.617862 h -4.30036 v 4.617862"
       style="fill:none;stroke:#fefefe;stroke-width:0.994925;stroke-linecap:round;stroke-linejoin:round;stroke-miterlimit:10;stroke-dasharray:none;stroke-opacity:1" />
    <path
       id="path406"
       d="M 118.00747,31.686114 V 20.369002 h -4.29331 v 11.317112"
       style="fill:none;stroke:#fefefe;stroke-width:0.994925;stroke-linecap:round;stroke-linejoin:round;stroke-miterlimit:10;stroke-dasharray:none;stroke-opacity:1" />
    <path
       id="path407"
       d="m 124.91133,31.686114 v -7.101418 h -4.30036 v 7.101418"
       style="fill:none;stroke:#fefefe;stroke-width:0.994925;stroke-linecap:round;stroke-linejoin:round;stroke-miterlimit:10;stroke-dasharray:none;stroke-opacity:1" />
    <path
       id="path408"
       d="M 124.91133,31.686114 H 106.8103"
       style="fill:none;stroke:#fefefe;stroke-width:0.994925;stroke-linecap:round;stroke-linejoin:round;stroke-miterlimit:10;stroke-dasharray:none;stroke-opacity:1" />
    <path
       id="path409"
       d="M 124.91133,47.469392 H 106.8103 V 36.748475"
       style="fill:none;stroke:#fefefe;stroke-width:0.994925;stroke-linecap:round;stroke-linejoin:round;stroke-miterlimit:10;stroke-dasharray:none;stroke-opacity:1" />
    <path
       id="path410"
       d="m 106.8103,45.546753 3.6195,-3.6195 1.67922,1.679222 4.70253,-4.706056 4.55436,4.550834 4.04284,-4.042834"
       style="fill:none;stroke:#fefefe;stroke-width:0.994925;stroke-linecap:round;stroke-linejoin:round;stroke-miterlimit:10;stroke-dasharray:none;stroke-opacity:1" />
  </g>
</svg>
