<?xml version="1.0" encoding="UTF-8" standalone="no"?>
<!-- Created with Inkscape (http://www.inkscape.org/) -->

<svg
   width="70.769592mm"
   height="59.779881mm"
   viewBox="0 0 70.769592 59.779881"
   version="1.1"
   id="svg1"
   inkscape:export-filename="bitmap.svg"
   inkscape:export-xdpi="96"
   inkscape:export-ydpi="96"
   xmlns:inkscape="http://www.inkscape.org/namespaces/inkscape"
   xmlns:sodipodi="http://sodipodi.sourceforge.net/DTD/sodipodi-0.dtd"
   xmlns="http://www.w3.org/2000/svg"
   xmlns:svg="http://www.w3.org/2000/svg">
  <sodipodi:namedview
     id="namedview1"
     pagecolor="#505050"
     bordercolor="#eeeeee"
     borderopacity="1"
     inkscape:showpageshadow="0"
     inkscape:pageopacity="0"
     inkscape:pagecheckerboard="0"
     inkscape:deskcolor="#505050"
     inkscape:document-units="mm" />
  <defs
     id="defs1" />
  <g
     inkscape:label="Capa 1"
     inkscape:groupmode="layer"
     id="layer1"
     transform="translate(-62.802141,-145.50529)">
    <path
       id="path417"
       d="m 112.01835,180.10831 c 0.91369,0.508 1.74978,1.13595 2.48708,1.8662 l 3.53836,-1.07598 c 0.65617,0.82903 1.23825,1.73567 1.71803,2.72345 0.47978,0.98778 0.82903,2.0073 1.07597,3.03389 l -3.03389,2.11314 c 0.0776,0.68791 0.10231,1.38994 0.0494,2.10255 -0.0529,0.71261 -0.17286,1.40406 -0.34925,2.07434 l 2.69875,2.52588 c -0.39158,0.98073 -0.88194,1.93675 -1.4993,2.84692 -0.61736,0.91017 -1.32292,1.72156 -2.08845,2.44828 l -3.35139,-1.56633 c -1.11477,0.8255 -2.3883,1.44639 -3.76061,1.82386 l -0.84314,3.60186 c -1.04422,0.15169 -2.11666,0.20461 -3.2138,0.12347 -1.09714,-0.0741 -2.15195,-0.28222 -3.16442,-0.58208 l -0.3175,-3.69006 c -1.30175,-0.56444 -2.472968,-1.36172 -3.460748,-2.34244 l -3.53836,1.07244 c -0.65617,-0.82903 -1.23825,-1.72861 -1.71803,-2.71992 -0.47978,-0.9913 -0.829034,-2.0073 -1.075974,-3.03388 l 3.033894,-2.11314 c -0.0776,-0.68792 -0.10231,-1.38995 -0.0494,-2.10256 0.0388,-0.59619 0.13405,-1.17122 0.26458,-1.73214"
       style="fill:none;stroke:#ffffff;stroke-width:0.994925;stroke-linecap:round;stroke-linejoin:round;stroke-miterlimit:10;stroke-dasharray:none;stroke-opacity:1" />
    <path
       id="path418"
       d="m 107.36874,184.20759 c 3.03389,0.4445 5.25639,3.16442 5.03061,6.27239 -0.23636,3.25261 -3.06564,5.70442 -6.32178,5.46805 -3.25261,-0.23283 -5.70442,-3.06211 -5.46806,-6.31825 0.0776,-1.05127 0.41981,-2.01436 0.96661,-2.8328"
       style="fill:none;stroke:#ffffff;stroke-width:0.994925;stroke-linecap:round;stroke-linejoin:round;stroke-miterlimit:10;stroke-dasharray:none;stroke-opacity:1" />
    <path
       id="path419"
       d="m 115.39796,159.04748 c 0.45861,-0.33161 0.94544,-0.63148 1.4605,-0.89253 0.74436,-0.37747 1.51342,-0.65617 2.28953,-0.85372 l 1.64041,2.27541 c 1.06892,-0.13758 2.14136,-0.0776 3.16442,0.17286 l 1.88383,-2.07433 c 0.75142,0.28222 1.48167,0.64206 2.18017,1.10067 0.6985,0.45508 1.32292,0.98072 1.88031,1.55575 l -1.14653,2.55411 c 0.3175,0.41628 0.60678,0.86431 0.85019,1.34761 0.24695,0.48331 0.43392,0.98072 0.58209,1.4852 l 2.73755,0.59266 c 0.13053,0.7867 0.18345,1.60514 0.13759,2.4377 -0.0459,0.83255 -0.1905,1.63336 -0.4057,2.40241 l -2.79047,0.28575 c -0.4057,0.97367 -0.99131,1.87678 -1.73567,2.65289 l 0.85372,2.67406 c -0.61383,0.508 -1.29469,0.95955 -2.03905,1.33703 -0.74436,0.37394 -1.50989,0.65263 -2.286,0.84666 l -1.64395,-2.27189 c -1.06539,0.13759 -2.13783,0.0776 -3.16441,-0.17286 l -1.88384,2.07434 c -0.74789,-0.28223 -1.48166,-0.64206 -2.17664,-1.10067 -0.47272,-0.30339 -0.91016,-0.64206 -1.31233,-1.00542"
       style="fill:none;stroke:#ffffff;stroke-width:0.994925;stroke-linecap:round;stroke-linejoin:round;stroke-miterlimit:10;stroke-dasharray:none;stroke-opacity:1" />
    <path
       id="path420"
       d="m 116.8761,166.51578 c 0.3563,-1.28411 1.23119,-2.42358 2.51883,-3.07622 2.41653,-1.22061 5.36575,-0.25047 6.58989,2.16606 1.22061,2.42005 0.25047,5.36927 -2.16606,6.58989 -2.42005,1.22061 -5.36927,0.254 -6.58988,-2.16606 -0.21167,-0.41981 -0.35984,-0.85725 -0.44098,-1.29822"
       style="fill:none;stroke:#ffffff;stroke-width:0.994925;stroke-linecap:round;stroke-linejoin:round;stroke-miterlimit:10;stroke-dasharray:none;stroke-opacity:1" />
    <path
       id="path421"
       d="m 73.646708,179.55092 -8.43492,7.72231 c -2.40242,2.20486 -2.56822,5.9443 -0.36336,8.34672 2.20133,2.40595 5.94078,2.57175 8.34319,0.36689 l 8.43492,-7.72936"
       style="fill:none;stroke:#ffffff;stroke-width:0.994925;stroke-linecap:round;stroke-linejoin:round;stroke-miterlimit:10;stroke-dasharray:none;stroke-opacity:1" />
    <path
       id="path422"
       d="m 76.712348,174.13226 -3.22439,3.06563 c -0.59973,0.55034 -0.63853,1.47814 -0.0917,2.07787 l 8.47725,9.25689 c 0.55034,0.59619 1.47814,0.63852 2.07787,0.0882 l 3.29494,-3.09033"
       style="fill:none;stroke:#ffffff;stroke-width:0.994925;stroke-linecap:round;stroke-linejoin:round;stroke-miterlimit:10;stroke-dasharray:none;stroke-opacity:1" />
    <path
       id="path423"
       d="m 75.385898,165.85256 c -0.50447,11.45117 8.37495,21.1455 19.826114,21.64645 11.454698,0.50094 21.145498,-8.37495 21.646448,-19.82964 0.50447,-11.45117 -8.37495,-21.14198 -19.826108,-21.64645 -11.454704,-0.50094 -21.145504,8.37495 -21.646454,19.82964 z"
       style="fill:none;stroke:#ffffff;stroke-width:0.994925;stroke-linecap:round;stroke-linejoin:round;stroke-miterlimit:10;stroke-dasharray:none;stroke-opacity:1" />
    <path
       id="path424"
       d="m 80.924508,166.09598 c -0.36689,8.39258 6.13834,15.494 14.530924,15.86089 8.392578,0.37041 15.493998,-6.13481 15.864418,-14.52739 0.36689,-8.39259 -6.13834,-15.49753 -14.530918,-15.86442 -8.392584,-0.37042 -15.494004,6.13833 -15.864424,14.53092 z"
       style="fill:none;stroke:#ffffff;stroke-width:0.994925;stroke-linecap:round;stroke-linejoin:round;stroke-miterlimit:10;stroke-dasharray:none;stroke-opacity:1" />
    <path
       id="path425"
       d="m 90.421288,172.72467 v -5.54566 h -5.16467 v 5.54566"
       style="fill:none;stroke:#ffffff;stroke-width:0.994925;stroke-linecap:round;stroke-linejoin:round;stroke-miterlimit:10;stroke-dasharray:none;stroke-opacity:1" />
    <path
       id="path426"
       d="m 98.700992,172.72467 v -13.589 h -5.15762 v 13.589"
       style="fill:none;stroke:#ffffff;stroke-width:0.994925;stroke-linecap:round;stroke-linejoin:round;stroke-miterlimit:10;stroke-dasharray:none;stroke-opacity:1" />
    <path
       id="path427"
       d="m 106.98774,172.72467 v -8.52664 h -5.16467 v 8.52664"
       style="fill:none;stroke:#ffffff;stroke-width:0.994925;stroke-linecap:round;stroke-linejoin:round;stroke-miterlimit:10;stroke-dasharray:none;stroke-opacity:1" />
    <path
       id="path428"
       d="M 106.98774,172.72467 H 85.256618"
       style="fill:none;stroke:#ffffff;stroke-width:0.994925;stroke-linecap:round;stroke-linejoin:round;stroke-miterlimit:10;stroke-dasharray:none;stroke-opacity:1" />
  </g>
</svg>
